<?xml version="1.0" encoding="utf-8"?>
<!-- Generator: Adobe Illustrator 24.0.2, SVG Export Plug-In . SVG Version: 6.00 Build 0)  -->
<svg version="1.0" id="Layer_1" xmlns="http://www.w3.org/2000/svg" xmlns:xlink="http://www.w3.org/1999/xlink" x="0px" y="0px"
	 viewBox="0 0 300 280" enable-background="new 0 0 300 280" xml:space="preserve">
<g>
	<path fill-rule="evenodd" clip-rule="evenodd" fill="#F5A800" d="M197.57,73.51c0.44-1.06-0.44-2.1-0.44-2.1
		s-6.88-11.69-31.21-14.29c-13.03-1.39-30.76,1.25-43.2,7.95c-22.52,12.14-25.9,32.13-25.9,32.13c-0.13,0.49-0.34,1.99,0.16,2.62
		c0.52,0.65,1.27,0.63,2.19,0.33c7.95-2.68,31.65-10.55,46.6-14.51c21.28-5.64,38.76-9.08,49.98-10.99
		C196.55,74.5,197.27,74.24,197.57,73.51L197.57,73.51z M115.58,192.16c-0.51,1.19,0.66,2.37,0.66,2.37
		c5.05,6.33,27.45,14.36,51.76,8.48c37.13-8.99,44.98-35.25,45.87-38.96c0.18-0.75,0.33-1.97-0.37-2.7
		c-0.59-0.61-1.43-0.62-2.59-0.35c-25.79,6.06-68.71,19.17-93.45,29.76C116.4,191.22,115.92,191.39,115.58,192.16L115.58,192.16z"/>
	<path fill-rule="evenodd" clip-rule="evenodd" fill="#0033A1" d="M221.87,167.73c-12.73,28.61-37.17,48.52-69.19,48.97
		c-23.32,0.33-43.9-7.66-58.76-21.59l-8.99,3.84l0.01-13.92c-9.79-13.21-15.47-29.92-15.47-48.9c0-48.62,37.23-86.94,89.17-86.94
		c8.48,0,16.13,1.32,21.92,2.63c-8.9-2.85-17.75-4.39-27.6-4.39c-55.73,0-93.24,45.2-93.24,91.8c0,50.8,39.85,93.34,92.14,93.34
		c49.95,0,76.9-35.22,85.52-56.4L221.87,167.73L221.87,167.73z"/>
	<path fill-rule="evenodd" clip-rule="evenodd" fill="#E1251B" d="M208.94,157.69c7.33-0.84,12.4-3.78,15.19-6.51
		c2.54-2.49,3.13-5.92,3.13-8.47c0.1-3.74,0-15.57,0-15.57l-19.39,4.2c0,0,0,1.46-0.01,4.53c0.04,2.99,1.48,4.63,4.62,4.05
		c0.99-0.16,2.5-0.65,2.5-0.65l0.02,3.7c-0.01-0.1,0.29,2.07-4.6,3.04c-6.4,1.01-9.3-2.93-9.38-9.88
		c0.13-7.46,4.34-11.76,9.45-12.94c5.75-1.31,9.01,0.05,10.93,0.34c6.42,0.96,8.24-8.67,2.4-10.93c-4.32-1.74-9.93-2.05-15.27-0.99
		c-7.13,1.43-21.17,7.39-21.2,26.8C187.36,153.84,198.73,158.86,208.94,157.69L208.94,157.69z M198.6,110.86l0.01-29.89
		c0,0,8.73-1.54,10.98-1.84c6.25-0.8,10.45,2.68,10.37,7.61c-0.04,4.33-2.76,6.95-5.07,8.51c0,0,4.25,4.79,5.39,6.06
		c1.53,1.71,1.46,4.63-0.8,6.06c-2.23,1.4-4.43,0.67-5.72-0.74l-7.03-8.24c0,0,0.03,5.06,0.02,7.28c-0.02,2.2-1.29,3.81-3.58,4.28
		L198.6,110.86L198.6,110.86z M206.73,93.78c0.01,0,4.85-1.85,4.79-5.73c-0.05-3.28-3.28-2.68-4.81-2.35L206.73,93.78L206.73,93.78z
		 M193.8,111.76c1.83-0.4,2.97-1.69,2.97-3.92c0-2.02,0.01-3.55,0.01-3.55l-9.94,2.17l0.02-5.85c0,0,4.87-1.03,6.23-1.32
		c1.7-0.37,2.59-1.3,2.59-3.24c0-1.82-0.01-3.38-0.01-3.38l-8.81,1.87l0-4.64c0,0,4.58-0.95,7.04-1.47c1.92-0.4,2.56-1.72,2.56-3.53
		c0-1.18,0.02-3.52,0.02-3.52c-4.39,0.77-12.75,2.45-17.96,3.64l-0.07,30.28C178.45,115.29,188.35,112.95,193.8,111.76L193.8,111.76
		z M145.89,174.22c0,0,5.95-2.05,6.47-2.23c4.78-1.65,6.53-4.49,6.5-9.42c-0.06-5.34-0.07-15.76-0.07-15.76l13.84,15.94
		c2.25,2.32,5.07,2.52,7.64,1.76c2.67-0.78,4.89-3.21,4.96-6.66c0.02-11.51-0.01-39.62-0.01-39.62s-3.57,0.76-6.54,1.59
		c-3.42,0.97-6.04,3.15-6.04,8.9c0,2.03-0.01,13.71-0.01,13.71s-7.79-9.76-12.88-14.86c-2.72-2.72-7.23-1.09-7.23-1.09l-6.64,2
		L145.89,174.22L145.89,174.22z M141.7,129.54c0,0-4.17,1.22-7.56,2.44c-4.41,1.59-6.94,4.14-6.94,10.81
		c0,6.12-0.01,37.99-0.01,37.99s3.86-1.32,7.46-2.67c5.11-1.93,7.04-4.56,7.04-9.93C141.68,163.56,141.7,129.54,141.7,129.54
		L141.7,129.54z M121.01,138.57c-3.83-1.73-7.11,0.2-8.5,2.35l-11.76,19.99l-0.02-16.12l-13.86,5.75l-0.04,45.59l9.76-4.09
		c0,0,1.92-0.55,3.07-2.36c1.06-1.67,1.02-4.48,1.02-4.48l0.01-14.45l10.91,11.58c2.4,2.49,6.8,3.76,10.68,0.63
		c3.52-2.84,2.97-7.67,1.01-9.84l-9.94-10.01c0,0,8.75-13.79,10.18-16.1C125.44,143.94,124.49,140.15,121.01,138.57L121.01,138.57z
		 M102.42,131.26c0.11,6.38-4.48,9.77-10.47,12.25l-12.25,5.21l-0.03-33.21c0,0,7.73-3.15,10.24-4.06
		c7.16-2.61,11.37,0.53,11.37,5.31c0,3.2-1.37,5.91-4.33,8.3C99.88,125.54,102.37,127.94,102.42,131.26L102.42,131.26z
		 M88.14,125.11c0.6-0.23,1.04-0.43,1.55-0.68c1.83-0.89,3.13-2.54,3.15-4.68c0.02-2.43-1.99-3.06-4.69-1.66L88.14,125.11l5.43,7.3
		c-0.04-2.51-1.99-3.88-5.36-2.19l-0.01,8.08c0,0,1.09-0.48,1.9-0.86c1.97-0.92,3.52-2.56,3.48-5.04L88.14,125.11L88.14,125.11z
		 M125.69,103.23c0-2.8-1.92-3.54-4.25-2.87c-1.88,0.54-4.08,1.39-4.08,1.39l-0.01,20.64c-0.02,2.05-0.34,4.62-2.87,5.26
		c-1.94,0.49-2.86-0.81-2.87-2.85l-0.03-16.9c0-2.82-1.95-3.65-4.27-2.89c-2.61,0.87-4.17,1.5-4.17,1.5s0.02,14.63-0.01,20.47
		c-0.04,6.85,4.69,10.27,11.89,8.15c6.35-1.88,10.59-5.44,10.67-14.56L125.69,103.23L125.69,103.23z M136.37,115.21
		c0,0-0.02,5.8-0.02,8.14c-0.02,2.19-1.52,3.78-3.42,4.5c0,0.06,0-0.07,0,0c-1.58,0.54-4.95,1.7-4.95,1.7l0.01-31.17
		c0,0,6.95-2.42,11.04-3.37c6.35-1.48,10.88,1.41,10.79,6.55c-0.04,4.88-2.77,7.86-5.22,9.88l5.39,5.17
		c1.66,1.61,1.77,4.5-0.09,6.25c-1.1,1.04-4.05,2.11-6.36-0.23L136.37,115.21L136.37,115.21z M136.36,110.54
		c0.01,0,4.92-2.54,4.86-6.57c-0.05-3.44-3.21-2.68-4.86-2.08L136.36,110.54L136.36,110.54z M176.49,98.31l-12.38,2.81
		c0,0-0.01,1.31-0.01,3.45c0.01,1.59,1.14,2.64,2.75,2.3c1.02-0.21,1.84-0.39,1.84-0.39l0.02,3.43c0.01,1.36-2.03,2.25-4.15,2.21
		c-2.97-0.07-4.62-2.38-4.66-6.78c0.09-5.77,2.81-9.16,6.51-10.11c1.85-0.47,3.53-0.24,4.83-0.07c3.2,0.52,5.03-1.02,5.09-3.66
		c0.07-2.83-2.44-4.57-7.81-4.38c-11.65,0.4-17.61,8.78-17.61,18.77c0,10.24,6.69,14.76,14.85,13.28c4.61-0.94,6.91-2.43,8.5-3.82
		c1.59-1.4,2.24-3.48,2.25-5.26L176.49,98.31L176.49,98.31z"/>
	<path fill-rule="evenodd" clip-rule="evenodd" fill="#FFFFFF" d="M127.72,64.83c-13.65,6.04-22.87,20.38-23.38,26.44
		c-0.2,2.41,3,2.76,3.3,0.2C110.53,80.4,119.35,69.96,127.72,64.83L127.72,64.83z"/>
	<path fill-rule="evenodd" clip-rule="evenodd" fill="#FFFFFF" d="M172.96,75.13c7.36-1.8,11.4-2.08,11.48-5.37
		c0.13-5.5-15.58-11.89-29.97-10.74c14.66,0.98,23.45,6.63,23.5,10.56C178,72.08,175.84,74.26,172.96,75.13L172.96,75.13z"/>
	<path fill-rule="evenodd" clip-rule="evenodd" fill="#FFFFFF" d="M177.52,196.87c11.05-4.35,21.67-12.64,27.54-25.07
		c1.7-3.6-3.21-5.43-4.59-1.21C197.03,179.42,189.97,189.79,177.52,196.87L177.52,196.87z"/>
	<path fill-rule="evenodd" clip-rule="evenodd" fill="#E1251B" d="M221.45,157.41v1.29h3.03v6.25h2.06v-6.25h2.92v-1.29H221.45
		L221.45,157.41z M236.44,164.96l1.79-6.11v6.11h2.06v-7.55h-3l-1.87,5.79l-1.87-5.79h-3v7.55h2.06v-6.11l1.79,6.11H236.44
		L236.44,164.96z"/>
</g>
</svg>
