<?xml version="1.0" encoding="utf-8"?>
<!-- Generator: Adobe Illustrator 24.0.2, SVG Export Plug-In . SVG Version: 6.00 Build 0)  -->
<svg version="1.0" id="Layer_1" xmlns="http://www.w3.org/2000/svg" xmlns:xlink="http://www.w3.org/1999/xlink" x="0px" y="0px"
	 viewBox="0 0 300 280" enable-background="new 0 0 300 280" xml:space="preserve">
<g>
	<path fill-rule="evenodd" clip-rule="evenodd" fill="#AF1F2C" d="M89.72,158.37"/>
	<path fill-rule="evenodd" clip-rule="evenodd" fill="#AF1F2C" d="M176.33,73.93c7.79,14.83,9.32,32.7,9.51,50.1l-5.99-0.1
		c-0.19-20.53-2-41.74-16.07-56.85c-2.28-1.9-4.85-3.71-7.98-3.33c-0.57,0.48-1.24,0.86-1.33,1.62c-0.29,5.23,4.94,8.27,5.23,13.21
		c0.76,3.71-0.95,7.03-3.8,9.03c-1.9,1.42-4.85,1.14-6.94,0.47c-6.94-2.94-8.08-10.65-13.5-15.21c-0.76-0.29-1.71-1.04-2.57-0.38
		c-7.13,5.42-9.41,13.59-11.88,21.3c-1.9,6.65-2.85,13.69-3.52,20.92l-0.57,16.63h-6.18c-0.29-20.25,1.8-40.5,11.41-57.04
		c2.94-4.19,6.94-10.46,13.02-9.04c7.79,2.66,10.07,11.6,15.97,16.45c0.57,0.29,1.14,0.19,1.71-0.29c0.76-0.85,1.14-2,0.76-3.13
		c-2.38-5.71-8.75-11.6-4.66-18.16c2.47-2.95,6.37-3.9,10.17-3.04C167.01,59.38,172.71,66.99,176.33,73.93L176.33,73.93z
		 M176.33,73.93"/>
	<path fill-rule="evenodd" clip-rule="evenodd" fill="#AF1F2C" d="M192.87,128.03l0.57-0.38c-0.19,2-1.33,3.71-0.95,5.71
		c0.47,0.57,1.42,1.14,2,0.38c0.48-0.57,0.76-1.33,1.33-1.9c0.1,0.57,0.76,1.14,1.24,1.33c1.04,0.19,2-0.38,3.04-0.48
		c-0.19,1.23-1.23,2.28-0.85,3.52c0.38,0.57,0.95,0.67,1.42,0.95c-1.81,1.33-4.09,2.19-5.42,4.18l0.67,2
		c-2.19,0.1-4.28-0.67-6.37-0.29c0,1.81,0.1,3.62-0.1,5.33h-0.38l-0.19-5.42l-6.27,0.29c0.19-0.67,0.67-1.23,0.67-2
		c-1.33-1.9-3.42-2.95-5.14-4.28c0.67-0.19,1.14-0.67,1.42-1.33c-0.19-1.14-0.47-2.09-1.04-3.04c1.14,0.1,2.28,0.76,3.42,0.38
		c0.48-0.29,0.86-0.76,0.86-1.33c1.23,0.57,1.61,2.57,3.23,2.28l0.48-0.57l-1.14-5.8c0.57,0.29,1.14,1.05,1.9,0.57l2.09-3.04
		C190.4,125.93,190.78,129.07,192.87,128.03L192.87,128.03z M192.87,128.03"/>
	<path fill-rule="evenodd" clip-rule="evenodd" fill="#AF1F2C" d="M131.17,145.9c-0.19,1.14,0.19,2.19,0.1,3.14
		c1.52-2.85,4.56-2.85,7.41-2.95l-0.1,9.22c-2.85,0-5.51,0.95-7.22,3.13c-0.38,5.61-0.29,11.41-0.1,17.02
		c0.38,1.14,1.52,1.52,2.66,1.62c0,2.85,0.38,6.37-0.76,9.03l-0.95,0.57c-2.95-0.1-6.18,0.29-9.13-0.38
		c-1.23-1.04-0.95-2.66-1.14-4.09c0.19-1.8-1.43-5.99,1.81-5.61c1.33-0.76,0.86-2.1,1.14-3.43l-0.1-17.11
		c-0.66-0.95-1.8-0.95-2.85-0.85c0.47-3.04-1.33-7.42,1.9-8.94C126.04,145.99,128.6,145.9,131.17,145.9L131.17,145.9z M131.17,145.9
		"/>
	<path fill-rule="evenodd" clip-rule="evenodd" fill="#AF1F2C" d="M173.86,146.66c1.23,2.76,0.38,5.8,0.67,8.84
		c-3.71,1.14-1.52,5.7-2.28,8.37l0.1,11.88c0.38,0.86,1.23,1.33,2.09,1.52c1.9,0.29,3.61,0.19,4.66-1.52l0.09-17.97
		c-0.19-1.05-1.23-2-2.28-2.28c0.1-3.04-0.19-5.8,0.67-8.55l0.67-0.57c2.76-0.1,5.61-0.19,8.27,0.1c1.62,2.66,0.67,6.18,0.76,9.13
		c-0.86,0.29-1.62,0.95-1.9,1.71l-0.29,23.67c-0.86,5.13,1.61,11.6-2.57,15.69c-3.52,4.75-9.51,5.61-14.92,5.04
		c-1.24-0.47-3.14-0.47-3.33-2.28c-0.38-0.95,0.1-2.19,0.48-3.13c3.52-3.24,8.65,0.67,12.07-2.85c1.9-2.09,1.9-5.23,1.81-7.98
		c-2.38,1.61-5.14,3.42-8.18,2.38c-2.85-0.95-3.61-3.9-3.99-6.37c-0.57-8.08,0-16.54-0.38-24.24c-0.19-0.67-1.04-1.52-1.71-1.71
		h-0.19c-0.19-2.95-0.48-6.27,0.67-8.84c0.38-0.38,0.85-0.38,1.33-0.48C169.1,146.28,171.1,145.8,173.86,146.66L173.86,146.66z
		 M173.86,146.66"/>
	<path fill-rule="evenodd" clip-rule="evenodd" fill="#AF1F2C" d="M200.67,150.08l0.29-2.28c1.71,0.29,3.9-0.29,4.85,1.33
		c0,3.13,0.38,6.75-0.38,9.69c-1.14,1.14-2.95,0.76-4.56,0.76c-0.29-1.23,0.29-3.04-1.33-3.52c-0.76-0.09-1.33,0.19-1.9,0.57
		c-1.14,1.71,0.19,3.52,1.05,4.94c3.61,4.75,7.61,9.41,9.6,14.83c0.85,3.61,0.57,7.41-1.9,10.27c-2.38,1.71-5.61,1.99-8.56,1.42
		c-1.52-0.47-2.85-1.42-3.99-2.47l-0.19,2.29c-1.61-0.1-4.18,0.57-4.94-1.62c-0.29-4.94-0.1-9.51,0.19-14.36
		c0.76-2,3.23-0.95,4.75-1.33c0.48,2.95-0.38,6.65,2.76,8.27c0.95,0.66,2.47,0.38,3.33-0.19c0.76-0.67,1.14-1.52,1.14-2.57
		c-3.14-8.46-11.5-15.12-10.46-25.1c0.28-1.9,1.9-3.71,3.71-4.37c1.42-0.48,3.23-0.29,4.28,0.76
		C199.43,148.27,199.71,149.23,200.67,150.08L200.67,150.08z M200.67,150.08"/>
	<path fill-rule="evenodd" clip-rule="evenodd" fill="#AF1F2C" d="M117,175.56c0.29,0.57,0.85,1.42,1.62,1.42
		c-0.19,2.66,0.57,6.65-1.14,9.13c-2.76,1.14-5.61,0.29-8.37,0.29c-2.09-0.95-1.23-3.71-1.61-5.51c0.38-1.14-0.19-2.57,0.19-3.81
		c0.95-0.29,2.28-0.66,2.66-1.9c0.19-2.38,0.29-5.04-0.1-7.32h-7.51c-1.23,2-1.8,4.37-2.76,6.56c-0.19,1.14,0.67,2,1.52,2.47h0.29
		c-0.19,2.38,0.47,6.09-0.57,8.66l-0.95,0.85h-8.56c-2.38-0.85-1.71-3.9-2-6.08c0.48-1.05-0.57-2.76,0.48-3.61
		c1.14,0,2.19-0.48,2.94-1.43c1.91-4.47,3.62-9.03,5.42-13.5l7.13-17.97c0.29-0.76-0.1-1.61-0.86-1.71l-2.66-0.19
		c0-2.76-0.95-6.94,2.19-8.37c4-0.38,8.47-0.28,12.55-0.19L117,175.56z M110.35,161.58v-12.64l-5.14,12.64H110.35z M110.35,161.58"
		/>
	<path fill-rule="evenodd" clip-rule="evenodd" fill="#AF1F2C" d="M148.19,131.83l0.1,17.49c2.09-2.09,5.04-3.9,8.27-2.94
		c1.62,0.48,3.43,1.52,3.81,3.32l0.48,3.04l-0.1,30.14c-0.57,1.9-2,3.8-3.9,4.47c-3.23,0.57-6.56-0.19-8.65-2.85l-0.19,2.28
		c-2.85-0.57-7.7,1.52-9.13-1.81c-0.19-2.66-0.48-5.14-0.19-7.8c1.24-0.1,2.38-0.57,2.95-1.81l0.1-33.65
		c-0.57-1.14-1.81-1.14-2.95-1.33c0.29-2.94-0.76-6.46,1.43-8.46C142.39,131.54,145.43,131.92,148.19,131.83L148.19,131.83z
		 M150.75,155.5c-1.05,0.19-2.09,0.95-2.47,2.09v17.68l0.48,0.76c0.67,0.67,1.52,1.04,2.47,1.04c1.23-0.1,2.66-0.47,3.04-1.81V157.5
		l-0.76-1.33C152.75,155.6,151.8,155.41,150.75,155.5L150.75,155.5z M150.75,155.5"/>
	<path fill-rule="evenodd" clip-rule="evenodd" fill="#AF1F2C" d="M163.2,207.69c0.86,0.67,1.14,1.71,1.14,2.85
		c-0.19,0.95-0.48,1.9-1.52,2.47c-4.28,1.61-6.75-3.04-10.46-4c-13.98-7.23-29.09-15.02-46.2-11.31c-1.24,0.48-2.47,1.33-3.24,2.57
		c-0.67,1.61-0.38,3.33,0.86,4.75c16.25,11.5,36.98,12.17,57.9,11.79c11.6-0.76,22.72-3.14,32.23-9.13
		c1.61-1.24,3.14-2.85,3.14-4.94c-0.95-4.09-5.52-5.14-9.13-5.8l-0.95-0.29c0.86-1.71,1.52-3.52,1.52-5.71
		c6.09,0.48,12.27,2.57,15.31,8.27c1.61,3.61,0.38,7.99-2.38,10.56c-17.69,14.64-42.97,14.36-66.07,12.55
		c-11.79-1.33-22.91-4.28-32.8-10.27c-3.52-2.28-7.41-5.71-7.32-10.27c-0.09-3.23,1.05-6.18,3.9-8.17
		c9.41-5.7,22.91-3.33,32.89-0.57C142.96,196.67,153.42,201.32,163.2,207.69L163.2,207.69z M163.2,207.69"/>
	<text transform="matrix(1 0 0 1 208.9189 152.7803)" fill="#AF1F2C" font-family="'f-0-0'" font-size="4.5729px">¨</text>
</g>
</svg>
