<?xml version="1.0" encoding="utf-8"?>
<!-- Generator: Adobe Illustrator 24.0.2, SVG Export Plug-In . SVG Version: 6.00 Build 0)  -->
<svg version="1.0" id="Layer_1" xmlns="http://www.w3.org/2000/svg" xmlns:xlink="http://www.w3.org/1999/xlink" x="0px" y="0px"
	 viewBox="0 0 300 280" enable-background="new 0 0 300 280" xml:space="preserve">
<g>
	<path fill-rule="evenodd" clip-rule="evenodd" d="M243.52,147.5l0.02,0.57h-6.03v-0.57c1.62,0,1.45-0.47,1.45-2.51v-11.24
		c0-0.86,0.02-1.48-0.07-1.75c-0.2-0.71-0.49-0.74-1.5-0.79v-0.52l6.1-0.02v0.54c-1.6,0-1.55,0.52-1.55,2.53v11.24
		C241.94,146.86,241.87,147.5,243.52,147.5L243.52,147.5z M225.49,148.26c-6.44,0-6-0.96-7.01-2.53c-1.21-1.87-2.24-4.53-4.48-4.53
		c-0.59,0.02-2.56,0-2.93,0c-1.03,0-1.62,0.05-2.29,0c0,1.97,0,3.17,0,5.12c0.02,1.21,0.61,1.3,1.62,1.3v0.64h-6.15v-0.64
		c0.84,0.02,1.53,0.05,1.53-0.89c0-0.32,0-2.02,0-3v-9.4c0-1.11,0-0.74,0-1.3c0-1.25-0.44-1.57-1.53-1.57v-0.54h7.87
		c2.56,0,4.43-0.07,5.63,0.2c2.73,0.61,4.4,2.02,4.43,4.28c0,2.24-1.13,4.21-5.46,5.02c2.85,0.32,3.15,1.57,4.26,3.49
		c1.18,2.12,1.7,3.76,4.45,3.74C225.44,147.8,225.49,148.12,225.49,148.26L225.49,148.26z M208.79,139.48
		c2.24-0.02,5.51,0.15,7.5-0.37c1.13-0.42,2.63-1.06,2.63-3.49c0-1.72-0.86-2.29-1.89-2.78c-1.94-0.93-5.68-0.61-8.24-0.61V139.48
		L208.79,139.48z M187.49,143.84h-10.33l-1.01,1.77c-0.37,0.66-0.61,1.11-0.61,1.38c0.02,0.86,0.44,0.93,1.4,0.91l-0.02,0.57h-5.34
		v-0.49c1.18-0.02,1.38-0.42,1.72-1.01c0.3-0.57,0.54-0.98,1.18-2.21l7.16-13.63h2.26l7.55,13.77c1.35,2.48,1.28,2.9,2.8,2.9v0.66
		h-6.4v-0.61c1.45-0.07,1.67-0.57,0.86-1.92L187.49,143.84L187.49,143.84z M186.58,141.89l-4.35-8.17l-4.13,8.17H186.58
		L186.58,141.89z M164.17,141.01c-1.77,0.02-1.89,0.1-1.84,1.82l0.05,2.48c-0.76,1.67-3.27,2.8-5.17,3.3
		c-1.28,0.34-2.98,0.61-4.62,0.61c-3.94,0-7.13-0.89-9.45-2.85c-1.92-1.62-3.1-3.69-3.1-5.95c0-2.75,1.18-4.97,3.57-6.79
		c2.36-1.82,5.29-2.76,8.9-2.73c1.38,0.02,2.85,0.17,4.3,0.52c1.33,0.32,2.73,0.81,3.86,1.5l0.91,3.86l-0.57,0.22
		c-0.57-1.18-2.09-2.78-3.52-3.57c-1.25-0.71-2.98-1.16-4.82-1.18c-2.14-0.02-4.3,0.74-5.58,1.62c-1.97,1.35-3.64,3.52-3.64,6.15
		c0,2.73,1.57,4.92,3.2,5.98c1.6,1.01,3.52,1.7,5.98,1.67c1.48-0.02,3.05-0.39,3.91-0.74c0.93-0.37,2.24-0.96,2.8-2.04l0.02-1.5
		c0-0.52,0.1-1.84-0.3-2.14c-0.42-0.27-0.89-0.25-1.57-0.25v-0.59c3.44,0,3.2,0,6.67,0V141.01L164.17,141.01z M122.21,131.56v0.54
		c-0.76,0.02-0.91-0.02-1.21,0.22c-0.2,0.2-0.34,0.44-0.34,1.25v13.41c1.65,0,2.41,0,3.66,0c0.74,0,3.84,0,4.48,0
		c2.14,0,3.49-0.93,4.08-1.89l0.57,0.22l-1.8,3.59h-15.47v-0.57c1.06-0.02,1.5-0.22,1.5-1.35c0-7.13,0-3.44,0-4.3v-8.34
		c0-0.96,0-1.5-0.25-1.82c-0.25-0.34-0.49-0.42-1.35-0.42v-0.54H122.21L122.21,131.56z M90.18,131.71v0.64
		c-0.98,0-1.7,0.22-1.23,1.33c0.17,0.47,0.52,1.06,0.93,1.84l5.73,10.8c0.71-1.72,6.47-12.5,6.59-13.23
		c0.15-0.93-1.3-0.74-1.35-0.74v-0.62l5.17-0.02v0.64c-0.39,0-1.01-0.1-1.23,0.17c-0.37,0.47-1.3,2.44-2.58,4.89
		c-1.89,3.71-4.35,8.63-5.88,11.66h-2.48l-7.38-13.97c-0.59-1.16-1.08-2.29-1.48-2.53c-0.34-0.2-0.59-0.22-1.18-0.22v-0.64H90.18
		L90.18,131.71z M70.75,139.88c1.5,0.25,2.78,0.59,3.59,1.03c0.91,0.52,1.92,1.23,1.92,3.57c0.02,1.92-1.18,3.05-1.84,3.42
		c-1.72,1.35-5.93,1.43-8.49,1.43h-9.35v-0.59c0.79,0.02,1.01-0.05,1.33-0.42c0.22-0.27,0.15-1.28,0.15-2.26v-11.59
		c0-1.08-0.05-1.4-0.39-1.7c-0.37-0.3-0.59-0.27-1.21-0.27l0.02-0.57c6.05,0.02,8.49-0.05,12.15-0.02c2.46,0.12,5.66,1.06,5.66,4.01
		c0,1.13-0.52,2.26-1.3,2.83C72.22,139.34,71.95,139.46,70.75,139.88L70.75,139.88z M60.98,139.41c2.58,0,2.61,0,4.06,0
		c1.7,0,3.98-0.05,5.26-1.08c0.54-0.42,1.06-1.53,1.06-2.16c0-1.03-0.25-1.53-1.3-2.21c-1.08-0.69-3.35-0.57-5.29-0.57
		c-1.08,0-3.03,0-3.79,0V139.41L60.98,139.41z M60.98,147.4c1.67,0,3.03,0,4.89,0c3.52,0,7.08-0.2,7.08-3.05
		c0-1.03-0.64-1.89-1.3-2.39c-1.43-1.06-3.54-1.03-6.64-1.01c-1.33,0.02-2.71,0-4.03,0V147.4L60.98,147.4z"/>
</g>
</svg>
