<?xml version="1.0" encoding="utf-8"?>
<!-- Generator: Adobe Illustrator 24.0.2, SVG Export Plug-In . SVG Version: 6.00 Build 0)  -->
<svg version="1.0" id="Layer_1" xmlns="http://www.w3.org/2000/svg" xmlns:xlink="http://www.w3.org/1999/xlink" x="0px" y="0px"
	 viewBox="0 0 300 280" enable-background="new 0 0 300 280" xml:space="preserve">
<g>
	<g>
		<polygon fill="#C3302D" points="59.13,63.42 58.2,63.46 57.29,63.56 56.42,63.78 55.57,64.05 54.75,64.39 53.98,64.81 
			53.24,65.28 52.54,65.81 51.91,66.4 51.31,67.04 50.78,67.74 50.32,68.46 49.89,69.24 49.56,70.07 49.28,70.92 49.09,71.79 
			48.96,72.7 48.92,73.63 48.92,73.63 48.92,73.65 48.92,73.69 48.92,73.78 48.92,73.91 48.92,74.08 48.92,74.27 48.92,74.48 
			48.92,74.75 48.92,75.03 48.92,75.37 48.92,75.71 48.92,76.11 48.92,76.51 48.92,76.96 48.92,77.44 48.92,77.95 48.92,78.48 
			48.92,79.03 48.92,79.63 48.92,80.24 48.92,80.88 48.92,81.56 48.92,82.26 48.92,82.98 48.92,83.72 48.92,84.48 48.92,85.26 
			48.92,86.09 48.92,86.92 48.92,87.79 48.92,88.65 48.92,89.57 48.92,90.48 48.92,91.43 48.92,92.38 48.92,93.38 48.92,94.38 
			48.92,95.39 48.92,96.43 48.92,97.47 48.92,98.55 48.92,99.63 48.92,100.73 48.92,101.86 48.92,102.98 48.92,104.12 48.92,105.29 
			48.92,106.45 48.92,107.64 48.92,108.85 48.92,110.06 48.92,111.29 48.92,112.52 48.92,113.74 48.92,115 48.92,116.27 
			48.92,117.54 48.92,118.81 48.92,120.1 48.92,121.39 48.92,122.69 48.92,124 48.92,125.31 48.92,126.63 48.92,127.96 
			48.92,129.28 48.92,130.61 48.92,131.95 48.92,133.28 48.92,134.64 48.92,135.97 48.92,137.33 48.92,138.66 48.92,140 
			48.92,141.34 48.92,142.67 48.92,144.03 48.92,145.36 48.92,146.72 48.92,148.05 48.92,149.39 48.92,150.72 48.92,152.04 
			48.92,153.37 48.92,154.68 48.92,156 48.92,157.31 48.92,158.61 48.92,159.9 48.92,161.19 48.92,162.46 48.92,163.73 48.92,165 
			48.92,166.26 48.92,167.48 48.92,168.71 48.92,169.94 48.92,171.15 48.92,172.36 48.92,173.55 48.92,174.71 48.92,175.88 
			48.92,177.02 48.92,178.14 48.92,179.27 48.92,180.37 48.92,181.45 48.92,182.53 48.92,183.57 48.92,184.61 48.92,185.62 
			48.92,186.64 48.92,187.62 48.92,188.57 48.92,189.52 48.92,190.43 48.92,191.35 48.92,192.21 48.92,193.08 48.92,193.91 
			48.92,194.74 48.92,195.52 48.92,196.28 48.92,197.02 48.92,197.74 48.92,198.44 48.92,199.12 48.92,199.76 48.92,200.37 
			48.92,200.97 48.92,201.52 48.92,202.05 48.92,202.56 48.92,203.04 48.92,203.49 48.92,203.89 48.92,204.29 48.92,204.63 
			48.92,204.97 48.92,205.25 48.92,205.52 48.92,205.73 48.92,205.92 48.92,206.09 48.92,206.22 48.92,206.31 48.92,206.35 
			48.92,206.37 48.92,206.37 48.96,207.3 49.09,208.21 49.28,209.08 49.56,209.93 49.89,210.76 50.32,211.54 50.78,212.26 
			51.31,212.96 51.91,213.6 52.54,214.19 53.24,214.72 53.98,215.18 54.75,215.61 55.57,215.95 56.42,216.22 57.29,216.43 
			58.2,216.54 59.13,216.58 59.13,216.58 59.15,216.58 59.18,216.58 59.26,216.58 59.35,216.58 59.45,216.58 59.6,216.58 
			59.77,216.58 59.96,216.58 60.17,216.58 60.4,216.58 60.68,216.58 60.96,216.58 61.27,216.58 61.61,216.58 61.97,216.58 
			62.33,216.58 62.74,216.58 63.16,216.58 63.61,216.58 64.07,216.58 64.56,216.58 65.07,216.58 65.6,216.58 66.15,216.58 
			66.72,216.58 67.31,216.58 67.93,216.58 68.56,216.58 69.2,216.58 69.88,216.58 70.56,216.58 71.25,216.58 71.98,216.58 
			72.72,216.58 73.48,216.58 74.26,216.58 75.05,216.58 75.85,216.58 76.68,216.58 77.53,216.58 78.38,216.58 79.27,216.58 
			80.13,216.58 81.05,216.58 81.98,216.58 82.91,216.58 83.84,216.58 84.82,216.58 85.79,216.58 86.79,216.58 87.78,216.58 
			88.8,216.58 89.84,216.58 90.88,216.58 91.94,216.58 93,216.58 94.08,216.58 95.16,216.58 96.26,216.58 97.38,216.58 
			98.51,216.58 99.63,216.58 100.8,216.58 101.94,216.58 103.1,216.58 104.27,216.58 105.46,216.58 106.64,216.58 107.85,216.58 
			109.06,216.58 110.29,216.58 111.52,216.58 112.75,216.58 113.98,216.58 115.23,216.58 116.48,216.58 117.75,216.58 
			119.02,216.58 120.29,216.58 121.56,216.58 122.85,216.58 124.15,216.58 125.44,216.58 126.73,216.58 128.05,216.58 
			129.36,216.58 130.67,216.58 131.99,216.58 133.3,216.58 134.64,216.58 135.95,216.58 137.29,216.58 138.62,216.58 139.96,216.58 
			141.29,216.58 142.63,216.58 143.96,216.58 145.32,216.58 146.65,216.58 147.99,216.58 149.34,216.58 150.66,216.58 
			152.01,216.58 153.35,216.58 154.68,216.58 156.02,216.58 157.37,216.58 158.71,216.58 160.04,216.58 161.38,216.58 
			162.71,216.58 164.05,216.58 165.36,216.58 166.7,216.58 168.01,216.58 169.33,216.58 170.64,216.58 171.95,216.58 173.27,216.58 
			174.56,216.58 175.85,216.58 177.15,216.58 178.44,216.58 179.71,216.58 180.98,216.58 182.25,216.58 183.52,216.58 
			184.77,216.58 186.02,216.58 187.25,216.58 188.48,216.58 189.71,216.58 190.94,216.58 192.15,216.58 193.36,216.58 
			194.54,216.58 195.73,216.58 196.9,216.58 198.06,216.58 199.2,216.58 200.35,216.58 201.49,216.58 202.62,216.58 203.74,216.58 
			204.84,216.58 205.92,216.58 207,216.58 208.06,216.58 209.12,216.58 210.16,216.58 211.2,216.58 212.22,216.58 213.21,216.58 
			214.21,216.58 215.18,216.58 216.16,216.58 217.09,216.58 218.02,216.58 218.95,216.58 219.84,216.58 220.73,216.58 
			221.63,216.58 222.47,216.58 223.32,216.58 224.15,216.58 224.95,216.58 225.74,216.58 226.52,216.58 227.28,216.58 
			228.02,216.58 228.74,216.58 229.44,216.58 230.12,216.58 230.8,216.58 231.44,216.58 232.07,216.58 232.69,216.58 233.28,216.58 
			233.85,216.58 234.4,216.58 234.93,216.58 235.44,216.58 235.93,216.58 236.39,216.58 236.84,216.58 237.26,216.58 237.67,216.58 
			238.03,216.58 238.39,216.58 238.73,216.58 239.04,216.58 239.32,216.58 239.59,216.58 239.83,216.58 240.04,216.58 
			240.23,216.58 240.4,216.58 240.55,216.58 240.65,216.58 240.74,216.58 240.8,216.58 240.85,216.58 240.87,216.58 240.87,216.58 
			241.8,216.54 242.71,216.43 243.58,216.22 244.43,215.95 245.25,215.61 246.01,215.18 246.76,214.72 247.44,214.19 248.09,213.6 
			248.69,212.96 249.22,212.26 249.68,211.54 250.11,210.76 250.44,209.93 250.72,209.08 250.91,208.21 251.04,207.3 251.08,206.37 
			251.08,206.37 251.08,206.35 251.08,206.31 251.08,206.22 251.08,206.09 251.08,205.92 251.08,205.73 251.08,205.52 
			251.08,205.25 251.08,204.97 251.08,204.63 251.08,204.29 251.08,203.89 251.08,203.49 251.08,203.04 251.08,202.56 
			251.08,202.05 251.08,201.52 251.08,200.97 251.08,200.37 251.08,199.76 251.08,199.12 251.08,198.44 251.08,197.74 
			251.08,197.02 251.08,196.28 251.08,195.52 251.08,194.74 251.08,193.91 251.08,193.08 251.08,192.21 251.08,191.35 
			251.08,190.43 251.08,189.52 251.08,188.57 251.08,187.62 251.08,186.64 251.08,185.62 251.08,184.61 251.08,183.57 
			251.08,182.53 251.08,181.45 251.08,180.37 251.08,179.27 251.08,178.14 251.08,177.02 251.08,175.88 251.08,174.71 
			251.08,173.55 251.08,172.36 251.08,171.15 251.08,169.94 251.08,168.71 251.08,167.48 251.08,166.26 251.08,165 251.08,163.73 
			251.08,162.46 251.08,161.19 251.08,159.9 251.08,158.61 251.08,157.31 251.08,156 251.08,154.68 251.08,153.37 251.08,152.04 
			251.08,150.72 251.08,149.39 251.08,148.05 251.08,146.72 251.08,145.36 251.08,144.03 251.08,142.67 251.08,141.34 251.08,140 
			251.08,138.66 251.08,137.33 251.08,135.97 251.08,134.64 251.08,133.28 251.08,131.95 251.08,130.61 251.08,129.28 
			251.08,127.96 251.08,126.63 251.08,125.31 251.08,124 251.08,122.69 251.08,121.39 251.08,120.1 251.08,118.81 251.08,117.54 
			251.08,116.27 251.08,115 251.08,113.74 251.08,112.52 251.08,111.29 251.08,110.06 251.08,108.85 251.08,107.64 251.08,106.45 
			251.08,105.29 251.08,104.12 251.08,102.98 251.08,101.86 251.08,100.73 251.08,99.63 251.08,98.55 251.08,97.47 251.08,96.43 
			251.08,95.39 251.08,94.38 251.08,93.38 251.08,92.38 251.08,91.43 251.08,90.48 251.08,89.57 251.08,88.65 251.08,87.79 
			251.08,86.92 251.08,86.09 251.08,85.26 251.08,84.48 251.08,83.72 251.08,82.98 251.08,82.26 251.08,81.56 251.08,80.88 
			251.08,80.24 251.08,79.63 251.08,79.03 251.08,78.48 251.08,77.95 251.08,77.44 251.08,76.96 251.08,76.51 251.08,76.11 
			251.08,75.71 251.08,75.37 251.08,75.03 251.08,74.75 251.08,74.48 251.08,74.27 251.08,74.08 251.08,73.91 251.08,73.78 
			251.08,73.69 251.08,73.65 251.08,73.63 251.08,73.63 251.04,72.7 250.91,71.79 250.72,70.92 250.44,70.07 250.11,69.24 
			249.68,68.46 249.22,67.74 248.69,67.04 248.09,66.4 247.44,65.81 246.76,65.28 246.01,64.81 245.25,64.39 244.43,64.05 
			243.58,63.78 242.71,63.56 241.8,63.46 240.87,63.42 240.87,63.42 240.85,63.42 240.8,63.42 240.74,63.42 240.65,63.42 
			240.55,63.42 240.4,63.42 240.23,63.42 240.04,63.42 239.83,63.42 239.59,63.42 239.32,63.42 239.04,63.42 238.73,63.42 
			238.39,63.42 238.03,63.42 237.67,63.42 237.26,63.42 236.84,63.42 236.39,63.42 235.93,63.42 235.44,63.42 234.93,63.42 
			234.4,63.42 233.85,63.42 233.28,63.42 232.69,63.42 232.07,63.42 231.44,63.42 230.8,63.42 230.12,63.42 229.44,63.42 
			228.74,63.42 228.02,63.42 227.28,63.42 226.52,63.42 225.74,63.42 224.95,63.42 224.15,63.42 223.32,63.42 222.47,63.42 
			221.63,63.42 220.73,63.42 219.84,63.42 218.95,63.42 218.02,63.42 217.09,63.42 216.16,63.42 215.18,63.42 214.21,63.42 
			213.21,63.42 212.22,63.42 211.2,63.42 210.16,63.42 209.12,63.42 208.06,63.42 207,63.42 205.92,63.42 204.84,63.42 
			203.74,63.42 202.62,63.42 201.49,63.42 200.35,63.42 199.2,63.42 198.06,63.42 196.9,63.42 195.73,63.42 194.54,63.42 
			193.36,63.42 192.15,63.42 190.94,63.42 189.71,63.42 188.48,63.42 187.25,63.42 186.02,63.42 184.77,63.42 183.52,63.42 
			182.25,63.42 180.98,63.42 179.71,63.42 178.44,63.42 177.15,63.42 175.85,63.42 174.56,63.42 173.27,63.42 171.95,63.42 
			170.64,63.42 169.33,63.42 168.01,63.42 166.7,63.42 165.36,63.42 164.05,63.42 162.71,63.42 161.38,63.42 160.04,63.42 
			158.71,63.42 157.37,63.42 156.02,63.42 154.68,63.42 153.35,63.42 152.01,63.42 150.66,63.42 149.34,63.42 147.99,63.42 
			146.65,63.42 145.32,63.42 143.96,63.42 142.63,63.42 141.29,63.42 139.96,63.42 138.62,63.42 137.29,63.42 135.95,63.42 
			134.64,63.42 133.3,63.42 131.99,63.42 130.67,63.42 129.36,63.42 128.05,63.42 126.73,63.42 125.44,63.42 124.15,63.42 
			122.85,63.42 121.56,63.42 120.29,63.42 119.02,63.42 117.75,63.42 116.48,63.42 115.23,63.42 113.98,63.42 112.75,63.42 
			111.52,63.42 110.29,63.42 109.06,63.42 107.85,63.42 106.64,63.42 105.46,63.42 104.27,63.42 103.1,63.42 101.94,63.42 
			100.8,63.42 99.63,63.42 98.51,63.42 97.38,63.42 96.26,63.42 95.16,63.42 94.08,63.42 93,63.42 91.94,63.42 90.88,63.42 
			89.84,63.42 88.8,63.42 87.78,63.42 86.79,63.42 85.79,63.42 84.82,63.42 83.84,63.42 82.91,63.42 81.98,63.42 81.05,63.42 
			80.13,63.42 79.27,63.42 78.38,63.42 77.53,63.42 76.68,63.42 75.85,63.42 75.05,63.42 74.26,63.42 73.48,63.42 72.72,63.42 
			71.98,63.42 71.25,63.42 70.56,63.42 69.88,63.42 69.2,63.42 68.56,63.42 67.93,63.42 67.31,63.42 66.72,63.42 66.15,63.42 
			65.6,63.42 65.07,63.42 64.56,63.42 64.07,63.42 63.61,63.42 63.16,63.42 62.74,63.42 62.33,63.42 61.97,63.42 61.61,63.42 
			61.27,63.42 60.96,63.42 60.68,63.42 60.4,63.42 60.17,63.42 59.96,63.42 59.77,63.42 59.6,63.42 59.45,63.42 59.35,63.42 
			59.26,63.42 59.18,63.42 59.15,63.42 59.13,63.42 59.13,63.42 		"/>
		<polygon fill="#F6AF26" points="134.4,132.54 134.51,131.8 134.61,131.06 134.72,130.29 134.85,129.53 134.98,128.75 
			135.1,127.94 135.23,127.14 135.38,126.33 135.53,125.51 135.68,124.66 135.82,123.83 135.99,122.98 136.14,122.12 136.33,121.25 
			136.5,120.38 136.69,119.51 136.88,118.62 137.07,117.73 137.26,116.84 137.48,115.95 137.69,115.04 137.9,114.15 138.13,113.24 
			138.37,112.35 138.6,111.43 138.83,110.52 139.09,109.61 139.34,108.7 139.6,107.81 139.87,106.9 140.12,106.01 140.42,105.1 
			140.7,104.21 140.99,103.32 141.27,102.43 141.59,101.56 141.88,100.67 142.2,99.8 142.52,98.93 142.84,98.08 143.18,97.24 
			143.52,96.39 143.85,95.56 144.21,94.74 144.58,93.93 144.94,93.13 145.3,92.32 145.68,91.56 146.06,90.77 146.44,90.03 
			146.84,89.27 147.24,88.55 147.65,87.83 148.05,87.13 148.47,86.45 148.9,85.77 149.34,85.12 149.77,84.48 150.19,83.87 
			150.66,83.25 151.1,82.68 151.57,82.11 152.06,81.56 152.52,81.03 153.01,80.52 153.5,80.03 154.01,79.58 154.51,79.14 
			155.02,78.72 155.53,78.31 156.06,77.95 156.59,77.59 157.14,77.28 157.67,76.98 158.22,76.7 158.79,76.47 159.35,76.24 
			159.92,76.05 160.51,75.88 161.08,75.75 161.68,75.64 162.29,75.56 162.88,75.52 163.5,75.52 163.5,75.52 163.88,75.52 
			164.24,75.54 164.62,75.58 164.98,75.62 165.34,75.69 165.72,75.77 166.08,75.88 166.46,75.98 166.85,76.11 167.21,76.24 
			167.59,76.39 167.95,76.55 168.33,76.72 168.71,76.91 169.07,77.13 169.45,77.34 169.83,77.57 170.22,77.83 170.58,78.08 
			170.96,78.36 171.34,78.63 171.7,78.93 172.08,79.25 172.46,79.56 172.82,79.9 173.2,80.24 173.59,80.6 173.97,80.98 
			174.33,81.37 174.71,81.75 175.09,82.17 175.45,82.57 175.83,83.02 176.19,83.44 176.57,83.91 176.95,84.37 177.31,84.84 
			177.7,85.33 178.06,85.82 178.42,86.32 178.8,86.85 179.16,87.38 179.54,87.91 179.9,88.46 180.26,89.04 180.62,89.61 
			180.98,90.18 181.36,90.77 181.72,91.37 182.08,91.98 182.44,92.6 182.8,93.23 183.16,93.87 183.5,94.5 183.86,95.18 
			184.22,95.84 184.58,96.52 184.92,97.19 185.28,97.89 185.62,98.59 185.98,99.29 186.32,100.01 186.66,100.75 187,101.48 
			187.34,102.22 187.68,102.98 188.02,103.74 188.36,104.51 188.69,105.27 189.03,106.05 189.37,106.86 189.69,107.64 
			190.03,108.45 190.35,109.25 190.66,110.08 190.98,110.91 191.32,111.73 191.64,112.58 191.94,113.43 192.25,114.27 
			192.57,115.14 192.89,116.01 193.19,116.88 193.5,117.75 193.8,118.64 194.1,119.53 194.39,120.42 194.69,121.33 194.99,122.22 
			195.28,123.15 195.56,124.06 195.86,124.98 196.13,125.91 196.41,126.84 196.68,127.79 196.96,128.73 197.23,129.68 
			197.51,130.63 197.79,131.59 198.04,132.54 198.29,133.52 198.57,134.49 198.82,135.47 199.08,136.44 199.31,137.41 
			199.57,138.41 199.82,139.39 200.05,140.36 200.29,141.36 200.52,142.37 200.75,143.37 200.99,144.37 201.2,145.38 201.43,146.4 
			201.64,147.42 201.85,148.43 202.07,149.45 202.28,150.47 202.49,151.51 202.68,152.52 202.87,153.56 203.06,154.6 203.25,155.62 
			203.44,156.66 203.63,157.69 203.8,158.73 203.97,159.77 204.14,160.83 204.31,161.87 204.48,162.91 204.63,163.97 204.8,165 
			204.95,166.06 205.1,167.1 205.22,168.16 205.37,169.2 205.5,170.26 205.63,171.3 205.75,172.36 205.88,173.42 206.01,174.46 
			206.11,175.52 206.22,176.58 206.32,177.61 206.43,178.67 206.52,179.73 206.6,180.77 206.69,181.83 206.77,182.87 206.85,183.93 
			206.92,184.97 206.98,186.01 207.05,187.06 207.11,188.1 207.17,189.14 207.22,190.18 207.26,191.22 207.3,192.26 207.32,193.3 
			207.34,194.33 207.38,195.35 207.38,196.39 207.41,197.43 207.41,198.44 207.43,199.46 207.43,199.46 207.26,199.46 
			206.83,199.46 206.18,199.46 205.29,199.46 204.23,199.46 203.02,199.46 201.71,199.46 200.29,199.46 198.84,199.46 
			197.38,199.46 195.92,199.46 194.52,199.46 193.19,199.46 191.98,199.46 190.92,199.46 190.05,199.46 189.37,199.46 
			188.95,199.46 188.8,199.46 188.8,199.46 188.8,198.19 188.78,196.9 188.78,195.63 188.76,194.35 188.74,193.08 188.72,191.81 
			188.69,190.56 188.65,189.29 188.61,188.02 188.57,186.77 188.52,185.52 188.48,184.27 188.42,183.02 188.38,181.77 
			188.31,180.52 188.25,179.29 188.16,178.06 188.1,176.83 188.02,175.6 187.95,174.37 187.87,173.14 187.76,171.93 187.68,170.73 
			187.59,169.52 187.49,168.31 187.38,167.1 187.27,165.92 187.17,164.73 187.06,163.54 186.94,162.36 186.83,161.19 186.7,160.03 
			186.57,158.86 186.45,157.69 186.32,156.55 186.17,155.41 186.04,154.26 185.9,153.12 185.75,151.99 185.6,150.87 185.45,149.75 
			185.3,148.65 185.15,147.54 184.99,146.44 184.84,145.34 184.67,144.26 184.5,143.18 184.33,142.12 184.16,141.04 183.99,140 
			183.82,138.96 183.63,137.92 183.46,136.89 183.27,135.85 183.1,134.83 182.91,133.81 182.72,132.82 182.53,131.82 182.34,130.82 
			182.13,129.85 181.93,128.87 181.74,127.92 181.53,126.97 181.34,126.01 181.13,125.08 180.92,124.15 180.71,123.24 
			180.49,122.33 180.28,121.42 180.07,120.53 179.86,119.64 179.65,118.77 179.41,117.9 179.2,117.05 178.99,116.2 178.76,115.38 
			178.52,114.55 178.31,113.72 178.08,112.94 177.84,112.13 177.61,111.35 177.4,110.59 177.17,109.82 176.93,109.06 176.7,108.32 
			176.47,107.6 176.23,106.88 175.98,106.18 175.75,105.48 175.51,104.8 175.28,104.12 175.03,103.47 174.79,102.81 174.56,102.17 
			174.31,101.54 174.07,100.95 173.84,100.33 173.59,99.74 173.35,99.17 173.1,98.61 172.86,98.06 172.61,97.51 172.38,96.98 
			172.12,96.47 171.87,95.99 171.64,95.5 171.38,95.01 171.15,94.57 170.89,94.12 170.66,93.68 170.41,93.25 170.17,92.85 
			169.92,92.47 169.69,92.09 169.43,91.73 169.2,91.37 168.94,91.05 168.71,90.73 168.46,90.41 168.22,90.12 167.97,89.84 
			167.74,89.59 167.5,89.33 167.25,89.1 167.02,88.89 166.78,88.7 166.55,88.51 166.3,88.34 166.06,88.19 165.83,88.04 165.6,87.93 
			165.36,87.81 165.13,87.72 164.9,87.66 164.66,87.6 164.45,87.55 164.22,87.53 163.99,87.51 163.99,87.51 163.73,87.53 
			163.5,87.55 163.24,87.57 162.99,87.62 162.76,87.68 162.5,87.74 162.25,87.83 162.01,87.93 161.76,88.04 161.53,88.17 
			161.27,88.29 161.04,88.44 160.79,88.59 160.55,88.78 160.3,88.95 160.06,89.16 159.83,89.35 159.6,89.59 159.35,89.82 
			159.11,90.07 158.88,90.33 158.65,90.6 158.41,90.88 158.18,91.2 157.95,91.49 157.71,91.83 157.48,92.15 157.27,92.51 
			157.03,92.87 156.8,93.25 156.59,93.63 156.36,94.04 156.15,94.44 155.91,94.86 155.7,95.31 155.47,95.75 155.26,96.22 
			155.04,96.69 154.83,97.17 154.62,97.68 154.41,98.19 154.2,98.7 153.98,99.25 153.77,99.8 153.56,100.35 153.37,100.92 
			153.16,101.52 152.95,102.11 152.76,102.73 152.56,103.34 152.35,103.98 152.16,104.63 151.97,105.29 151.78,105.97 
			151.59,106.65 151.4,107.35 151.21,108.04 151.02,108.76 150.85,109.51 150.66,110.25 150.47,111.01 150.3,111.77 150.13,112.56 
			149.96,113.36 149.79,114.17 149.62,114.97 149.45,115.82 149.28,116.67 149.13,117.52 148.96,118.39 148.79,119.25 
			148.64,120.17 148.47,121.06 148.33,121.99 148.18,122.9 148.03,123.85 147.88,124.81 147.73,125.76 147.58,126.73 147.44,127.73 
			147.31,128.73 147.16,129.74 147.03,130.78 146.91,131.82 146.76,132.86 146.63,133.92 146.52,135 146.4,136.08 146.27,137.18 
			146.14,138.28 146.04,139.41 145.93,140.53 145.8,141.67 145.7,142.82 145.59,143.98 145.49,145.17 145.4,146.38 145.3,147.57 
			145.21,148.79 145.1,150.02 145.02,151.25 144.94,152.5 144.85,153.77 144.77,155.05 144.68,156.34 144.62,157.65 144.53,158.94 
			144.47,160.28 144.41,161.61 144.34,162.97 144.28,164.33 144.21,165.68 144.17,167.08 144.11,168.46 144.07,169.88 144.02,171.3 
			143.98,172.72 143.94,174.16 143.9,175.62 143.85,177.08 143.83,178.57 143.79,180.05 143.77,181.55 143.75,183.06 143.73,184.59 
			143.73,186.11 143.71,187.66 143.71,189.23 143.71,190.79 143.69,192.36 143.69,192.36 143.54,192.36 143.11,192.36 
			142.46,192.36 141.57,192.36 140.51,192.36 139.3,192.36 137.98,192.36 136.59,192.36 135.12,192.36 133.66,192.36 132.22,192.36 
			130.82,192.36 129.49,192.36 128.28,192.36 127.22,192.36 126.35,192.36 125.67,192.36 125.25,192.36 125.1,192.36 125.1,192.36 
			125.1,190.79 125.1,189.23 125.08,187.66 125.08,186.11 125.06,184.59 125.04,183.06 125.02,181.55 125,180.05 124.97,178.57 
			124.93,177.08 124.91,175.62 124.87,174.16 124.83,172.72 124.78,171.3 124.74,169.88 124.68,168.46 124.63,167.08 124.57,165.68 
			124.53,164.33 124.47,162.97 124.4,161.61 124.34,160.28 124.25,158.94 124.19,157.65 124.1,156.34 124.04,155.05 123.96,153.77 
			123.87,152.5 123.79,151.25 123.68,150.02 123.6,148.79 123.51,147.57 123.41,146.38 123.3,145.17 123.21,143.98 123.11,142.82 
			122.98,141.67 122.88,140.53 122.77,139.41 122.66,138.28 122.54,137.18 122.41,136.08 122.28,135 122.18,133.92 122.05,132.86 
			121.9,131.82 121.77,130.78 121.65,129.74 121.5,128.73 121.37,127.73 121.22,126.73 121.07,125.76 120.95,124.81 120.8,123.85 
			120.63,122.9 120.48,121.99 120.33,121.06 120.18,120.17 120.02,119.25 119.87,118.39 119.7,117.52 119.53,116.67 119.36,115.82 
			119.19,115 119.02,114.17 118.85,113.36 118.68,112.56 118.49,111.77 118.32,111.01 118.15,110.25 117.96,109.51 117.77,108.76 
			117.6,108.04 117.41,107.35 117.22,106.65 117.03,105.97 116.84,105.29 116.65,104.63 116.43,103.98 116.24,103.34 116.05,102.73 
			115.84,102.11 115.65,101.52 115.44,100.92 115.23,100.35 115.04,99.8 114.82,99.25 114.61,98.7 114.4,98.19 114.19,97.68 
			113.98,97.17 113.76,96.69 113.53,96.22 113.32,95.75 113.11,95.31 112.87,94.86 112.66,94.44 112.43,94.04 112.22,93.63 
			111.98,93.25 111.77,92.87 111.54,92.51 111.31,92.15 111.07,91.83 110.84,91.49 110.61,91.2 110.37,90.9 110.14,90.6 
			109.91,90.33 109.67,90.07 109.44,89.82 109.21,89.59 108.95,89.35 108.72,89.16 108.49,88.95 108.23,88.78 108,88.59 
			107.75,88.44 107.51,88.29 107.26,88.17 107.02,88.04 106.77,87.93 106.54,87.83 106.28,87.74 106.03,87.68 105.77,87.62 
			105.54,87.57 105.29,87.55 105.03,87.53 104.78,87.51 104.78,87.51 104.57,87.53 104.33,87.55 104.1,87.6 103.87,87.66 
			103.63,87.72 103.4,87.81 103.17,87.93 102.94,88.04 102.7,88.19 102.47,88.34 102.24,88.51 102,88.7 101.77,88.89 101.52,89.1 
			101.28,89.33 101.05,89.59 100.8,89.84 100.56,90.12 100.33,90.41 100.07,90.71 99.84,91.05 99.59,91.37 99.35,91.73 99.1,92.09 
			98.87,92.47 98.61,92.85 98.38,93.25 98.12,93.68 97.89,94.12 97.64,94.57 97.4,95.01 97.15,95.5 96.92,95.99 96.66,96.47 
			96.41,96.98 96.18,97.51 95.92,98.06 95.69,98.61 95.43,99.17 95.2,99.74 94.97,100.33 94.71,100.95 94.48,101.56 94.23,102.17 
			93.99,102.81 93.76,103.47 93.5,104.12 93.27,104.8 93.04,105.48 92.81,106.18 92.57,106.88 92.34,107.6 92.11,108.32 
			91.87,109.06 91.64,109.82 91.41,110.59 91.17,111.35 90.94,112.13 90.71,112.94 90.5,113.74 90.26,114.55 90.03,115.38 
			89.82,116.2 89.59,117.05 89.37,117.9 89.16,118.77 88.93,119.64 88.72,120.53 88.5,121.42 88.29,122.33 88.08,123.24 
			87.87,124.15 87.68,125.08 87.47,126.01 87.25,126.97 87.06,127.92 86.85,128.87 86.66,129.85 86.47,130.85 86.28,131.82 
			86.09,132.82 85.9,133.83 85.71,134.83 85.52,135.87 85.35,136.89 85.16,137.92 84.99,138.96 84.8,140 84.63,141.06 84.46,142.12 
			84.29,143.18 84.12,144.26 83.97,145.34 83.8,146.44 83.65,147.54 83.48,148.65 83.33,149.75 83.19,150.87 83.04,151.99 
			82.91,153.12 82.76,154.26 82.61,155.41 82.49,156.55 82.36,157.69 82.23,158.86 82.1,160.03 81.98,161.19 81.85,162.38 
			81.74,163.54 81.64,164.73 81.53,165.92 81.43,167.12 81.32,168.31 81.21,169.52 81.13,170.73 81.02,171.93 80.94,173.14 
			80.85,174.37 80.77,175.6 80.71,176.83 80.62,178.06 80.56,179.29 80.49,180.54 80.43,181.77 80.37,183.02 80.32,184.27 
			80.26,185.52 80.22,186.77 80.18,188.04 80.16,189.29 80.11,190.56 80.09,191.81 80.07,193.08 80.05,194.35 80.03,195.63 
			80.01,196.9 80.01,198.19 80.01,199.46 80.01,199.46 79.86,199.46 79.43,199.46 78.76,199.46 77.89,199.46 76.81,199.46 
			75.6,199.46 74.29,199.46 72.89,199.46 71.42,199.46 69.96,199.46 68.5,199.46 67.1,199.46 65.79,199.46 64.58,199.46 
			63.52,199.46 62.63,199.46 61.95,199.46 61.53,199.46 61.38,199.46 61.38,199.46 61.38,198.44 61.4,197.41 61.4,196.39 
			61.42,195.35 61.44,194.33 61.49,193.3 61.51,192.26 61.55,191.22 61.59,190.18 61.63,189.14 61.7,188.08 61.76,187.04 
			61.82,186.01 61.89,184.95 61.95,183.91 62.04,182.87 62.12,181.81 62.21,180.75 62.29,179.71 62.38,178.65 62.48,177.61 
			62.59,176.55 62.69,175.5 62.82,174.46 62.93,173.4 63.05,172.34 63.18,171.3 63.31,170.24 63.44,169.18 63.58,168.14 
			63.71,167.08 63.86,166.04 64.01,164.98 64.18,163.95 64.33,162.89 64.5,161.85 64.67,160.81 64.83,159.75 65,158.71 
			65.17,157.67 65.36,156.63 65.56,155.6 65.75,154.58 65.94,153.54 66.13,152.5 66.32,151.49 66.53,150.45 66.74,149.43 
			66.95,148.41 67.17,147.4 67.38,146.38 67.61,145.36 67.82,144.34 68.06,143.35 68.29,142.33 68.52,141.34 68.75,140.34 
			68.99,139.36 69.24,138.39 69.47,137.39 69.73,136.42 69.98,135.44 70.24,134.47 70.49,133.49 70.77,132.52 71.02,131.57 
			71.3,130.61 71.55,129.66 71.83,128.71 72.1,127.77 72.38,126.82 72.67,125.89 72.95,124.95 73.23,124.04 73.52,123.13 
			73.82,122.2 74.12,121.31 74.41,120.4 74.71,119.51 75.01,118.62 75.3,117.73 75.6,116.86 75.92,115.99 76.23,115.12 
			76.53,114.25 76.85,113.41 77.17,112.56 77.48,111.71 77.8,110.88 78.12,110.06 78.46,109.25 78.78,108.43 79.09,107.62 
			79.43,106.84 79.77,106.03 80.09,105.27 80.43,104.48 80.77,103.72 81.11,102.96 81.45,102.22 81.79,101.45 82.13,100.73 
			82.47,100.01 82.83,99.29 83.16,98.57 83.52,97.87 83.86,97.17 84.22,96.5 84.56,95.82 84.92,95.16 85.28,94.5 85.64,93.85 
			86,93.21 86.36,92.6 86.72,91.96 87.08,91.37 87.44,90.75 87.8,90.16 88.17,89.59 88.53,89.02 88.89,88.46 89.27,87.91 
			89.63,87.36 89.99,86.83 90.37,86.32 90.73,85.82 91.11,85.33 91.47,84.84 91.85,84.35 92.21,83.89 92.59,83.44 92.95,83 
			93.34,82.57 93.72,82.15 94.08,81.75 94.46,81.37 94.84,80.96 95.2,80.6 95.58,80.24 95.96,79.9 96.32,79.56 96.7,79.25 
			97.09,78.93 97.47,78.63 97.83,78.36 98.21,78.08 98.59,77.83 98.97,77.57 99.33,77.34 99.71,77.13 100.1,76.91 100.46,76.72 
			100.84,76.55 101.22,76.39 101.58,76.24 101.96,76.09 102.34,75.98 102.7,75.86 103.08,75.77 103.44,75.69 103.83,75.62 
			104.19,75.58 104.57,75.54 104.93,75.52 105.29,75.52 105.29,75.52 105.9,75.52 106.52,75.56 107.11,75.64 107.7,75.75 
			108.3,75.88 108.87,76.05 109.44,76.24 110.01,76.47 110.56,76.7 111.11,76.98 111.67,77.28 112.2,77.59 112.72,77.95 
			113.25,78.31 113.78,78.72 114.29,79.14 114.78,79.58 115.29,80.05 115.78,80.52 116.26,81.03 116.75,81.56 117.22,82.11 
			117.68,82.68 118.13,83.25 118.6,83.87 119.04,84.48 119.46,85.12 119.91,85.77 120.33,86.45 120.76,87.13 121.16,87.83 
			121.56,88.55 121.96,89.27 122.37,90.03 122.75,90.77 123.13,91.56 123.51,92.32 123.87,93.13 124.23,93.93 124.59,94.74 
			124.95,95.56 125.29,96.39 125.63,97.24 125.97,98.08 126.29,98.93 126.61,99.8 126.92,100.67 127.22,101.56 127.54,102.43 
			127.81,103.32 128.11,104.21 128.39,105.1 128.68,106.01 128.94,106.9 129.21,107.81 129.47,108.7 129.72,109.61 129.97,110.52 
			130.21,111.43 130.44,112.32 130.67,113.24 130.91,114.15 131.12,115.04 131.33,115.95 131.54,116.84 131.73,117.73 
			131.95,118.62 132.14,119.51 132.31,120.38 132.5,121.25 132.67,122.12 132.84,122.96 132.98,123.83 133.15,124.66 133.3,125.51 
			133.45,126.33 133.58,127.14 133.73,127.94 133.85,128.75 133.98,129.53 134.08,130.29 134.21,131.06 134.32,131.8 134.4,132.54 
			134.4,132.54 		"/>
		<polygon fill="#C3302D" points="122.24,176.89 122.24,155.22 208,155.22 208,176.89 122.24,176.89 		"/>
		<polygon fill="#FFFFFF" points="199.33,156.97 204.74,156.97 204.74,174.73 199.33,174.73 199.33,156.97 		"/>
		<polygon fill="#FFFFFF" points="224.59,156.97 228.26,156.97 227.01,161.81 224.34,161.81 224.59,156.97 		"/>
		<polygon fill="#FFFFFF" points="234.59,159.6 235.65,159.62 236.69,159.73 237.69,159.9 238.6,160.13 239.42,160.49 
			240.15,160.94 240.74,161.51 241.18,162.21 241.46,163.06 241.57,164.03 241.57,164.03 240.76,164.03 239,164.03 237.24,164.03 
			236.44,164.03 236.44,164.03 236.22,163.03 235.57,162.44 234.53,162.27 234.53,162.27 233.79,162.38 233.15,162.8 232.88,163.67 
			232.88,163.67 233.05,164.33 233.51,164.79 234.21,165.09 235.1,165.28 236.12,165.45 237.2,165.62 238.28,165.87 238.28,165.87 
			239.32,166.28 240.23,166.76 240.99,167.4 241.57,168.14 241.93,169.01 242.05,170.01 242.05,170.01 241.99,170.87 241.8,171.66 
			241.48,172.38 241.04,172.99 240.46,173.57 239.79,174.03 238.98,174.41 238.07,174.73 237.01,174.97 235.86,175.09 
			234.59,175.13 234.59,175.13 233.28,175.09 232.11,174.97 231.1,174.75 230.23,174.44 229.49,174.05 228.87,173.59 228.38,173.02 
			228,172.38 227.75,171.68 227.6,170.87 227.54,170.01 227.54,170.01 228.36,170.01 230.14,170.01 231.92,170.01 232.73,170.01 
			232.73,170.01 232.98,171.09 233.64,171.76 234.61,172 234.61,172 235.67,171.85 236.31,171.36 236.52,170.58 236.52,170.58 
			236.31,169.86 235.76,169.35 234.93,168.97 233.96,168.71 232.88,168.48 231.8,168.27 230.82,168.01 230.82,168.01 230,167.65 
			229.23,167.12 228.64,166.38 228.24,165.43 228.09,164.22 228.09,164.22 228.13,163.63 228.28,163.01 228.53,162.38 
			228.91,161.78 229.42,161.19 230.1,160.68 230.95,160.24 231.97,159.9 233.17,159.67 234.59,159.6 234.59,159.6 		"/>
		<polygon fill="#FFFFFF" points="124.08,169.35 123.79,170.28 123.41,171.13 122.92,171.93 122.37,172.65 121.73,173.29 
			121.01,173.84 120.25,174.31 119.4,174.67 118.51,174.94 117.58,175.11 116.6,175.16 116.6,175.16 115.67,175.11 114.78,174.97 
			113.93,174.71 113.15,174.39 112.39,173.97 111.71,173.46 111.07,172.89 110.5,172.23 110.01,171.51 109.61,170.73 109.29,169.88 
			109.04,168.97 108.89,168.01 108.85,167 108.85,167 108.89,165.98 109.02,165.03 109.25,164.12 109.55,163.27 109.93,162.48 
			110.39,161.76 110.95,161.11 111.54,160.53 112.24,160.03 112.98,159.6 113.78,159.28 114.67,159.03 115.61,158.88 116.6,158.84 
			116.6,158.84 117.66,158.88 118.64,159.05 119.55,159.33 120.4,159.69 121.18,160.15 121.88,160.7 122.49,161.34 123.02,162.06 
			123.47,162.86 123.83,163.73 124.1,164.67 124.1,164.67 123.32,164.67 121.58,164.67 119.85,164.67 119.06,164.67 119.06,164.67 
			118.55,163.69 117.75,163.03 116.6,162.78 116.6,162.78 115.63,162.95 114.89,163.46 114.36,164.18 114.02,165.07 113.85,166.04 
			113.78,167 113.78,167 113.85,167.95 114.02,168.93 114.36,169.82 114.89,170.54 115.63,171.04 116.6,171.21 116.6,171.21 
			117.75,170.96 118.53,170.3 119.06,169.35 119.06,169.35 119.85,169.35 121.56,169.35 123.3,169.35 124.08,169.35 124.08,169.35 
					"/>
		<polygon fill="#FFFFFF" points="86.85,156.97 93.29,156.97 96.11,167.46 98.91,156.97 105.37,156.97 108.19,175.16 102.87,175.16 
			101.45,164.54 98.55,175.16 93.65,175.16 90.75,164.54 89.35,175.16 84.01,175.16 86.85,156.97 		"/>
		<polygon fill="#FFFFFF" points="169.54,166.02 169.54,166.57 169.54,167.65 169.54,169.05 169.54,170.6 169.54,172.13 
			169.54,173.46 169.54,174.37 169.54,174.73 169.54,174.73 164.2,174.73 164.2,159.22 169.54,159.22 169.54,159.22 169.54,159.52 
			169.54,160.11 169.54,160.43 169.54,160.43 170.34,159.86 171.19,159.41 172.19,159.09 173.39,158.9 174.88,158.84 174.88,158.84 
			175.98,158.92 177,159.18 177.91,159.58 178.71,160.11 179.37,160.72 179.88,161.42 180.2,162.17 180.3,162.95 180.3,162.95 
			180.3,163.18 180.3,163.82 180.3,164.79 180.3,166 180.3,167.38 180.3,168.84 180.3,170.3 180.3,171.68 180.3,172.89 
			180.3,173.86 180.3,174.5 180.3,174.73 180.3,174.73 174.94,174.73 174.94,174.73 174.94,174.35 174.94,173.4 174.94,172.02 
			174.94,170.45 174.94,168.88 174.94,167.53 174.94,166.55 174.94,166.19 174.94,166.19 174.71,165.2 174.12,164.37 173.29,163.82 
			172.27,163.61 172.27,163.61 170.79,164.05 169.9,165.03 169.54,166.02 169.54,166.02 		"/>
		<path fill="#FFFFFF" d="M217.13,160.75v-0.97v-1.82v-0.97l0,0h5.4v17.76h-5.4l0,0v-0.23v-0.42v-0.21l0,0l-0.83,0.61l-1.23,0.49
			l-1.91,0.19l0,0l-0.64-0.02l-0.66-0.11l-0.7-0.15l-0.7-0.23l-0.68-0.32l-0.68-0.42l-0.63-0.53l-0.57-0.66l-0.51-0.76l-0.42-0.91
			l-0.32-1.04l-0.19-1.19l-0.08-1.36l0,0l0.06-1.27l0.17-1.14l0.3-1l0.36-0.89l0.47-0.76l0.51-0.66l0.59-0.55l0.61-0.47l0.66-0.38
			l0.68-0.28l0.7-0.21l0.68-0.15l0.68-0.08l0.66-0.02l0,0l1.8,0.21l1.17,0.45L217.13,160.75L217.13,160.75L217.13,160.75z
			 M211.54,167.46l0.13,1.34l0.38,1.1l0.61,0.83l0.83,0.53l1.04,0.17l0,0l1.04-0.15l0.89-0.51l0.68-0.83l0,0v-0.74v-1.59V166v-0.72
			l0,0l-0.51-0.93l-0.89-0.61l-1.21-0.23l0,0l-1.04,0.17l-0.83,0.51l-0.61,0.83l-0.38,1.1L211.54,167.46L211.54,167.46
			L211.54,167.46z"/>
		<path fill="#FFFFFF" d="M146.31,167l0.04-0.95l0.11-0.89l0.21-0.85l0.28-0.8l0.36-0.76l0.42-0.7l0.49-0.64l0.57-0.57l0.64-0.51
			l0.66-0.45l0.76-0.36l0.8-0.3l0.87-0.21l0.93-0.13l0.97-0.04l0,0l0.97,0.04l0.91,0.13l0.89,0.21l0.81,0.3l0.74,0.36l0.7,0.45
			l0.64,0.51l0.55,0.57l0.51,0.64l0.42,0.7l0.34,0.74l0.3,0.83l0.19,0.85l0.13,0.89l0.04,0.95l0,0l-0.04,0.95l-0.13,0.89l-0.19,0.87
			l-0.28,0.81l-0.36,0.74l-0.42,0.7l-0.51,0.64l-0.55,0.57l-0.64,0.51l-0.7,0.45l-0.74,0.36l-0.81,0.3l-0.89,0.21l-0.91,0.13
			l-0.97,0.04l0,0l-0.97-0.04l-0.93-0.13l-0.87-0.21l-0.8-0.3l-0.76-0.36l-0.66-0.45l-0.64-0.51l-0.57-0.57l-0.49-0.64l-0.42-0.7
			l-0.36-0.74l-0.28-0.81l-0.21-0.87l-0.11-0.89L146.31,167L146.31,167L146.31,167z M157.52,167l-0.06-0.95l-0.19-0.98l-0.38-0.89
			l-0.57-0.72l-0.8-0.51l-1.08-0.17l0,0l-1.08,0.17l-0.81,0.51l-0.57,0.72l-0.38,0.89l-0.19,0.98l-0.06,0.95l0,0l0.06,0.95
			l0.19,0.97l0.38,0.89l0.57,0.72l0.81,0.51l1.08,0.17l0,0l1.08-0.17l0.8-0.51l0.57-0.72l0.38-0.89l0.19-0.97L157.52,167L157.52,167
			L157.52,167z"/>
		<path fill="#FFFFFF" d="M125.97,156.97h0.32h0.85h1.23h1.46h1.55h1.46h1.23h0.85h0.32l0,0l1.02,0.02l0.95,0.13l0.91,0.17
			l0.89,0.25l0.83,0.32l0.76,0.38l0.72,0.44l0.66,0.49l0.61,0.57l0.55,0.61l0.47,0.66l0.42,0.72l0.34,0.78l0.28,0.83l0.19,0.85
			l0.13,0.91l0.04,0.95l0,0l-0.04,0.95l-0.13,0.91l-0.19,0.85l-0.28,0.83l-0.34,0.76l-0.42,0.74l-0.47,0.66l-0.55,0.61l-0.61,0.57
			l-0.66,0.49l-0.72,0.45l-0.76,0.38l-0.83,0.32l-0.89,0.25l-0.91,0.17l-0.95,0.11l-1.02,0.04l0,0h-0.32h-0.85h-1.23h-1.46h-1.55
			h-1.46h-1.23h-0.85h-0.32l0,0V156.97L125.97,156.97z M132.09,170.85h0.72h1.36h0.72l0,0l0.81-0.06l0.81-0.23l0.74-0.42l0.68-0.64
			l0.53-0.87l0.34-1.14l0.13-1.42l0,0l-0.13-1.42l-0.34-1.14l-0.53-0.87l-0.68-0.64l-0.74-0.42l-0.81-0.23l-0.81-0.06l0,0h-0.72
			h-1.36h-0.72l0,0V170.85L132.09,170.85z"/>
		<path fill="#FFFFFF" d="M189.92,158.84l1.12,0.04l1.08,0.13l1.02,0.21l0.91,0.3l0.83,0.4l0.72,0.49l0.61,0.59l0.47,0.68l0.32,0.78
			l0.17,0.87l0,0v0.28v0.72v1.08v1.36v1.48v1.55v1.5v1.33v1.1v0.72v0.28l0,0h-5.4l0,0v-0.4v-0.74v-0.4l0,0l-0.81,0.64l-0.85,0.55
			l-0.93,0.42l-1.1,0.25l-1.29,0.11l0,0l-1.02-0.11l-0.93-0.28l-0.83-0.45l-0.74-0.57l-0.61-0.72l-0.45-0.78l-0.3-0.89l-0.11-0.93
			l0,0l0.04-0.64l0.11-0.64l0.21-0.64l0.3-0.61l0.4-0.59l0.53-0.53l0.63-0.49l0.81-0.42l0.95-0.34l1.12-0.25l1.27-0.17l1.48-0.06
			l0,0l1.27-0.19l0.63-0.51l0.19-0.7l0,0l-0.32-0.78l-0.74-0.49l-0.91-0.17l0,0l-0.91,0.13l-0.72,0.44l-0.3,0.78l0,0h-0.78h-1.74
			h-1.74h-0.81l0,0l0.04-0.64l0.13-0.61l0.23-0.61l0.34-0.57l0.45-0.53l0.59-0.49l0.74-0.42l0.89-0.36l1.06-0.25l1.23-0.17
			L189.92,158.84L189.92,158.84L189.92,158.84z M189.63,167.57l-1.17,0.23l-0.89,0.64l-0.34,1.08l0,0l0.17,0.76l0.57,0.55l1.02,0.21
			l0,0l1.21-0.23l1-0.74l0.57-1.25l0,0v-0.36v-0.68v-0.36l0,0l-0.57,0.13l-0.76,0.04L189.63,167.57L189.63,167.57L189.63,167.57z"/>
		<path fill="#F6AF26" d="M215.67,187.36h0.87h1.59H219l0,0l1.42,0.28l0.95,0.72l0.36,1.04l0,0l-0.25,0.95l-0.68,0.64l-0.93,0.3l0,0
			l0,0v0.02l0,0l0,0l1.17,0.72l0.53,1.04l0.13,1.36l0,0h-0.38h-0.72h-0.38l0,0l-0.19-1.46l-0.61-0.83l-1.21-0.28l0,0h-0.32h-0.57
			h-0.32l0,0v2.56h-1.31V187.36L215.67,187.36z M216.98,190.73h0.4h0.74h0.4l0,0l0.97-0.15l0.57-0.4l0.17-0.68l0,0l-0.15-0.53
			l-0.47-0.36l-0.89-0.13l0,0h-0.47h-0.85h-0.45l0,0V190.73L216.98,190.73z M218.38,184.9l1,0.08l0.93,0.23l0.87,0.36l0.78,0.49
			l0.72,0.61l0.59,0.7l0.51,0.78l0.36,0.89l0.23,0.93l0.08,0.97l0,0l-0.08,1l-0.23,0.93l-0.36,0.87l-0.51,0.8l-0.59,0.7l-0.72,0.62
			l-0.78,0.49l-0.87,0.36l-0.93,0.23l-1,0.09l0,0l-0.97-0.09l-0.93-0.23l-0.87-0.36l-0.81-0.49l-0.7-0.62l-0.61-0.7l-0.49-0.8
			l-0.36-0.87l-0.23-0.93l-0.08-1l0,0l0.08-0.97l0.23-0.93l0.36-0.89l0.49-0.78l0.61-0.7l0.7-0.61l0.81-0.49l0.87-0.36l0.93-0.23
			L218.38,184.9L218.38,184.9L218.38,184.9z M218.38,196.39l0.97-0.08l0.91-0.25l0.85-0.4l0.76-0.53l0.66-0.66l0.53-0.74l0.4-0.85
			l0.25-0.93l0.08-0.98l0,0l-0.08-0.97l-0.25-0.91l-0.4-0.85l-0.53-0.74l-0.66-0.66l-0.76-0.53l-0.85-0.4l-0.91-0.25l-0.97-0.08l0,0
			l-0.97,0.08l-0.91,0.25l-0.83,0.4l-0.76,0.53l-0.66,0.66l-0.53,0.74l-0.4,0.85l-0.25,0.91l-0.08,0.97l0,0l0.08,0.98l0.25,0.93
			l0.4,0.85l0.53,0.74l0.66,0.66l0.76,0.53l0.83,0.4l0.91,0.25L218.38,196.39L218.38,196.39L218.38,196.39z"/>
	</g>
</g>
</svg>
