<svg width="181" height="55" viewBox="0 0 181 55" fill="none" xmlns="http://www.w3.org/2000/svg">
<rect width="181" height="55" rx="10" fill="#FFCE21"/>
<path d="M66.5918 26.752L68.8184 22.4688H70.0957L67.1543 27.8184V31H66.0293V27.8184L63.0879 22.4688H64.377L66.5918 26.752ZM76.0195 27.0566H72.3223V30.0801H76.6172V31H71.1973V22.4688H76.5586V23.3945H72.3223V26.1367H76.0195V27.0566ZM79.1484 30.0801H83.1914V31H78.0176V22.4688H79.1484V30.0801ZM85.6055 30.0801H89.6484V31H84.4746V22.4688H85.6055V30.0801ZM97.1074 27.0098C97.1074 27.8457 96.9668 28.5762 96.6855 29.2012C96.4043 29.8223 96.0059 30.2969 95.4902 30.625C94.9746 30.9531 94.373 31.1172 93.6855 31.1172C93.0137 31.1172 92.418 30.9531 91.8984 30.625C91.3789 30.293 90.9746 29.8223 90.6855 29.2129C90.4004 28.5996 90.2539 27.8906 90.2461 27.0859V26.4707C90.2461 25.6504 90.3887 24.9258 90.6738 24.2969C90.959 23.668 91.3613 23.1875 91.8809 22.8555C92.4043 22.5195 93.002 22.3516 93.6738 22.3516C94.3574 22.3516 94.959 22.5176 95.4785 22.8496C96.002 23.1777 96.4043 23.6562 96.6855 24.2852C96.9668 24.9102 97.1074 25.6387 97.1074 26.4707V27.0098ZM95.9883 26.459C95.9883 25.4473 95.7852 24.6719 95.3789 24.1328C94.9727 23.5898 94.4043 23.3184 93.6738 23.3184C92.9629 23.3184 92.4023 23.5898 91.9922 24.1328C91.5859 24.6719 91.377 25.4219 91.3652 26.3828V27.0098C91.3652 27.9902 91.5703 28.7617 91.9805 29.3242C92.3945 29.8828 92.9629 30.1621 93.6855 30.1621C94.4121 30.1621 94.9746 29.8984 95.373 29.3711C95.7715 28.8398 95.9766 28.0801 95.9883 27.0918V26.459ZM100.635 28.3105L100.799 29.4355L101.039 28.4219L102.727 22.4688H103.676L105.322 28.4219L105.557 29.4531L105.738 28.3047L107.062 22.4688H108.193L106.125 31H105.1L103.342 24.7832L103.207 24.1328L103.072 24.7832L101.25 31H100.225L98.1621 22.4688H99.2871L100.635 28.3105ZM110.572 27.6602V31H109.447V22.4688H112.594C113.527 22.4688 114.258 22.707 114.785 23.1836C115.316 23.6602 115.582 24.291 115.582 25.0762C115.582 25.9043 115.322 26.543 114.803 26.9922C114.287 27.4375 113.547 27.6602 112.582 27.6602H110.572ZM110.572 26.7402H112.594C113.195 26.7402 113.656 26.5996 113.977 26.3184C114.297 26.0332 114.457 25.623 114.457 25.0879C114.457 24.5801 114.297 24.1738 113.977 23.8691C113.656 23.5645 113.217 23.4062 112.658 23.3945H110.572V26.7402ZM120.92 28.7734H117.346L116.543 31H115.383L118.641 22.4688H119.625L122.889 31H121.734L120.92 28.7734ZM117.686 27.8477H120.586L119.133 23.8574L117.686 27.8477ZM130.266 29.8809C129.977 30.2949 129.572 30.6055 129.053 30.8125C128.537 31.0156 127.936 31.1172 127.248 31.1172C126.553 31.1172 125.936 30.9551 125.396 30.6309C124.857 30.3027 124.439 29.8379 124.143 29.2363C123.85 28.6348 123.699 27.9375 123.691 27.1445V26.4004C123.691 25.1152 123.99 24.1191 124.588 23.4121C125.189 22.7051 126.033 22.3516 127.119 22.3516C128.01 22.3516 128.727 22.5801 129.27 23.0371C129.812 23.4902 130.145 24.1348 130.266 24.9707H129.141C128.93 23.8418 128.258 23.2773 127.125 23.2773C126.371 23.2773 125.799 23.543 125.408 24.0742C125.021 24.6016 124.826 25.3672 124.822 26.3711V27.0684C124.822 28.0254 125.041 28.7871 125.479 29.3535C125.916 29.916 126.508 30.1973 127.254 30.1973C127.676 30.1973 128.045 30.1504 128.361 30.0566C128.678 29.9629 128.939 29.8047 129.146 29.582V27.666H127.172V26.752H130.266V29.8809ZM136.969 27.0566H133.271V30.0801H137.566V31H132.146V22.4688H137.508V23.3945H133.271V26.1367H136.969V27.0566ZM138.82 30.4316C138.82 30.2441 138.875 30.0879 138.984 29.9629C139.098 29.8379 139.266 29.7754 139.488 29.7754C139.711 29.7754 139.879 29.8379 139.992 29.9629C140.109 30.0879 140.168 30.2441 140.168 30.4316C140.168 30.6113 140.109 30.7617 139.992 30.8828C139.879 31.0039 139.711 31.0645 139.488 31.0645C139.266 31.0645 139.098 31.0039 138.984 30.8828C138.875 30.7617 138.82 30.6113 138.82 30.4316ZM148.406 28.293C148.301 29.1953 147.967 29.8926 147.404 30.3848C146.846 30.873 146.102 31.1172 145.172 31.1172C144.164 31.1172 143.355 30.7559 142.746 30.0332C142.141 29.3105 141.838 28.3438 141.838 27.1328V26.3125C141.838 25.5195 141.979 24.8223 142.26 24.2207C142.545 23.6191 142.947 23.1582 143.467 22.8379C143.986 22.5137 144.588 22.3516 145.271 22.3516C146.178 22.3516 146.904 22.6055 147.451 23.1133C147.998 23.6172 148.316 24.3164 148.406 25.2109H147.275C147.178 24.5312 146.965 24.0391 146.637 23.7344C146.312 23.4297 145.857 23.2773 145.271 23.2773C144.553 23.2773 143.988 23.543 143.578 24.0742C143.172 24.6055 142.969 25.3613 142.969 26.3418V27.168C142.969 28.0938 143.162 28.8301 143.549 29.377C143.936 29.9238 144.477 30.1973 145.172 30.1973C145.797 30.1973 146.275 30.0566 146.607 29.7754C146.943 29.4902 147.166 28.9961 147.275 28.293H148.406ZM156.51 27.0098C156.51 27.8457 156.369 28.5762 156.088 29.2012C155.807 29.8223 155.408 30.2969 154.893 30.625C154.377 30.9531 153.775 31.1172 153.088 31.1172C152.416 31.1172 151.82 30.9531 151.301 30.625C150.781 30.293 150.377 29.8223 150.088 29.2129C149.803 28.5996 149.656 27.8906 149.648 27.0859V26.4707C149.648 25.6504 149.791 24.9258 150.076 24.2969C150.361 23.668 150.764 23.1875 151.283 22.8555C151.807 22.5195 152.404 22.3516 153.076 22.3516C153.76 22.3516 154.361 22.5176 154.881 22.8496C155.404 23.1777 155.807 23.6562 156.088 24.2852C156.369 24.9102 156.51 25.6387 156.51 26.4707V27.0098ZM155.391 26.459C155.391 25.4473 155.188 24.6719 154.781 24.1328C154.375 23.5898 153.807 23.3184 153.076 23.3184C152.365 23.3184 151.805 23.5898 151.395 24.1328C150.988 24.6719 150.779 25.4219 150.768 26.3828V27.0098C150.768 27.9902 150.973 28.7617 151.383 29.3242C151.797 29.8828 152.365 30.1621 153.088 30.1621C153.814 30.1621 154.377 29.8984 154.775 29.3711C155.174 28.8398 155.379 28.0801 155.391 27.0918V26.459ZM159.65 22.4688L162.439 29.4297L165.229 22.4688H166.688V31H165.562V27.6777L165.668 24.0918L162.867 31H162.006L159.211 24.1094L159.322 27.6777V31H158.197V22.4688H159.65Z" fill="black"/>
<path fill-rule="evenodd" clip-rule="evenodd" d="M33.4375 22.5C33.4375 20.5325 35.0325 18.9375 37 18.9375C38.9675 18.9375 40.5625 20.5325 40.5625 22.5C40.5625 24.4675 38.9675 26.0625 37 26.0625C35.0325 26.0625 33.4375 24.4675 33.4375 22.5ZM37 20.0625C35.6538 20.0625 34.5625 21.1538 34.5625 22.5C34.5625 23.8462 35.6538 24.9375 37 24.9375C38.3462 24.9375 39.4375 23.8462 39.4375 22.5C39.4375 21.1538 38.3462 20.0625 37 20.0625Z" fill="black"/>
<path fill-rule="evenodd" clip-rule="evenodd" d="M30.6433 21.6426C30.909 18.4187 33.6032 15.9375 36.838 15.9375H37.162C40.3969 15.9375 43.091 18.4187 43.3567 21.6426C43.4995 23.3745 42.9645 25.0942 41.8645 26.4394L38.2698 30.8358C37.6135 31.6383 36.3865 31.6384 35.7303 30.8358L32.1355 26.4394C31.0355 25.0942 30.5005 23.3745 30.6433 21.6426ZM36.838 17.0625C34.1886 17.0625 31.9821 19.0946 31.7645 21.7351C31.6457 23.1764 32.0909 24.6077 33.0064 25.7273L36.6012 30.1236C36.8073 30.3757 37.1927 30.3757 37.3988 30.1236L40.9936 25.7273C41.9091 24.6077 42.3544 23.1764 42.2355 21.7351C42.0179 19.0946 39.8114 17.0625 37.162 17.0625H36.838Z" fill="black"/>
<path fill-rule="evenodd" clip-rule="evenodd" d="M24.6034 32.9657C19.739 26.8922 20.1219 18.0018 25.752 12.3717C31.7929 6.33076 41.5872 6.33076 47.6281 12.3717C53.669 18.4126 53.669 28.2069 47.6281 34.2478C41.998 39.8779 33.1076 40.2608 27.0341 35.3964L15.2191 47.2114C14.5479 47.8826 13.4596 47.8826 12.7884 47.2114C12.1172 46.5402 12.1172 45.4519 12.7884 44.7807L24.6034 32.9657ZM28.1827 14.8024C32.8812 10.1039 40.4989 10.1039 45.1974 14.8024C49.8959 19.5009 49.8959 27.1186 45.1974 31.8171C40.5024 36.5122 32.8924 36.5156 28.193 31.8275C28.1896 31.824 28.1862 31.8205 28.1827 31.8171C28.1793 31.8136 28.1758 31.8102 28.1724 31.8068C23.4842 27.1075 23.4876 19.4974 28.1827 14.8024Z" fill="black"/>
</svg>
