<?xml version="1.0" encoding="utf-8"?>
<!-- Generator: Adobe Illustrator 24.0.2, SVG Export Plug-In . SVG Version: 6.00 Build 0)  -->
<svg version="1.0" id="Layer_1" xmlns="http://www.w3.org/2000/svg" xmlns:xlink="http://www.w3.org/1999/xlink" x="0px" y="0px"
	 viewBox="0 0 300 280" enable-background="new 0 0 300 280" xml:space="preserve">
<g>
	<path fill="#1F1C14" d="M226.4,62.36c0.2,0.04,0.4,0.15,0.52,0.33c0.12,0.17,0.16,0.4,0.1,0.61l-37.97,144.64
		c-0.1,0.35-0.45,0.59-0.82,0.55L74.05,193.45c-0.37-0.05-0.65-0.36-0.65-0.74L72.95,43.15c0-0.21,0.09-0.42,0.25-0.57
		c0.16-0.14,0.37-0.2,0.59-0.18L226.4,62.36"/>
	<path fill="#B12735" d="M76.19,45.05c-0.21-0.02-0.41,0.04-0.57,0.19c-0.16,0.13-0.25,0.33-0.25,0.54l0.24,145.06
		c0.01,0.37,0.28,0.68,0.64,0.71l110.15,14.22c0.36,0.06,0.7-0.17,0.79-0.53l37.06-140.25c0.05-0.2,0.01-0.42-0.1-0.59
		c-0.12-0.17-0.31-0.28-0.51-0.31L76.19,45.05"/>
	<path fill="none" d="M224.14,64.4c-0.12-0.17-0.31-0.28-0.51-0.31l-53.05-6.85c-1.02-1.17-1.9-2.02-2.41-2.52
		c-0.74-0.64-2.02-1.81-3.59-2.92c-2.25-1.61-4.04-2.84-7.73-4.6c-0.93-0.43-5.03-2.3-8.8-3.16c-1.34-0.3-3.96-0.93-6.41-1.15
		c-1.11-0.09-3.29-0.16-5.9-0.05c-1.59,0.06-4.52,0.54-5.98,0.87c-1.01,0.23-2.36,0.51-4.06,0.97c-1.65,0.44-3.29,0.95-4.97,1.53
		c-0.55,0.19-2.92,1.17-3.44,1.38c-0.51,0.23-1.44,0.58-2.14,0.86c-1.07,0.42-2.61,0.83-3.88,1.14l-35.11-4.53
		c-0.21-0.02-0.41,0.04-0.57,0.19c-0.16,0.13-0.25,0.33-0.25,0.54l0.24,145.06c0.01,0.37,0.28,0.68,0.64,0.71l110.15,14.22
		c0.36,0.06,0.7-0.17,0.79-0.53l37.06-140.25C224.29,64.78,224.26,64.57,224.14,64.4"/>
	<path fill="#1F1C14" d="M170.92,141.73c-0.56-0.88-0.96-1.32-1.45-1.9c-0.29-0.37-0.96-1.09-1.14-1.27
		c-0.16-0.19-0.25-0.65,0.04-1.5c0.29-0.85,1.27-4.19,1.76-8.17c0.14-1.07,0.69-1.7,1.23-1.88c0.29-0.1,2.15-0.64,2.25-2.38
		c0.11-1.75-0.1-4.25,1.75-7.47c1.8-3.14,4.28-8.82,5.01-12.68c0.77-4.11,0.08-6.93-1.36-8.6c-0.55-0.64-1.19-1.59-0.35-3.31
		c0.92-1.85,2.82-6.99,2.12-10.65c-0.16-0.81-0.47-0.86-0.62-0.97c-0.17-0.12-0.92-0.88-1.06-2.34c-0.17-1.95-0.65-8.84-4.94-16.34
		c-2.26-3.99-4.92-6.52-5.97-7.55c-0.74-0.64-2.02-1.81-3.59-2.92c-2.25-1.61-4.04-2.84-7.73-4.6c-0.93-0.43-5.03-2.3-8.8-3.16
		c-1.34-0.3-3.96-0.93-6.41-1.15c-1.11-0.09-3.29-0.16-5.9-0.05c-1.59,0.06-4.52,0.54-5.98,0.87c-1.01,0.23-2.36,0.51-4.06,0.97
		c-1.65,0.44-3.29,0.95-4.97,1.53c-0.55,0.19-2.92,1.17-3.44,1.38c-0.51,0.23-1.44,0.58-2.14,0.86c-1.54,0.61-4.1,1.21-5.33,1.48
		c-1.75,0.4-3.07,0.74-3.44,0.79c-0.37,0.03-1.6,0.39-1.75,1.13c-0.15,0.75-0.03,1.43,0.14,1.97c0.08,0.26,0.61,1.87-0.59,3.77
		c-0.88,1.4-4.37,5.42-7.76,7.54c-0.97,0.61-1.98,0.95-2.61,1.37c-0.62,0.42-1.49,1.8-0.87,3.72c0.61,1.93,1.98,3.71,2.55,5.45
		c0.55,1.73,0.61,4.68-0.42,7.97c-1,3.18-1.27,3.87-1.64,4.44c-0.36,0.56-1.1,1.65-0.48,3.12c0.62,1.49,2.12,3.15,3.07,4.1
		c0.51,0.51,0.75,0.94,0.23,1.68c-0.86,1.19-1.09,4.24-0.68,6.03c0.65,2.72,1.48,5.34,2.33,7.06c0.86,1.73,2.43,4.68,3.42,5.82
		c1,1.12,0.93,2.84,0.76,3.89c-0.16,1.05-0.71,4.01,2.1,6.29c1.39,1.12,1.56,0.91,2.05,1.44c0.5,0.51,0.72,0.78,0.95,2.03
		c0.22,1.27,1.39,5.7,3.39,8.99c0.59,0.96,0.9,1.62,0.95,1.77c0.07,0.16,0.18,0.33-0.21,0.99c-0.19,0.32-0.7,1.4-1.33,2.85
		c20.92,0,41.85,0,62.77,0C172.18,143.73,171.73,143.04,170.92,141.73z"/>
	<path fill="none" d="M224.14,64.4c-0.12-0.17-0.31-0.28-0.51-0.31l-53.05-6.85c-1.02-1.17-1.9-2.02-2.41-2.52
		c-0.74-0.64-2.02-1.81-3.59-2.92c-2.25-1.61-4.04-2.84-7.73-4.6c-0.93-0.43-5.03-2.3-8.8-3.16c-1.34-0.3-3.96-0.93-6.41-1.15
		c-1.11-0.09-3.29-0.16-5.9-0.05c-1.59,0.06-4.52,0.54-5.98,0.87c-1.01,0.23-2.36,0.51-4.06,0.97c-1.65,0.44-3.29,0.95-4.97,1.53
		c-0.55,0.19-2.92,1.17-3.44,1.38c-0.51,0.23-1.44,0.58-2.14,0.86c-1.07,0.42-2.61,0.83-3.88,1.14l-35.11-4.53
		c-0.21-0.02-0.41,0.04-0.57,0.19c-0.16,0.13-0.25,0.33-0.25,0.54l0.24,145.06c0.01,0.37,0.28,0.68,0.64,0.71l110.15,14.22
		c0.36,0.06,0.7-0.17,0.79-0.53l37.06-140.25C224.29,64.78,224.26,64.57,224.14,64.4"/>
	<path fill="none" d="M224.14,64.4c-0.12-0.17-0.31-0.28-0.51-0.31l-53.05-6.85c-1.02-1.17-1.9-2.02-2.41-2.52
		c-0.74-0.64-2.02-1.81-3.59-2.92c-2.25-1.61-4.04-2.84-7.73-4.6c-0.93-0.43-5.03-2.3-8.8-3.16c-1.34-0.3-3.96-0.93-6.41-1.15
		c-1.11-0.09-3.29-0.16-5.9-0.05c-1.59,0.06-4.52,0.54-5.98,0.87c-1.01,0.23-2.36,0.51-4.06,0.97c-1.65,0.44-3.29,0.95-4.97,1.53
		c-0.55,0.19-2.92,1.17-3.44,1.38c-0.51,0.23-1.44,0.58-2.14,0.86c-1.07,0.42-2.61,0.83-3.88,1.14l-35.11-4.53
		c-0.21-0.02-0.41,0.04-0.57,0.19c-0.16,0.13-0.25,0.33-0.25,0.54l0.24,145.06c0.01,0.37,0.28,0.68,0.64,0.71l110.15,14.22
		c0.36,0.06,0.7-0.17,0.79-0.53l37.06-140.25C224.29,64.78,224.26,64.57,224.14,64.4"/>
	<path fill="none" d="M224.14,64.4c-0.12-0.17-0.31-0.28-0.51-0.31l-53.05-6.85c-1.02-1.17-1.9-2.02-2.41-2.52
		c-0.74-0.64-2.02-1.81-3.59-2.92c-2.25-1.61-4.04-2.84-7.73-4.6c-0.93-0.43-5.03-2.3-8.8-3.16c-1.34-0.3-3.96-0.93-6.41-1.15
		c-1.11-0.09-3.29-0.16-5.9-0.05c-1.59,0.06-4.52,0.54-5.98,0.87c-1.01,0.23-2.36,0.51-4.06,0.97c-1.65,0.44-3.29,0.95-4.97,1.53
		c-0.55,0.19-2.92,1.17-3.44,1.38c-0.51,0.23-1.44,0.58-2.14,0.86c-1.07,0.42-2.61,0.83-3.88,1.14l-35.11-4.53
		c-0.21-0.02-0.41,0.04-0.57,0.19c-0.16,0.13-0.25,0.33-0.25,0.54l0.24,145.06c0.01,0.37,0.28,0.68,0.64,0.71l110.15,14.22
		c0.36,0.06,0.7-0.17,0.79-0.53l37.06-140.25C224.29,64.78,224.26,64.57,224.14,64.4"/>
	<path fill="none" d="M224.14,64.4c-0.12-0.17-0.31-0.28-0.51-0.31l-53.05-6.85c-1.02-1.17-1.9-2.02-2.41-2.52
		c-0.74-0.64-2.02-1.81-3.59-2.92c-2.25-1.61-4.04-2.84-7.73-4.6c-0.93-0.43-5.03-2.3-8.8-3.16c-1.34-0.3-3.96-0.93-6.41-1.15
		c-1.11-0.09-3.29-0.16-5.9-0.05c-1.59,0.06-4.52,0.54-5.98,0.87c-1.01,0.23-2.36,0.51-4.06,0.97c-1.65,0.44-3.29,0.95-4.97,1.53
		c-0.55,0.19-2.92,1.17-3.44,1.38c-0.51,0.23-1.44,0.58-2.14,0.86c-1.07,0.42-2.61,0.83-3.88,1.14l-35.11-4.53
		c-0.21-0.02-0.41,0.04-0.57,0.19c-0.16,0.13-0.25,0.33-0.25,0.54l0.24,145.06c0.01,0.37,0.28,0.68,0.64,0.71l110.15,14.22
		c0.36,0.06,0.7-0.17,0.79-0.53l37.06-140.25C224.29,64.78,224.26,64.57,224.14,64.4"/>
	<path fill="none" d="M224.14,64.4c-0.12-0.17-0.31-0.28-0.51-0.31l-53.05-6.85c-1.02-1.17-1.9-2.02-2.41-2.52
		c-0.74-0.64-2.02-1.81-3.59-2.92c-2.25-1.61-4.04-2.84-7.73-4.6c-0.93-0.43-5.03-2.3-8.8-3.16c-1.34-0.3-3.96-0.93-6.41-1.15
		c-1.11-0.09-3.29-0.16-5.9-0.05c-1.59,0.06-4.52,0.54-5.98,0.87c-1.01,0.23-2.36,0.51-4.06,0.97c-1.65,0.44-3.29,0.95-4.97,1.53
		c-0.55,0.19-2.92,1.17-3.44,1.38c-0.51,0.23-1.44,0.58-2.14,0.86c-1.07,0.42-2.61,0.83-3.88,1.14l-35.11-4.53
		c-0.21-0.02-0.41,0.04-0.57,0.19c-0.16,0.13-0.25,0.33-0.25,0.54l0.24,145.06c0.01,0.37,0.28,0.68,0.64,0.71l110.15,14.22
		c0.36,0.06,0.7-0.17,0.79-0.53l37.06-140.25C224.29,64.78,224.26,64.57,224.14,64.4"/>
	<path fill="none" d="M224.14,64.4c-0.12-0.17-0.31-0.28-0.51-0.31l-53.05-6.85c-1.02-1.17-1.9-2.02-2.41-2.52
		c-0.74-0.64-2.02-1.81-3.59-2.92c-2.25-1.61-4.04-2.84-7.73-4.6c-0.93-0.43-5.03-2.3-8.8-3.16c-1.34-0.3-3.96-0.93-6.41-1.15
		c-1.11-0.09-3.29-0.16-5.9-0.05c-1.59,0.06-4.52,0.54-5.98,0.87c-1.01,0.23-2.36,0.51-4.06,0.97c-1.65,0.44-3.29,0.95-4.97,1.53
		c-0.55,0.19-2.92,1.17-3.44,1.38c-0.51,0.23-1.44,0.58-2.14,0.86c-1.07,0.42-2.61,0.83-3.88,1.14l-35.11-4.53
		c-0.21-0.02-0.41,0.04-0.57,0.19c-0.16,0.13-0.25,0.33-0.25,0.54l0.24,145.06c0.01,0.37,0.28,0.68,0.64,0.71l110.15,14.22
		c0.36,0.06,0.7-0.17,0.79-0.53l37.06-140.25C224.29,64.78,224.26,64.57,224.14,64.4"/>
	<path fill="none" d="M224.14,64.4c-0.12-0.17-0.31-0.28-0.51-0.31l-53.05-6.85c-1.02-1.17-1.9-2.02-2.41-2.52
		c-0.74-0.64-2.02-1.81-3.59-2.92c-2.25-1.61-4.04-2.84-7.73-4.6c-0.93-0.43-5.03-2.3-8.8-3.16c-1.34-0.3-3.96-0.93-6.41-1.15
		c-1.11-0.09-3.29-0.16-5.9-0.05c-1.59,0.06-4.52,0.54-5.98,0.87c-1.01,0.23-2.36,0.51-4.06,0.97c-1.65,0.44-3.29,0.95-4.97,1.53
		c-0.55,0.19-2.92,1.17-3.44,1.38c-0.51,0.23-1.44,0.58-2.14,0.86c-1.07,0.42-2.61,0.83-3.88,1.14l-35.11-4.53
		c-0.21-0.02-0.41,0.04-0.57,0.19c-0.16,0.13-0.25,0.33-0.25,0.54l0.24,145.06c0.01,0.37,0.28,0.68,0.64,0.71l110.15,14.22
		c0.36,0.06,0.7-0.17,0.79-0.53l37.06-140.25C224.29,64.78,224.26,64.57,224.14,64.4"/>
	<path fill="none" d="M224.14,64.4c-0.12-0.17-0.31-0.28-0.51-0.31l-53.05-6.85c-1.02-1.17-1.9-2.02-2.41-2.52
		c-0.74-0.64-2.02-1.81-3.59-2.92c-2.25-1.61-4.04-2.84-7.73-4.6c-0.93-0.43-5.03-2.3-8.8-3.16c-1.34-0.3-3.96-0.93-6.41-1.15
		c-1.11-0.09-3.29-0.16-5.9-0.05c-1.59,0.06-4.52,0.54-5.98,0.87c-1.01,0.23-2.36,0.51-4.06,0.97c-1.65,0.44-3.29,0.95-4.97,1.53
		c-0.55,0.19-2.92,1.17-3.44,1.38c-0.51,0.23-1.44,0.58-2.14,0.86c-1.07,0.42-2.61,0.83-3.88,1.14l-35.11-4.53
		c-0.21-0.02-0.41,0.04-0.57,0.19c-0.16,0.13-0.25,0.33-0.25,0.54l0.24,145.06c0.01,0.37,0.28,0.68,0.64,0.71l110.15,14.22
		c0.36,0.06,0.7-0.17,0.79-0.53l37.06-140.25C224.29,64.78,224.26,64.57,224.14,64.4"/>
	<path fill="none" d="M224.14,64.4c-0.12-0.17-0.31-0.28-0.51-0.31l-53.05-6.85c-1.02-1.17-1.9-2.02-2.41-2.52
		c-0.74-0.64-2.02-1.81-3.59-2.92c-2.25-1.61-4.04-2.84-7.73-4.6c-0.93-0.43-5.03-2.3-8.8-3.16c-1.34-0.3-3.96-0.93-6.41-1.15
		c-1.11-0.09-3.29-0.16-5.9-0.05c-1.59,0.06-4.52,0.54-5.98,0.87c-1.01,0.23-2.36,0.51-4.06,0.97c-1.65,0.44-3.29,0.95-4.97,1.53
		c-0.55,0.19-2.92,1.17-3.44,1.38c-0.51,0.23-1.44,0.58-2.14,0.86c-1.07,0.42-2.61,0.83-3.88,1.14l-35.11-4.53
		c-0.21-0.02-0.41,0.04-0.57,0.19c-0.16,0.13-0.25,0.33-0.25,0.54l0.24,145.06c0.01,0.37,0.28,0.68,0.64,0.71l110.15,14.22
		c0.36,0.06,0.7-0.17,0.79-0.53l37.06-140.25C224.29,64.78,224.26,64.57,224.14,64.4"/>
	<path fill="none" d="M224.14,64.4c-0.12-0.17-0.31-0.28-0.51-0.31l-53.05-6.85c-1.02-1.17-1.9-2.02-2.41-2.52
		c-0.74-0.64-2.02-1.81-3.59-2.92c-2.25-1.61-4.04-2.84-7.73-4.6c-0.93-0.43-5.03-2.3-8.8-3.16c-1.34-0.3-3.96-0.93-6.41-1.15
		c-1.11-0.09-3.29-0.16-5.9-0.05c-1.59,0.06-4.52,0.54-5.98,0.87c-1.01,0.23-2.36,0.51-4.06,0.97c-1.65,0.44-3.29,0.95-4.97,1.53
		c-0.55,0.19-2.92,1.17-3.44,1.38c-0.51,0.23-1.44,0.58-2.14,0.86c-1.07,0.42-2.61,0.83-3.88,1.14l-35.11-4.53
		c-0.21-0.02-0.41,0.04-0.57,0.19c-0.16,0.13-0.25,0.33-0.25,0.54l0.24,145.06c0.01,0.37,0.28,0.68,0.64,0.71l110.15,14.22
		c0.36,0.06,0.7-0.17,0.79-0.53l37.06-140.25C224.29,64.78,224.26,64.57,224.14,64.4"/>
	<path fill="none" d="M224.14,64.4c-0.12-0.17-0.31-0.28-0.51-0.31l-53.05-6.85c-1.02-1.17-1.9-2.02-2.41-2.52
		c-0.74-0.64-2.02-1.81-3.59-2.92c-2.25-1.61-4.04-2.84-7.73-4.6c-0.93-0.43-5.03-2.3-8.8-3.16c-1.34-0.3-3.96-0.93-6.41-1.15
		c-1.11-0.09-3.29-0.16-5.9-0.05c-1.59,0.06-4.52,0.54-5.98,0.87c-1.01,0.23-2.36,0.51-4.06,0.97c-1.65,0.44-3.29,0.95-4.97,1.53
		c-0.55,0.19-2.92,1.17-3.44,1.38c-0.51,0.23-1.44,0.58-2.14,0.86c-1.07,0.42-2.61,0.83-3.88,1.14l-35.11-4.53
		c-0.21-0.02-0.41,0.04-0.57,0.19c-0.16,0.13-0.25,0.33-0.25,0.54l0.24,145.06c0.01,0.37,0.28,0.68,0.64,0.71l110.15,14.22
		c0.36,0.06,0.7-0.17,0.79-0.53l37.06-140.25C224.29,64.78,224.26,64.57,224.14,64.4"/>
	<path fill="none" d="M224.14,64.4c-0.12-0.17-0.31-0.28-0.51-0.31l-53.05-6.85c-1.02-1.17-1.9-2.02-2.41-2.52
		c-0.74-0.64-2.02-1.81-3.59-2.92c-2.25-1.61-4.04-2.84-7.73-4.6c-0.93-0.43-5.03-2.3-8.8-3.16c-1.34-0.3-3.96-0.93-6.41-1.15
		c-1.11-0.09-3.29-0.16-5.9-0.05c-1.59,0.06-4.52,0.54-5.98,0.87c-1.01,0.23-2.36,0.51-4.06,0.97c-1.65,0.44-3.29,0.95-4.97,1.53
		c-0.55,0.19-2.92,1.17-3.44,1.38c-0.51,0.23-1.44,0.58-2.14,0.86c-1.07,0.42-2.61,0.83-3.88,1.14l-35.11-4.53
		c-0.21-0.02-0.41,0.04-0.57,0.19c-0.16,0.13-0.25,0.33-0.25,0.54l0.24,145.06c0.01,0.37,0.28,0.68,0.64,0.71l110.15,14.22
		c0.36,0.06,0.7-0.17,0.79-0.53l37.06-140.25C224.29,64.78,224.26,64.57,224.14,64.4"/>
	<path fill="none" d="M224.14,64.4c-0.12-0.17-0.31-0.28-0.51-0.31l-53.05-6.85c-1.02-1.17-1.9-2.02-2.41-2.52
		c-0.74-0.64-2.02-1.81-3.59-2.92c-2.25-1.61-4.04-2.84-7.73-4.6c-0.93-0.43-5.03-2.3-8.8-3.16c-1.34-0.3-3.96-0.93-6.41-1.15
		c-1.11-0.09-3.29-0.16-5.9-0.05c-1.59,0.06-4.52,0.54-5.98,0.87c-1.01,0.23-2.36,0.51-4.06,0.97c-1.65,0.44-3.29,0.95-4.97,1.53
		c-0.55,0.19-2.92,1.17-3.44,1.38c-0.51,0.23-1.44,0.58-2.14,0.86c-1.07,0.42-2.61,0.83-3.88,1.14l-35.11-4.53
		c-0.21-0.02-0.41,0.04-0.57,0.19c-0.16,0.13-0.25,0.33-0.25,0.54l0.24,145.06c0.01,0.37,0.28,0.68,0.64,0.71l110.15,14.22
		c0.36,0.06,0.7-0.17,0.79-0.53l37.06-140.25C224.29,64.78,224.26,64.57,224.14,64.4"/>
	<path fill="none" d="M224.14,64.4c-0.12-0.17-0.31-0.28-0.51-0.31l-53.05-6.85c-1.02-1.17-1.9-2.02-2.41-2.52
		c-0.74-0.64-2.02-1.81-3.59-2.92c-2.25-1.61-4.04-2.84-7.73-4.6c-0.93-0.43-5.03-2.3-8.8-3.16c-1.34-0.3-3.96-0.93-6.41-1.15
		c-1.11-0.09-3.29-0.16-5.9-0.05c-1.59,0.06-4.52,0.54-5.98,0.87c-1.01,0.23-2.36,0.51-4.06,0.97c-1.65,0.44-3.29,0.95-4.97,1.53
		c-0.55,0.19-2.92,1.17-3.44,1.38c-0.51,0.23-1.44,0.58-2.14,0.86c-1.07,0.42-2.61,0.83-3.88,1.14l-35.11-4.53
		c-0.21-0.02-0.41,0.04-0.57,0.19c-0.16,0.13-0.25,0.33-0.25,0.54l0.24,145.06c0.01,0.37,0.28,0.68,0.64,0.71l110.15,14.22
		c0.36,0.06,0.7-0.17,0.79-0.53l37.06-140.25C224.29,64.78,224.26,64.57,224.14,64.4"/>
	<path fill="none" d="M224.14,64.4c-0.12-0.17-0.31-0.28-0.51-0.31l-53.05-6.85c-1.02-1.17-1.9-2.02-2.41-2.52
		c-0.74-0.64-2.02-1.81-3.59-2.92c-2.25-1.61-4.04-2.84-7.73-4.6c-0.93-0.43-5.03-2.3-8.8-3.16c-1.34-0.3-3.96-0.93-6.41-1.15
		c-1.11-0.09-3.29-0.16-5.9-0.05c-1.59,0.06-4.52,0.54-5.98,0.87c-1.01,0.23-2.36,0.51-4.06,0.97c-1.65,0.44-3.29,0.95-4.97,1.53
		c-0.55,0.19-2.92,1.17-3.44,1.38c-0.51,0.23-1.44,0.58-2.14,0.86c-1.07,0.42-2.61,0.83-3.88,1.14l-35.11-4.53
		c-0.21-0.02-0.41,0.04-0.57,0.19c-0.16,0.13-0.25,0.33-0.25,0.54l0.24,145.06c0.01,0.37,0.28,0.68,0.64,0.71l110.15,14.22
		c0.36,0.06,0.7-0.17,0.79-0.53l37.06-140.25C224.29,64.78,224.26,64.57,224.14,64.4"/>
	<path fill="none" d="M224.14,64.4c-0.12-0.17-0.31-0.28-0.51-0.31l-53.05-6.85c-1.02-1.17-1.9-2.02-2.41-2.52
		c-0.74-0.64-2.02-1.81-3.59-2.92c-2.25-1.61-4.04-2.84-7.73-4.6c-0.93-0.43-5.03-2.3-8.8-3.16c-1.34-0.3-3.96-0.93-6.41-1.15
		c-1.11-0.09-3.29-0.16-5.9-0.05c-1.59,0.06-4.52,0.54-5.98,0.87c-1.01,0.23-2.36,0.51-4.06,0.97c-1.65,0.44-3.29,0.95-4.97,1.53
		c-0.55,0.19-2.92,1.17-3.44,1.38c-0.51,0.23-1.44,0.58-2.14,0.86c-1.07,0.42-2.61,0.83-3.88,1.14l-35.11-4.53
		c-0.21-0.02-0.41,0.04-0.57,0.19c-0.16,0.13-0.25,0.33-0.25,0.54l0.24,145.06c0.01,0.37,0.28,0.68,0.64,0.71l110.15,14.22
		c0.36,0.06,0.7-0.17,0.79-0.53l37.06-140.25C224.29,64.78,224.26,64.57,224.14,64.4"/>
	<path fill="none" d="M224.14,64.4c-0.12-0.17-0.31-0.28-0.51-0.31l-53.05-6.85c-1.02-1.17-1.9-2.02-2.41-2.52
		c-0.74-0.64-2.02-1.81-3.59-2.92c-2.25-1.61-4.04-2.84-7.73-4.6c-0.93-0.43-5.03-2.3-8.8-3.16c-1.34-0.3-3.96-0.93-6.41-1.15
		c-1.11-0.09-3.29-0.16-5.9-0.05c-1.59,0.06-4.52,0.54-5.98,0.87c-1.01,0.23-2.36,0.51-4.06,0.97c-1.65,0.44-3.29,0.95-4.97,1.53
		c-0.55,0.19-2.92,1.17-3.44,1.38c-0.51,0.23-1.44,0.58-2.14,0.86c-1.07,0.42-2.61,0.83-3.88,1.14l-35.11-4.53
		c-0.21-0.02-0.41,0.04-0.57,0.19c-0.16,0.13-0.25,0.33-0.25,0.54l0.24,145.06c0.01,0.37,0.28,0.68,0.64,0.71l110.15,14.22
		c0.36,0.06,0.7-0.17,0.79-0.53l37.06-140.25C224.29,64.78,224.26,64.57,224.14,64.4"/>
	<path fill="none" d="M224.14,64.4c-0.12-0.17-0.31-0.28-0.51-0.31l-53.05-6.85c-1.02-1.17-1.9-2.02-2.41-2.52
		c-0.74-0.64-2.02-1.81-3.59-2.92c-2.25-1.61-4.04-2.84-7.73-4.6c-0.93-0.43-5.03-2.3-8.8-3.16c-1.34-0.3-3.96-0.93-6.41-1.15
		c-1.11-0.09-3.29-0.16-5.9-0.05c-1.59,0.06-4.52,0.54-5.98,0.87c-1.01,0.23-2.36,0.51-4.06,0.97c-1.65,0.44-3.29,0.95-4.97,1.53
		c-0.55,0.19-2.92,1.17-3.44,1.38c-0.51,0.23-1.44,0.58-2.14,0.86c-1.07,0.42-2.61,0.83-3.88,1.14l-35.11-4.53
		c-0.21-0.02-0.41,0.04-0.57,0.19c-0.16,0.13-0.25,0.33-0.25,0.54l0.24,145.06c0.01,0.37,0.28,0.68,0.64,0.71l110.15,14.22
		c0.36,0.06,0.7-0.17,0.79-0.53l37.06-140.25C224.29,64.78,224.26,64.57,224.14,64.4"/>
	<path fill="none" d="M224.14,64.4c-0.12-0.17-0.31-0.28-0.51-0.31l-53.05-6.85c-1.02-1.17-1.9-2.02-2.41-2.52
		c-0.74-0.64-2.02-1.81-3.59-2.92c-2.25-1.61-4.04-2.84-7.73-4.6c-0.93-0.43-5.03-2.3-8.8-3.16c-1.34-0.3-3.96-0.93-6.41-1.15
		c-1.11-0.09-3.29-0.16-5.9-0.05c-1.59,0.06-4.52,0.54-5.98,0.87c-1.01,0.23-2.36,0.51-4.06,0.97c-1.65,0.44-3.29,0.95-4.97,1.53
		c-0.55,0.19-2.92,1.17-3.44,1.38c-0.51,0.23-1.44,0.58-2.14,0.86c-1.07,0.42-2.61,0.83-3.88,1.14l-35.11-4.53
		c-0.21-0.02-0.41,0.04-0.57,0.19c-0.16,0.13-0.25,0.33-0.25,0.54l0.24,145.06c0.01,0.37,0.28,0.68,0.64,0.71l110.15,14.22
		c0.36,0.06,0.7-0.17,0.79-0.53l37.06-140.25C224.29,64.78,224.26,64.57,224.14,64.4"/>
	<path fill="none" d="M224.14,64.4c-0.12-0.17-0.31-0.28-0.51-0.31l-53.05-6.85c-1.02-1.17-1.9-2.02-2.41-2.52
		c-0.74-0.64-2.02-1.81-3.59-2.92c-2.25-1.61-4.04-2.84-7.73-4.6c-0.93-0.43-5.03-2.3-8.8-3.16c-1.34-0.3-3.96-0.93-6.41-1.15
		c-1.11-0.09-3.29-0.16-5.9-0.05c-1.59,0.06-4.52,0.54-5.98,0.87c-1.01,0.23-2.36,0.51-4.06,0.97c-1.65,0.44-3.29,0.95-4.97,1.53
		c-0.55,0.19-2.92,1.17-3.44,1.38c-0.51,0.23-1.44,0.58-2.14,0.86c-1.07,0.42-2.61,0.83-3.88,1.14l-35.11-4.53
		c-0.21-0.02-0.41,0.04-0.57,0.19c-0.16,0.13-0.25,0.33-0.25,0.54l0.24,145.06c0.01,0.37,0.28,0.68,0.64,0.71l110.15,14.22
		c0.36,0.06,0.7-0.17,0.79-0.53l37.06-140.25C224.29,64.78,224.26,64.57,224.14,64.4"/>
	<path fill="none" d="M224.14,64.4c-0.12-0.17-0.31-0.28-0.51-0.31l-53.05-6.85c-1.02-1.17-1.9-2.02-2.41-2.52
		c-0.74-0.64-2.02-1.81-3.59-2.92c-2.25-1.61-4.04-2.84-7.73-4.6c-0.93-0.43-5.03-2.3-8.8-3.16c-1.34-0.3-3.96-0.93-6.41-1.15
		c-1.11-0.09-3.29-0.16-5.9-0.05c-1.59,0.06-4.52,0.54-5.98,0.87c-1.01,0.23-2.36,0.51-4.06,0.97c-1.65,0.44-3.29,0.95-4.97,1.53
		c-0.55,0.19-2.92,1.17-3.44,1.38c-0.51,0.23-1.44,0.58-2.14,0.86c-1.07,0.42-2.61,0.83-3.88,1.14l-35.11-4.53
		c-0.21-0.02-0.41,0.04-0.57,0.19c-0.16,0.13-0.25,0.33-0.25,0.54l0.24,145.06c0.01,0.37,0.28,0.68,0.64,0.71l110.15,14.22
		c0.36,0.06,0.7-0.17,0.79-0.53l37.06-140.25C224.29,64.78,224.26,64.57,224.14,64.4"/>
	<path fill="none" d="M224.14,64.4c-0.12-0.17-0.31-0.28-0.51-0.31l-53.05-6.85c-1.02-1.17-1.9-2.02-2.41-2.52
		c-0.74-0.64-2.02-1.81-3.59-2.92c-2.25-1.61-4.04-2.84-7.73-4.6c-0.93-0.43-5.03-2.3-8.8-3.16c-1.34-0.3-3.96-0.93-6.41-1.15
		c-1.11-0.09-3.29-0.16-5.9-0.05c-1.59,0.06-4.52,0.54-5.98,0.87c-1.01,0.23-2.36,0.51-4.06,0.97c-1.65,0.44-3.29,0.95-4.97,1.53
		c-0.55,0.19-2.92,1.17-3.44,1.38c-0.51,0.23-1.44,0.58-2.14,0.86c-1.07,0.42-2.61,0.83-3.88,1.14l-35.11-4.53
		c-0.21-0.02-0.41,0.04-0.57,0.19c-0.16,0.13-0.25,0.33-0.25,0.54l0.24,145.06c0.01,0.37,0.28,0.68,0.64,0.71l110.15,14.22
		c0.36,0.06,0.7-0.17,0.79-0.53l37.06-140.25C224.29,64.78,224.26,64.57,224.14,64.4"/>
	<path fill="none" d="M224.14,64.4c-0.12-0.17-0.31-0.28-0.51-0.31l-53.05-6.85c-1.02-1.17-1.9-2.02-2.41-2.52
		c-0.74-0.64-2.02-1.81-3.59-2.92c-2.25-1.61-4.04-2.84-7.73-4.6c-0.93-0.43-5.03-2.3-8.8-3.16c-1.34-0.3-3.96-0.93-6.41-1.15
		c-1.11-0.09-3.29-0.16-5.9-0.05c-1.59,0.06-4.52,0.54-5.98,0.87c-1.01,0.23-2.36,0.51-4.06,0.97c-1.65,0.44-3.29,0.95-4.97,1.53
		c-0.55,0.19-2.92,1.17-3.44,1.38c-0.51,0.23-1.44,0.58-2.14,0.86c-1.07,0.42-2.61,0.83-3.88,1.14l-35.11-4.53
		c-0.21-0.02-0.41,0.04-0.57,0.19c-0.16,0.13-0.25,0.33-0.25,0.54l0.24,145.06c0.01,0.37,0.28,0.68,0.64,0.71l110.15,14.22
		c0.36,0.06,0.7-0.17,0.79-0.53l37.06-140.25C224.29,64.78,224.26,64.57,224.14,64.4"/>
	<path fill="none" d="M224.14,64.4c-0.12-0.17-0.31-0.28-0.51-0.31l-53.05-6.85c-1.02-1.17-1.9-2.02-2.41-2.52
		c-0.74-0.64-2.02-1.81-3.59-2.92c-2.25-1.61-4.04-2.84-7.73-4.6c-0.93-0.43-5.03-2.3-8.8-3.16c-1.34-0.3-3.96-0.93-6.41-1.15
		c-1.11-0.09-3.29-0.16-5.9-0.05c-1.59,0.06-4.52,0.54-5.98,0.87c-1.01,0.23-2.36,0.51-4.06,0.97c-1.65,0.44-3.29,0.95-4.97,1.53
		c-0.55,0.19-2.92,1.17-3.44,1.38c-0.51,0.23-1.44,0.58-2.14,0.86c-1.07,0.42-2.61,0.83-3.88,1.14l-35.11-4.53
		c-0.21-0.02-0.41,0.04-0.57,0.19c-0.16,0.13-0.25,0.33-0.25,0.54l0.24,145.06c0.01,0.37,0.28,0.68,0.64,0.71l110.15,14.22
		c0.36,0.06,0.7-0.17,0.79-0.53l37.06-140.25C224.29,64.78,224.26,64.57,224.14,64.4"/>
	<path fill="none" d="M224.14,64.4c-0.12-0.17-0.31-0.28-0.51-0.31l-53.05-6.85c-1.02-1.17-1.9-2.02-2.41-2.52
		c-0.74-0.64-2.02-1.81-3.59-2.92c-2.25-1.61-4.04-2.84-7.73-4.6c-0.93-0.43-5.03-2.3-8.8-3.16c-1.34-0.3-3.96-0.93-6.41-1.15
		c-1.11-0.09-3.29-0.16-5.9-0.05c-1.59,0.06-4.52,0.54-5.98,0.87c-1.01,0.23-2.36,0.51-4.06,0.97c-1.65,0.44-3.29,0.95-4.97,1.53
		c-0.55,0.19-2.92,1.17-3.44,1.38c-0.51,0.23-1.44,0.58-2.14,0.86c-1.07,0.42-2.61,0.83-3.88,1.14l-35.11-4.53
		c-0.21-0.02-0.41,0.04-0.57,0.19c-0.16,0.13-0.25,0.33-0.25,0.54l0.24,145.06c0.01,0.37,0.28,0.68,0.64,0.71l110.15,14.22
		c0.36,0.06,0.7-0.17,0.79-0.53l37.06-140.25C224.29,64.78,224.26,64.57,224.14,64.4"/>
	<path fill="none" d="M224.14,64.4c-0.12-0.17-0.31-0.28-0.51-0.31l-53.05-6.85c-1.02-1.17-1.9-2.02-2.41-2.52
		c-0.74-0.64-2.02-1.81-3.59-2.92c-2.25-1.61-4.04-2.84-7.73-4.6c-0.93-0.43-5.03-2.3-8.8-3.16c-1.34-0.3-3.96-0.93-6.41-1.15
		c-1.11-0.09-3.29-0.16-5.9-0.05c-1.59,0.06-4.52,0.54-5.98,0.87c-1.01,0.23-2.36,0.51-4.06,0.97c-1.65,0.44-3.29,0.95-4.97,1.53
		c-0.55,0.19-2.92,1.17-3.44,1.38c-0.51,0.23-1.44,0.58-2.14,0.86c-1.07,0.42-2.61,0.83-3.88,1.14l-35.11-4.53
		c-0.21-0.02-0.41,0.04-0.57,0.19c-0.16,0.13-0.25,0.33-0.25,0.54l0.24,145.06c0.01,0.37,0.28,0.68,0.64,0.71l110.15,14.22
		c0.36,0.06,0.7-0.17,0.79-0.53l37.06-140.25C224.29,64.78,224.26,64.57,224.14,64.4"/>
	<path fill="none" d="M224.14,64.4c-0.12-0.17-0.31-0.28-0.51-0.31l-53.05-6.85c-1.02-1.17-1.9-2.02-2.41-2.52
		c-0.74-0.64-2.02-1.81-3.59-2.92c-2.25-1.61-4.04-2.84-7.73-4.6c-0.93-0.43-5.03-2.3-8.8-3.16c-1.34-0.3-3.96-0.93-6.41-1.15
		c-1.11-0.09-3.29-0.16-5.9-0.05c-1.59,0.06-4.52,0.54-5.98,0.87c-1.01,0.23-2.36,0.51-4.06,0.97c-1.65,0.44-3.29,0.95-4.97,1.53
		c-0.55,0.19-2.92,1.17-3.44,1.38c-0.51,0.23-1.44,0.58-2.14,0.86c-1.07,0.42-2.61,0.83-3.88,1.14l-35.11-4.53
		c-0.21-0.02-0.41,0.04-0.57,0.19c-0.16,0.13-0.25,0.33-0.25,0.54l0.24,145.06c0.01,0.37,0.28,0.68,0.64,0.71l110.15,14.22
		c0.36,0.06,0.7-0.17,0.79-0.53l37.06-140.25C224.29,64.78,224.26,64.57,224.14,64.4"/>
	<path fill="none" d="M224.14,64.4c-0.12-0.17-0.31-0.28-0.51-0.31l-53.05-6.85c-1.02-1.17-1.9-2.02-2.41-2.52
		c-0.74-0.64-2.02-1.81-3.59-2.92c-2.25-1.61-4.04-2.84-7.73-4.6c-0.93-0.43-5.03-2.3-8.8-3.16c-1.34-0.3-3.96-0.93-6.41-1.15
		c-1.11-0.09-3.29-0.16-5.9-0.05c-1.59,0.06-4.52,0.54-5.98,0.87c-1.01,0.23-2.36,0.51-4.06,0.97c-1.65,0.44-3.29,0.95-4.97,1.53
		c-0.55,0.19-2.92,1.17-3.44,1.38c-0.51,0.23-1.44,0.58-2.14,0.86c-1.07,0.42-2.61,0.83-3.88,1.14l-35.11-4.53
		c-0.21-0.02-0.41,0.04-0.57,0.19c-0.16,0.13-0.25,0.33-0.25,0.54l0.24,145.06c0.01,0.37,0.28,0.68,0.64,0.71l110.15,14.22
		c0.36,0.06,0.7-0.17,0.79-0.53l37.06-140.25C224.29,64.78,224.26,64.57,224.14,64.4"/>
	<path fill="none" d="M224.14,64.4c-0.12-0.17-0.31-0.28-0.51-0.31l-53.05-6.85c-1.02-1.17-1.9-2.02-2.41-2.52
		c-0.74-0.64-2.02-1.81-3.59-2.92c-2.25-1.61-4.04-2.84-7.73-4.6c-0.93-0.43-5.03-2.3-8.8-3.16c-1.34-0.3-3.96-0.93-6.41-1.15
		c-1.11-0.09-3.29-0.16-5.9-0.05c-1.59,0.06-4.52,0.54-5.98,0.87c-1.01,0.23-2.36,0.51-4.06,0.97c-1.65,0.44-3.29,0.95-4.97,1.53
		c-0.55,0.19-2.92,1.17-3.44,1.38c-0.51,0.23-1.44,0.58-2.14,0.86c-1.07,0.42-2.61,0.83-3.88,1.14l-35.11-4.53
		c-0.21-0.02-0.41,0.04-0.57,0.19c-0.16,0.13-0.25,0.33-0.25,0.54l0.24,145.06c0.01,0.37,0.28,0.68,0.64,0.71l110.15,14.22
		c0.36,0.06,0.7-0.17,0.79-0.53l37.06-140.25C224.29,64.78,224.26,64.57,224.14,64.4"/>
	<path fill="none" d="M224.14,64.4c-0.12-0.17-0.31-0.28-0.51-0.31l-53.05-6.85c-1.02-1.17-1.9-2.02-2.41-2.52
		c-0.74-0.64-2.02-1.81-3.59-2.92c-2.25-1.61-4.04-2.84-7.73-4.6c-0.93-0.43-5.03-2.3-8.8-3.16c-1.34-0.3-3.96-0.93-6.41-1.15
		c-1.11-0.09-3.29-0.16-5.9-0.05c-1.59,0.06-4.52,0.54-5.98,0.87c-1.01,0.23-2.36,0.51-4.06,0.97c-1.65,0.44-3.29,0.95-4.97,1.53
		c-0.55,0.19-2.92,1.17-3.44,1.38c-0.51,0.23-1.44,0.58-2.14,0.86c-1.07,0.42-2.61,0.83-3.88,1.14l-35.11-4.53
		c-0.21-0.02-0.41,0.04-0.57,0.19c-0.16,0.13-0.25,0.33-0.25,0.54l0.24,145.06c0.01,0.37,0.28,0.68,0.64,0.71l110.15,14.22
		c0.36,0.06,0.7-0.17,0.79-0.53l37.06-140.25C224.29,64.78,224.26,64.57,224.14,64.4"/>
	<path fill="none" d="M224.14,64.4c-0.12-0.17-0.31-0.28-0.51-0.31l-53.05-6.85c-1.02-1.17-1.9-2.02-2.41-2.52
		c-0.74-0.64-2.02-1.81-3.59-2.92c-2.25-1.61-4.04-2.84-7.73-4.6c-0.93-0.43-5.03-2.3-8.8-3.16c-1.34-0.3-3.96-0.93-6.41-1.15
		c-1.11-0.09-3.29-0.16-5.9-0.05c-1.59,0.06-4.52,0.54-5.98,0.87c-1.01,0.23-2.36,0.51-4.06,0.97c-1.65,0.44-3.29,0.95-4.97,1.53
		c-0.55,0.19-2.92,1.17-3.44,1.38c-0.51,0.23-1.44,0.58-2.14,0.86c-1.07,0.42-2.61,0.83-3.88,1.14l-35.11-4.53
		c-0.21-0.02-0.41,0.04-0.57,0.19c-0.16,0.13-0.25,0.33-0.25,0.54l0.24,145.06c0.01,0.37,0.28,0.68,0.64,0.71l110.15,14.22
		c0.36,0.06,0.7-0.17,0.79-0.53l37.06-140.25C224.29,64.78,224.26,64.57,224.14,64.4"/>
	<path fill="none" d="M224.14,64.4c-0.12-0.17-0.31-0.28-0.51-0.31l-53.05-6.85c-1.02-1.17-1.9-2.02-2.41-2.52
		c-0.74-0.64-2.02-1.81-3.59-2.92c-2.25-1.61-4.04-2.84-7.73-4.6c-0.93-0.43-5.03-2.3-8.8-3.16c-1.34-0.3-3.96-0.93-6.41-1.15
		c-1.11-0.09-3.29-0.16-5.9-0.05c-1.59,0.06-4.52,0.54-5.98,0.87c-1.01,0.23-2.36,0.51-4.06,0.97c-1.65,0.44-3.29,0.95-4.97,1.53
		c-0.55,0.19-2.92,1.17-3.44,1.38c-0.51,0.23-1.44,0.58-2.14,0.86c-1.07,0.42-2.61,0.83-3.88,1.14l-35.11-4.53
		c-0.21-0.02-0.41,0.04-0.57,0.19c-0.16,0.13-0.25,0.33-0.25,0.54l0.24,145.06c0.01,0.37,0.28,0.68,0.64,0.71l110.15,14.22
		c0.36,0.06,0.7-0.17,0.79-0.53l37.06-140.25C224.29,64.78,224.26,64.57,224.14,64.4"/>
	<path fill="none" d="M224.14,64.4c-0.12-0.17-0.31-0.28-0.51-0.31l-53.05-6.85c-1.02-1.17-1.9-2.02-2.41-2.52
		c-0.74-0.64-2.02-1.81-3.59-2.92c-2.25-1.61-4.04-2.84-7.73-4.6c-0.93-0.43-5.03-2.3-8.8-3.16c-1.34-0.3-3.96-0.93-6.41-1.15
		c-1.11-0.09-3.29-0.16-5.9-0.05c-1.59,0.06-4.52,0.54-5.98,0.87c-1.01,0.23-2.36,0.51-4.06,0.97c-1.65,0.44-3.29,0.95-4.97,1.53
		c-0.55,0.19-2.92,1.17-3.44,1.38c-0.51,0.23-1.44,0.58-2.14,0.86c-1.07,0.42-2.61,0.83-3.88,1.14l-35.11-4.53
		c-0.21-0.02-0.41,0.04-0.57,0.19c-0.16,0.13-0.25,0.33-0.25,0.54l0.24,145.06c0.01,0.37,0.28,0.68,0.64,0.71l110.15,14.22
		c0.36,0.06,0.7-0.17,0.79-0.53l37.06-140.25C224.29,64.78,224.26,64.57,224.14,64.4"/>
	<path fill="none" d="M224.14,64.4c-0.12-0.17-0.31-0.28-0.51-0.31l-53.05-6.85c-1.02-1.17-1.9-2.02-2.41-2.52
		c-0.74-0.64-2.02-1.81-3.59-2.92c-2.25-1.61-4.04-2.84-7.73-4.6c-0.93-0.43-5.03-2.3-8.8-3.16c-1.34-0.3-3.96-0.93-6.41-1.15
		c-1.11-0.09-3.29-0.16-5.9-0.05c-1.59,0.06-4.52,0.54-5.98,0.87c-1.01,0.23-2.36,0.51-4.06,0.97c-1.65,0.44-3.29,0.95-4.97,1.53
		c-0.55,0.19-2.92,1.17-3.44,1.38c-0.51,0.23-1.44,0.58-2.14,0.86c-1.07,0.42-2.61,0.83-3.88,1.14l-35.11-4.53
		c-0.21-0.02-0.41,0.04-0.57,0.19c-0.16,0.13-0.25,0.33-0.25,0.54l0.24,145.06c0.01,0.37,0.28,0.68,0.64,0.71l110.15,14.22
		c0.36,0.06,0.7-0.17,0.79-0.53l37.06-140.25C224.29,64.78,224.26,64.57,224.14,64.4"/>
	<path fill="none" d="M224.14,64.4c-0.12-0.17-0.31-0.28-0.51-0.31l-53.05-6.85c-1.02-1.17-1.9-2.02-2.41-2.52
		c-0.74-0.64-2.02-1.81-3.59-2.92c-2.25-1.61-4.04-2.84-7.73-4.6c-0.93-0.43-5.03-2.3-8.8-3.16c-1.34-0.3-3.96-0.93-6.41-1.15
		c-1.11-0.09-3.29-0.16-5.9-0.05c-1.59,0.06-4.52,0.54-5.98,0.87c-1.01,0.23-2.36,0.51-4.06,0.97c-1.65,0.44-3.29,0.95-4.97,1.53
		c-0.55,0.19-2.92,1.17-3.44,1.38c-0.51,0.23-1.44,0.58-2.14,0.86c-1.07,0.42-2.61,0.83-3.88,1.14l-35.11-4.53
		c-0.21-0.02-0.41,0.04-0.57,0.19c-0.16,0.13-0.25,0.33-0.25,0.54l0.24,145.06c0.01,0.37,0.28,0.68,0.64,0.71l110.15,14.22
		c0.36,0.06,0.7-0.17,0.79-0.53l37.06-140.25C224.29,64.78,224.26,64.57,224.14,64.4"/>
	<path fill="none" d="M224.14,64.4c-0.12-0.17-0.31-0.28-0.51-0.31l-53.05-6.85c-1.02-1.17-1.9-2.02-2.41-2.52
		c-0.74-0.64-2.02-1.81-3.59-2.92c-2.25-1.61-4.04-2.84-7.73-4.6c-0.93-0.43-5.03-2.3-8.8-3.16c-1.34-0.3-3.96-0.93-6.41-1.15
		c-1.11-0.09-3.29-0.16-5.9-0.05c-1.59,0.06-4.52,0.54-5.98,0.87c-1.01,0.23-2.36,0.51-4.06,0.97c-1.65,0.44-3.29,0.95-4.97,1.53
		c-0.55,0.19-2.92,1.17-3.44,1.38c-0.51,0.23-1.44,0.58-2.14,0.86c-1.07,0.42-2.61,0.83-3.88,1.14l-35.11-4.53
		c-0.21-0.02-0.41,0.04-0.57,0.19c-0.16,0.13-0.25,0.33-0.25,0.54l0.24,145.06c0.01,0.37,0.28,0.68,0.64,0.71l110.15,14.22
		c0.36,0.06,0.7-0.17,0.79-0.53l37.06-140.25C224.29,64.78,224.26,64.57,224.14,64.4"/>
	<path fill="none" d="M224.14,64.4c-0.12-0.17-0.31-0.28-0.51-0.31l-53.05-6.85c-1.02-1.17-1.9-2.02-2.41-2.52
		c-0.74-0.64-2.02-1.81-3.59-2.92c-2.25-1.61-4.04-2.84-7.73-4.6c-0.93-0.43-5.03-2.3-8.8-3.16c-1.34-0.3-3.96-0.93-6.41-1.15
		c-1.11-0.09-3.29-0.16-5.9-0.05c-1.59,0.06-4.52,0.54-5.98,0.87c-1.01,0.23-2.36,0.51-4.06,0.97c-1.65,0.44-3.29,0.95-4.97,1.53
		c-0.55,0.19-2.92,1.17-3.44,1.38c-0.51,0.23-1.44,0.58-2.14,0.86c-1.07,0.42-2.61,0.83-3.88,1.14l-35.11-4.53
		c-0.21-0.02-0.41,0.04-0.57,0.19c-0.16,0.13-0.25,0.33-0.25,0.54l0.24,145.06c0.01,0.37,0.28,0.68,0.64,0.71l110.15,14.22
		c0.36,0.06,0.7-0.17,0.79-0.53l37.06-140.25C224.29,64.78,224.26,64.57,224.14,64.4"/>
	<path fill="none" d="M224.14,64.4c-0.12-0.17-0.31-0.28-0.51-0.31l-53.05-6.85c-1.02-1.17-1.9-2.02-2.41-2.52
		c-0.74-0.64-2.02-1.81-3.59-2.92c-2.25-1.61-4.04-2.84-7.73-4.6c-0.93-0.43-5.03-2.3-8.8-3.16c-1.34-0.3-3.96-0.93-6.41-1.15
		c-1.11-0.09-3.29-0.16-5.9-0.05c-1.59,0.06-4.52,0.54-5.98,0.87c-1.01,0.23-2.36,0.51-4.06,0.97c-1.65,0.44-3.29,0.95-4.97,1.53
		c-0.55,0.19-2.92,1.17-3.44,1.38c-0.51,0.23-1.44,0.58-2.14,0.86c-1.07,0.42-2.61,0.83-3.88,1.14l-35.11-4.53
		c-0.21-0.02-0.41,0.04-0.57,0.19c-0.16,0.13-0.25,0.33-0.25,0.54l0.24,145.06c0.01,0.37,0.28,0.68,0.64,0.71l110.15,14.22
		c0.36,0.06,0.7-0.17,0.79-0.53l37.06-140.25C224.29,64.78,224.26,64.57,224.14,64.4"/>
	<path fill="none" d="M224.14,64.4c-0.12-0.17-0.31-0.28-0.51-0.31l-53.05-6.85c-1.02-1.17-1.9-2.02-2.41-2.52
		c-0.74-0.64-2.02-1.81-3.59-2.92c-2.25-1.61-4.04-2.84-7.73-4.6c-0.93-0.43-5.03-2.3-8.8-3.16c-1.34-0.3-3.96-0.93-6.41-1.15
		c-1.11-0.09-3.29-0.16-5.9-0.05c-1.59,0.06-4.52,0.54-5.98,0.87c-1.01,0.23-2.36,0.51-4.06,0.97c-1.65,0.44-3.29,0.95-4.97,1.53
		c-0.55,0.19-2.92,1.17-3.44,1.38c-0.51,0.23-1.44,0.58-2.14,0.86c-1.07,0.42-2.61,0.83-3.88,1.14l-35.11-4.53
		c-0.21-0.02-0.41,0.04-0.57,0.19c-0.16,0.13-0.25,0.33-0.25,0.54l0.24,145.06c0.01,0.37,0.28,0.68,0.64,0.71l110.15,14.22
		c0.36,0.06,0.7-0.17,0.79-0.53l37.06-140.25C224.29,64.78,224.26,64.57,224.14,64.4"/>
	<path fill="none" d="M224.14,64.4c-0.12-0.17-0.31-0.28-0.51-0.31l-53.05-6.85c-1.02-1.17-1.9-2.02-2.41-2.52
		c-0.74-0.64-2.02-1.81-3.59-2.92c-2.25-1.61-4.04-2.84-7.73-4.6c-0.93-0.43-5.03-2.3-8.8-3.16c-1.34-0.3-3.96-0.93-6.41-1.15
		c-1.11-0.09-3.29-0.16-5.9-0.05c-1.59,0.06-4.52,0.54-5.98,0.87c-1.01,0.23-2.36,0.51-4.06,0.97c-1.65,0.44-3.29,0.95-4.97,1.53
		c-0.55,0.19-2.92,1.17-3.44,1.38c-0.51,0.23-1.44,0.58-2.14,0.86c-1.07,0.42-2.61,0.83-3.88,1.14l-35.11-4.53
		c-0.21-0.02-0.41,0.04-0.57,0.19c-0.16,0.13-0.25,0.33-0.25,0.54l0.24,145.06c0.01,0.37,0.28,0.68,0.64,0.71l110.15,14.22
		c0.36,0.06,0.7-0.17,0.79-0.53l37.06-140.25C224.29,64.78,224.26,64.57,224.14,64.4"/>
	<path fill="none" d="M224.14,64.4c-0.12-0.17-0.31-0.28-0.51-0.31l-53.05-6.85c-1.02-1.17-1.9-2.02-2.41-2.52
		c-0.74-0.64-2.02-1.81-3.59-2.92c-2.25-1.61-4.04-2.84-7.73-4.6c-0.93-0.43-5.03-2.3-8.8-3.16c-1.34-0.3-3.96-0.93-6.41-1.15
		c-1.11-0.09-3.29-0.16-5.9-0.05c-1.59,0.06-4.52,0.54-5.98,0.87c-1.01,0.23-2.36,0.51-4.06,0.97c-1.65,0.44-3.29,0.95-4.97,1.53
		c-0.55,0.19-2.92,1.17-3.44,1.38c-0.51,0.23-1.44,0.58-2.14,0.86c-1.07,0.42-2.61,0.83-3.88,1.14l-35.11-4.53
		c-0.21-0.02-0.41,0.04-0.57,0.19c-0.16,0.13-0.25,0.33-0.25,0.54l0.24,145.06c0.01,0.37,0.28,0.68,0.64,0.71l110.15,14.22
		c0.36,0.06,0.7-0.17,0.79-0.53l37.06-140.25C224.29,64.78,224.26,64.57,224.14,64.4"/>
	<path fill="none" d="M224.14,64.4c-0.12-0.17-0.31-0.28-0.51-0.31l-53.05-6.85c-1.02-1.17-1.9-2.02-2.41-2.52
		c-0.74-0.64-2.02-1.81-3.59-2.92c-2.25-1.61-4.04-2.84-7.73-4.6c-0.93-0.43-5.03-2.3-8.8-3.16c-1.34-0.3-3.96-0.93-6.41-1.15
		c-1.11-0.09-3.29-0.16-5.9-0.05c-1.59,0.06-4.52,0.54-5.98,0.87c-1.01,0.23-2.36,0.51-4.06,0.97c-1.65,0.44-3.29,0.95-4.97,1.53
		c-0.55,0.19-2.92,1.17-3.44,1.38c-0.51,0.23-1.44,0.58-2.14,0.86c-1.07,0.42-2.61,0.83-3.88,1.14l-35.11-4.53
		c-0.21-0.02-0.41,0.04-0.57,0.19c-0.16,0.13-0.25,0.33-0.25,0.54l0.24,145.06c0.01,0.37,0.28,0.68,0.64,0.71l110.15,14.22
		c0.36,0.06,0.7-0.17,0.79-0.53l37.06-140.25C224.29,64.78,224.26,64.57,224.14,64.4"/>
	<path fill="none" d="M224.14,64.4c-0.12-0.17-0.31-0.28-0.51-0.31l-53.05-6.85c-1.02-1.17-1.9-2.02-2.41-2.52
		c-0.74-0.64-2.02-1.81-3.59-2.92c-2.25-1.61-4.04-2.84-7.73-4.6c-0.93-0.43-5.03-2.3-8.8-3.16c-1.34-0.3-3.96-0.93-6.41-1.15
		c-1.11-0.09-3.29-0.16-5.9-0.05c-1.59,0.06-4.52,0.54-5.98,0.87c-1.01,0.23-2.36,0.51-4.06,0.97c-1.65,0.44-3.29,0.95-4.97,1.53
		c-0.55,0.19-2.92,1.17-3.44,1.38c-0.51,0.23-1.44,0.58-2.14,0.86c-1.07,0.42-2.61,0.83-3.88,1.14l-35.11-4.53
		c-0.21-0.02-0.41,0.04-0.57,0.19c-0.16,0.13-0.25,0.33-0.25,0.54l0.24,145.06c0.01,0.37,0.28,0.68,0.64,0.71l110.15,14.22
		c0.36,0.06,0.7-0.17,0.79-0.53l37.06-140.25C224.29,64.78,224.26,64.57,224.14,64.4"/>
	<path fill="none" d="M224.14,64.4c-0.12-0.17-0.31-0.28-0.51-0.31l-53.05-6.85c-1.02-1.17-1.9-2.02-2.41-2.52
		c-0.74-0.64-2.02-1.81-3.59-2.92c-2.25-1.61-4.04-2.84-7.73-4.6c-0.93-0.43-5.03-2.3-8.8-3.16c-1.34-0.3-3.96-0.93-6.41-1.15
		c-1.11-0.09-3.29-0.16-5.9-0.05c-1.59,0.06-4.52,0.54-5.98,0.87c-1.01,0.23-2.36,0.51-4.06,0.97c-1.65,0.44-3.29,0.95-4.97,1.53
		c-0.55,0.19-2.92,1.17-3.44,1.38c-0.51,0.23-1.44,0.58-2.14,0.86c-1.07,0.42-2.61,0.83-3.88,1.14l-35.11-4.53
		c-0.21-0.02-0.41,0.04-0.57,0.19c-0.16,0.13-0.25,0.33-0.25,0.54l0.24,145.06c0.01,0.37,0.28,0.68,0.64,0.71l110.15,14.22
		c0.36,0.06,0.7-0.17,0.79-0.53l37.06-140.25C224.29,64.78,224.26,64.57,224.14,64.4"/>
	<path fill="none" d="M224.14,64.4c-0.12-0.17-0.31-0.28-0.51-0.31l-53.05-6.85c-1.02-1.17-1.9-2.02-2.41-2.52
		c-0.74-0.64-2.02-1.81-3.59-2.92c-2.25-1.61-4.04-2.84-7.73-4.6c-0.93-0.43-5.03-2.3-8.8-3.16c-1.34-0.3-3.96-0.93-6.41-1.15
		c-1.11-0.09-3.29-0.16-5.9-0.05c-1.59,0.06-4.52,0.54-5.98,0.87c-1.01,0.23-2.36,0.51-4.06,0.97c-1.65,0.44-3.29,0.95-4.97,1.53
		c-0.55,0.19-2.92,1.17-3.44,1.38c-0.51,0.23-1.44,0.58-2.14,0.86c-1.07,0.42-2.61,0.83-3.88,1.14l-35.11-4.53
		c-0.21-0.02-0.41,0.04-0.57,0.19c-0.16,0.13-0.25,0.33-0.25,0.54l0.24,145.06c0.01,0.37,0.28,0.68,0.64,0.71l110.15,14.22
		c0.36,0.06,0.7-0.17,0.79-0.53l37.06-140.25C224.29,64.78,224.26,64.57,224.14,64.4"/>
	<path fill="none" d="M224.14,64.4c-0.12-0.17-0.31-0.28-0.51-0.31l-53.05-6.85c-1.02-1.17-1.9-2.02-2.41-2.52
		c-0.74-0.64-2.02-1.81-3.59-2.92c-2.25-1.61-4.04-2.84-7.73-4.6c-0.93-0.43-5.03-2.3-8.8-3.16c-1.34-0.3-3.96-0.93-6.41-1.15
		c-1.11-0.09-3.29-0.16-5.9-0.05c-1.59,0.06-4.52,0.54-5.98,0.87c-1.01,0.23-2.36,0.51-4.06,0.97c-1.65,0.44-3.29,0.95-4.97,1.53
		c-0.55,0.19-2.92,1.17-3.44,1.38c-0.51,0.23-1.44,0.58-2.14,0.86c-1.07,0.42-2.61,0.83-3.88,1.14l-35.11-4.53
		c-0.21-0.02-0.41,0.04-0.57,0.19c-0.16,0.13-0.25,0.33-0.25,0.54l0.24,145.06c0.01,0.37,0.28,0.68,0.64,0.71l110.15,14.22
		c0.36,0.06,0.7-0.17,0.79-0.53l37.06-140.25C224.29,64.78,224.26,64.57,224.14,64.4"/>
	<path fill="none" d="M224.14,64.4c-0.12-0.17-0.31-0.28-0.51-0.31l-53.05-6.85c-1.02-1.17-1.9-2.02-2.41-2.52
		c-0.74-0.64-2.02-1.81-3.59-2.92c-2.25-1.61-4.04-2.84-7.73-4.6c-0.93-0.43-5.03-2.3-8.8-3.16c-1.34-0.3-3.96-0.93-6.41-1.15
		c-1.11-0.09-3.29-0.16-5.9-0.05c-1.59,0.06-4.52,0.54-5.98,0.87c-1.01,0.23-2.36,0.51-4.06,0.97c-1.65,0.44-3.29,0.95-4.97,1.53
		c-0.55,0.19-2.92,1.17-3.44,1.38c-0.51,0.23-1.44,0.58-2.14,0.86c-1.07,0.42-2.61,0.83-3.88,1.14l-35.11-4.53
		c-0.21-0.02-0.41,0.04-0.57,0.19c-0.16,0.13-0.25,0.33-0.25,0.54l0.24,145.06c0.01,0.37,0.28,0.68,0.64,0.71l110.15,14.22
		c0.36,0.06,0.7-0.17,0.79-0.53l37.06-140.25C224.29,64.78,224.26,64.57,224.14,64.4"/>
	<path fill="none" d="M224.14,64.4c-0.12-0.17-0.31-0.28-0.51-0.31l-53.05-6.85c-1.02-1.17-1.9-2.02-2.41-2.52
		c-0.74-0.64-2.02-1.81-3.59-2.92c-2.25-1.61-4.04-2.84-7.73-4.6c-0.93-0.43-5.03-2.3-8.8-3.16c-1.34-0.3-3.96-0.93-6.41-1.15
		c-1.11-0.09-3.29-0.16-5.9-0.05c-1.59,0.06-4.52,0.54-5.98,0.87c-1.01,0.23-2.36,0.51-4.06,0.97c-1.65,0.44-3.29,0.95-4.97,1.53
		c-0.55,0.19-2.92,1.17-3.44,1.38c-0.51,0.23-1.44,0.58-2.14,0.86c-1.07,0.42-2.61,0.83-3.88,1.14l-35.11-4.53
		c-0.21-0.02-0.41,0.04-0.57,0.19c-0.16,0.13-0.25,0.33-0.25,0.54l0.24,145.06c0.01,0.37,0.28,0.68,0.64,0.71l110.15,14.22
		c0.36,0.06,0.7-0.17,0.79-0.53l37.06-140.25C224.29,64.78,224.26,64.57,224.14,64.4"/>
	<path fill="none" d="M224.14,64.4c-0.12-0.17-0.31-0.28-0.51-0.31l-53.05-6.85c-1.02-1.17-1.9-2.02-2.41-2.52
		c-0.74-0.64-2.02-1.81-3.59-2.92c-2.25-1.61-4.04-2.84-7.73-4.6c-0.93-0.43-5.03-2.3-8.8-3.16c-1.34-0.3-3.96-0.93-6.41-1.15
		c-1.11-0.09-3.29-0.16-5.9-0.05c-1.59,0.06-4.52,0.54-5.98,0.87c-1.01,0.23-2.36,0.51-4.06,0.97c-1.65,0.44-3.29,0.95-4.97,1.53
		c-0.55,0.19-2.92,1.17-3.44,1.38c-0.51,0.23-1.44,0.58-2.14,0.86c-1.07,0.42-2.61,0.83-3.88,1.14l-35.11-4.53
		c-0.21-0.02-0.41,0.04-0.57,0.19c-0.16,0.13-0.25,0.33-0.25,0.54l0.24,145.06c0.01,0.37,0.28,0.68,0.64,0.71l110.15,14.22
		c0.36,0.06,0.7-0.17,0.79-0.53l37.06-140.25C224.29,64.78,224.26,64.57,224.14,64.4"/>
	<path fill="none" d="M224.14,64.4c-0.12-0.17-0.31-0.28-0.51-0.31l-53.05-6.85c-1.02-1.17-1.9-2.02-2.41-2.52
		c-0.74-0.64-2.02-1.81-3.59-2.92c-2.25-1.61-4.04-2.84-7.73-4.6c-0.93-0.43-5.03-2.3-8.8-3.16c-1.34-0.3-3.96-0.93-6.41-1.15
		c-1.11-0.09-3.29-0.16-5.9-0.05c-1.59,0.06-4.52,0.54-5.98,0.87c-1.01,0.23-2.36,0.51-4.06,0.97c-1.65,0.44-3.29,0.95-4.97,1.53
		c-0.55,0.19-2.92,1.17-3.44,1.38c-0.51,0.23-1.44,0.58-2.14,0.86c-1.07,0.42-2.61,0.83-3.88,1.14l-35.11-4.53
		c-0.21-0.02-0.41,0.04-0.57,0.19c-0.16,0.13-0.25,0.33-0.25,0.54l0.24,145.06c0.01,0.37,0.28,0.68,0.64,0.71l110.15,14.22
		c0.36,0.06,0.7-0.17,0.79-0.53l37.06-140.25C224.29,64.78,224.26,64.57,224.14,64.4"/>
	<path fill="none" d="M224.14,64.4c-0.12-0.17-0.31-0.28-0.51-0.31l-53.05-6.85c-1.02-1.17-1.9-2.02-2.41-2.52
		c-0.74-0.64-2.02-1.81-3.59-2.92c-2.25-1.61-4.04-2.84-7.73-4.6c-0.93-0.43-5.03-2.3-8.8-3.16c-1.34-0.3-3.96-0.93-6.41-1.15
		c-1.11-0.09-3.29-0.16-5.9-0.05c-1.59,0.06-4.52,0.54-5.98,0.87c-1.01,0.23-2.36,0.51-4.06,0.97c-1.65,0.44-3.29,0.95-4.97,1.53
		c-0.55,0.19-2.92,1.17-3.44,1.38c-0.51,0.23-1.44,0.58-2.14,0.86c-1.07,0.42-2.61,0.83-3.88,1.14l-35.11-4.53
		c-0.21-0.02-0.41,0.04-0.57,0.19c-0.16,0.13-0.25,0.33-0.25,0.54l0.24,145.06c0.01,0.37,0.28,0.68,0.64,0.71l110.15,14.22
		c0.36,0.06,0.7-0.17,0.79-0.53l37.06-140.25C224.29,64.78,224.26,64.57,224.14,64.4"/>
	<path fill="none" d="M224.14,64.4c-0.12-0.17-0.31-0.28-0.51-0.31l-53.05-6.85c-1.02-1.17-1.9-2.02-2.41-2.52
		c-0.74-0.64-2.02-1.81-3.59-2.92c-2.25-1.61-4.04-2.84-7.73-4.6c-0.93-0.43-5.03-2.3-8.8-3.16c-1.34-0.3-3.96-0.93-6.41-1.15
		c-1.11-0.09-3.29-0.16-5.9-0.05c-1.59,0.06-4.52,0.54-5.98,0.87c-1.01,0.23-2.36,0.51-4.06,0.97c-1.65,0.44-3.29,0.95-4.97,1.53
		c-0.55,0.19-2.92,1.17-3.44,1.38c-0.51,0.23-1.44,0.58-2.14,0.86c-1.07,0.42-2.61,0.83-3.88,1.14l-35.11-4.53
		c-0.21-0.02-0.41,0.04-0.57,0.19c-0.16,0.13-0.25,0.33-0.25,0.54l0.24,145.06c0.01,0.37,0.28,0.68,0.64,0.71l110.15,14.22
		c0.36,0.06,0.7-0.17,0.79-0.53l37.06-140.25C224.29,64.78,224.26,64.57,224.14,64.4"/>
	<path fill="none" d="M224.14,64.4c-0.12-0.17-0.31-0.28-0.51-0.31l-53.05-6.85c-1.02-1.17-1.9-2.02-2.41-2.52
		c-0.74-0.64-2.02-1.81-3.59-2.92c-2.25-1.61-4.04-2.84-7.73-4.6c-0.93-0.43-5.03-2.3-8.8-3.16c-1.34-0.3-3.96-0.93-6.41-1.15
		c-1.11-0.09-3.29-0.16-5.9-0.05c-1.59,0.06-4.52,0.54-5.98,0.87c-1.01,0.23-2.36,0.51-4.06,0.97c-1.65,0.44-3.29,0.95-4.97,1.53
		c-0.55,0.19-2.92,1.17-3.44,1.38c-0.51,0.23-1.44,0.58-2.14,0.86c-1.07,0.42-2.61,0.83-3.88,1.14l-35.11-4.53
		c-0.21-0.02-0.41,0.04-0.57,0.19c-0.16,0.13-0.25,0.33-0.25,0.54l0.24,145.06c0.01,0.37,0.28,0.68,0.64,0.71l110.15,14.22
		c0.36,0.06,0.7-0.17,0.79-0.53l37.06-140.25C224.29,64.78,224.26,64.57,224.14,64.4"/>
	<path fill="none" d="M224.14,64.4c-0.12-0.17-0.31-0.28-0.51-0.31l-53.05-6.85c-1.02-1.17-1.9-2.02-2.41-2.52
		c-0.74-0.64-2.02-1.81-3.59-2.92c-2.25-1.61-4.04-2.84-7.73-4.6c-0.93-0.43-5.03-2.3-8.8-3.16c-1.34-0.3-3.96-0.93-6.41-1.15
		c-1.11-0.09-3.29-0.16-5.9-0.05c-1.59,0.06-4.52,0.54-5.98,0.87c-1.01,0.23-2.36,0.51-4.06,0.97c-1.65,0.44-3.29,0.95-4.97,1.53
		c-0.55,0.19-2.92,1.17-3.44,1.38c-0.51,0.23-1.44,0.58-2.14,0.86c-1.07,0.42-2.61,0.83-3.88,1.14l-35.11-4.53
		c-0.21-0.02-0.41,0.04-0.57,0.19c-0.16,0.13-0.25,0.33-0.25,0.54l0.24,145.06c0.01,0.37,0.28,0.68,0.64,0.71l110.15,14.22
		c0.36,0.06,0.7-0.17,0.79-0.53l37.06-140.25C224.29,64.78,224.26,64.57,224.14,64.4"/>
	<path fill="none" d="M224.14,64.4c-0.12-0.17-0.31-0.28-0.51-0.31l-53.05-6.85c-1.02-1.17-1.9-2.02-2.41-2.52
		c-0.74-0.64-2.02-1.81-3.59-2.92c-2.25-1.61-4.04-2.84-7.73-4.6c-0.93-0.43-5.03-2.3-8.8-3.16c-1.34-0.3-3.96-0.93-6.41-1.15
		c-1.11-0.09-3.29-0.16-5.9-0.05c-1.59,0.06-4.52,0.54-5.98,0.87c-1.01,0.23-2.36,0.51-4.06,0.97c-1.65,0.44-3.29,0.95-4.97,1.53
		c-0.55,0.19-2.92,1.17-3.44,1.38c-0.51,0.23-1.44,0.58-2.14,0.86c-1.07,0.42-2.61,0.83-3.88,1.14l-35.11-4.53
		c-0.21-0.02-0.41,0.04-0.57,0.19c-0.16,0.13-0.25,0.33-0.25,0.54l0.24,145.06c0.01,0.37,0.28,0.68,0.64,0.71l110.15,14.22
		c0.36,0.06,0.7-0.17,0.79-0.53l37.06-140.25C224.29,64.78,224.26,64.57,224.14,64.4"/>
	<path fill="none" d="M224.14,64.4c-0.12-0.17-0.31-0.28-0.51-0.31l-53.05-6.85c-1.02-1.17-1.9-2.02-2.41-2.52
		c-0.74-0.64-2.02-1.81-3.59-2.92c-2.25-1.61-4.04-2.84-7.73-4.6c-0.93-0.43-5.03-2.3-8.8-3.16c-1.34-0.3-3.96-0.93-6.41-1.15
		c-1.11-0.09-3.29-0.16-5.9-0.05c-1.59,0.06-4.52,0.54-5.98,0.87c-1.01,0.23-2.36,0.51-4.06,0.97c-1.65,0.44-3.29,0.95-4.97,1.53
		c-0.55,0.19-2.92,1.17-3.44,1.38c-0.51,0.23-1.44,0.58-2.14,0.86c-1.07,0.42-2.61,0.83-3.88,1.14l-35.11-4.53
		c-0.21-0.02-0.41,0.04-0.57,0.19c-0.16,0.13-0.25,0.33-0.25,0.54l0.24,145.06c0.01,0.37,0.28,0.68,0.64,0.71l110.15,14.22
		c0.36,0.06,0.7-0.17,0.79-0.53l37.06-140.25C224.29,64.78,224.26,64.57,224.14,64.4"/>
	<path fill="none" d="M224.14,64.4c-0.12-0.17-0.31-0.28-0.51-0.31l-53.05-6.85c-1.02-1.17-1.9-2.02-2.41-2.52
		c-0.74-0.64-2.02-1.81-3.59-2.92c-2.25-1.61-4.04-2.84-7.73-4.6c-0.93-0.43-5.03-2.3-8.8-3.16c-1.34-0.3-3.96-0.93-6.41-1.15
		c-1.11-0.09-3.29-0.16-5.9-0.05c-1.59,0.06-4.52,0.54-5.98,0.87c-1.01,0.23-2.36,0.51-4.06,0.97c-1.65,0.44-3.29,0.95-4.97,1.53
		c-0.55,0.19-2.92,1.17-3.44,1.38c-0.51,0.23-1.44,0.58-2.14,0.86c-1.07,0.42-2.61,0.83-3.88,1.14l-35.11-4.53
		c-0.21-0.02-0.41,0.04-0.57,0.19c-0.16,0.13-0.25,0.33-0.25,0.54l0.24,145.06c0.01,0.37,0.28,0.68,0.64,0.71l110.15,14.22
		c0.36,0.06,0.7-0.17,0.79-0.53l37.06-140.25C224.29,64.78,224.26,64.57,224.14,64.4"/>
	<path fill="none" d="M224.14,64.4c-0.12-0.17-0.31-0.28-0.51-0.31l-53.05-6.85c-1.02-1.17-1.9-2.02-2.41-2.52
		c-0.74-0.64-2.02-1.81-3.59-2.92c-2.25-1.61-4.04-2.84-7.73-4.6c-0.93-0.43-5.03-2.3-8.8-3.16c-1.34-0.3-3.96-0.93-6.41-1.15
		c-1.11-0.09-3.29-0.16-5.9-0.05c-1.59,0.06-4.52,0.54-5.98,0.87c-1.01,0.23-2.36,0.51-4.06,0.97c-1.65,0.44-3.29,0.95-4.97,1.53
		c-0.55,0.19-2.92,1.17-3.44,1.38c-0.51,0.23-1.44,0.58-2.14,0.86c-1.07,0.42-2.61,0.83-3.88,1.14l-35.11-4.53
		c-0.21-0.02-0.41,0.04-0.57,0.19c-0.16,0.13-0.25,0.33-0.25,0.54l0.24,145.06c0.01,0.37,0.28,0.68,0.64,0.71l110.15,14.22
		c0.36,0.06,0.7-0.17,0.79-0.53l37.06-140.25C224.29,64.78,224.26,64.57,224.14,64.4"/>
	<path fill="none" d="M224.14,64.4c-0.12-0.17-0.31-0.28-0.51-0.31l-53.05-6.85c-1.02-1.17-1.9-2.02-2.41-2.52
		c-0.74-0.64-2.02-1.81-3.59-2.92c-2.25-1.61-4.04-2.84-7.73-4.6c-0.93-0.43-5.03-2.3-8.8-3.16c-1.34-0.3-3.96-0.93-6.41-1.15
		c-1.11-0.09-3.29-0.16-5.9-0.05c-1.59,0.06-4.52,0.54-5.98,0.87c-1.01,0.23-2.36,0.51-4.06,0.97c-1.65,0.44-3.29,0.95-4.97,1.53
		c-0.55,0.19-2.92,1.17-3.44,1.38c-0.51,0.23-1.44,0.58-2.14,0.86c-1.07,0.42-2.61,0.83-3.88,1.14l-35.11-4.53
		c-0.21-0.02-0.41,0.04-0.57,0.19c-0.16,0.13-0.25,0.33-0.25,0.54l0.24,145.06c0.01,0.37,0.28,0.68,0.64,0.71l110.15,14.22
		c0.36,0.06,0.7-0.17,0.79-0.53l37.06-140.25C224.29,64.78,224.26,64.57,224.14,64.4"/>
	<path fill="none" d="M224.14,64.4c-0.12-0.17-0.31-0.28-0.51-0.31l-53.05-6.85c-1.02-1.17-1.9-2.02-2.41-2.52
		c-0.74-0.64-2.02-1.81-3.59-2.92c-2.25-1.61-4.04-2.84-7.73-4.6c-0.93-0.43-5.03-2.3-8.8-3.16c-1.34-0.3-3.96-0.93-6.41-1.15
		c-1.11-0.09-3.29-0.16-5.9-0.05c-1.59,0.06-4.52,0.54-5.98,0.87c-1.01,0.23-2.36,0.51-4.06,0.97c-1.65,0.44-3.29,0.95-4.97,1.53
		c-0.55,0.19-2.92,1.17-3.44,1.38c-0.51,0.23-1.44,0.58-2.14,0.86c-1.07,0.42-2.61,0.83-3.88,1.14l-35.11-4.53
		c-0.21-0.02-0.41,0.04-0.57,0.19c-0.16,0.13-0.25,0.33-0.25,0.54l0.24,145.06c0.01,0.37,0.28,0.68,0.64,0.71l110.15,14.22
		c0.36,0.06,0.7-0.17,0.79-0.53l37.06-140.25C224.29,64.78,224.26,64.57,224.14,64.4"/>
	<path fill="none" d="M224.14,64.4c-0.12-0.17-0.31-0.28-0.51-0.31l-53.05-6.85c-1.02-1.17-1.9-2.02-2.41-2.52
		c-0.74-0.64-2.02-1.81-3.59-2.92c-2.25-1.61-4.04-2.84-7.73-4.6c-0.93-0.43-5.03-2.3-8.8-3.16c-1.34-0.3-3.96-0.93-6.41-1.15
		c-1.11-0.09-3.29-0.16-5.9-0.05c-1.59,0.06-4.52,0.54-5.98,0.87c-1.01,0.23-2.36,0.51-4.06,0.97c-1.65,0.44-3.29,0.95-4.97,1.53
		c-0.55,0.19-2.92,1.17-3.44,1.38c-0.51,0.23-1.44,0.58-2.14,0.86c-1.07,0.42-2.61,0.83-3.88,1.14l-35.11-4.53
		c-0.21-0.02-0.41,0.04-0.57,0.19c-0.16,0.13-0.25,0.33-0.25,0.54l0.24,145.06c0.01,0.37,0.28,0.68,0.64,0.71l110.15,14.22
		c0.36,0.06,0.7-0.17,0.79-0.53l37.06-140.25C224.29,64.78,224.26,64.57,224.14,64.4"/>
	<path fill="none" d="M224.14,64.4c-0.12-0.17-0.31-0.28-0.51-0.31l-53.05-6.85c-1.02-1.17-1.9-2.02-2.41-2.52
		c-0.74-0.64-2.02-1.81-3.59-2.92c-2.25-1.61-4.04-2.84-7.73-4.6c-0.93-0.43-5.03-2.3-8.8-3.16c-1.34-0.3-3.96-0.93-6.41-1.15
		c-1.11-0.09-3.29-0.16-5.9-0.05c-1.59,0.06-4.52,0.54-5.98,0.87c-1.01,0.23-2.36,0.51-4.06,0.97c-1.65,0.44-3.29,0.95-4.97,1.53
		c-0.55,0.19-2.92,1.17-3.44,1.38c-0.51,0.23-1.44,0.58-2.14,0.86c-1.07,0.42-2.61,0.83-3.88,1.14l-35.11-4.53
		c-0.21-0.02-0.41,0.04-0.57,0.19c-0.16,0.13-0.25,0.33-0.25,0.54l0.24,145.06c0.01,0.37,0.28,0.68,0.64,0.71l110.15,14.22
		c0.36,0.06,0.7-0.17,0.79-0.53l37.06-140.25C224.29,64.78,224.26,64.57,224.14,64.4"/>
	<path fill="none" d="M224.14,64.4c-0.12-0.17-0.31-0.28-0.51-0.31l-53.05-6.85c-1.02-1.17-1.9-2.02-2.41-2.52
		c-0.74-0.64-2.02-1.81-3.59-2.92c-2.25-1.61-4.04-2.84-7.73-4.6c-0.93-0.43-5.03-2.3-8.8-3.16c-1.34-0.3-3.96-0.93-6.41-1.15
		c-1.11-0.09-3.29-0.16-5.9-0.05c-1.59,0.06-4.52,0.54-5.98,0.87c-1.01,0.23-2.36,0.51-4.06,0.97c-1.65,0.44-3.29,0.95-4.97,1.53
		c-0.55,0.19-2.92,1.17-3.44,1.38c-0.51,0.23-1.44,0.58-2.14,0.86c-1.07,0.42-2.61,0.83-3.88,1.14l-35.11-4.53
		c-0.21-0.02-0.41,0.04-0.57,0.19c-0.16,0.13-0.25,0.33-0.25,0.54l0.24,145.06c0.01,0.37,0.28,0.68,0.64,0.71l110.15,14.22
		c0.36,0.06,0.7-0.17,0.79-0.53l37.06-140.25C224.29,64.78,224.26,64.57,224.14,64.4"/>
	<path fill="none" d="M224.14,64.4c-0.12-0.17-0.31-0.28-0.51-0.31l-53.05-6.85c-1.02-1.17-1.9-2.02-2.41-2.52
		c-0.74-0.64-2.02-1.81-3.59-2.92c-2.25-1.61-4.04-2.84-7.73-4.6c-0.93-0.43-5.03-2.3-8.8-3.16c-1.34-0.3-3.96-0.93-6.41-1.15
		c-1.11-0.09-3.29-0.16-5.9-0.05c-1.59,0.06-4.52,0.54-5.98,0.87c-1.01,0.23-2.36,0.51-4.06,0.97c-1.65,0.44-3.29,0.95-4.97,1.53
		c-0.55,0.19-2.92,1.17-3.44,1.38c-0.51,0.23-1.44,0.58-2.14,0.86c-1.07,0.42-2.61,0.83-3.88,1.14l-35.11-4.53
		c-0.21-0.02-0.41,0.04-0.57,0.19c-0.16,0.13-0.25,0.33-0.25,0.54l0.24,145.06c0.01,0.37,0.28,0.68,0.64,0.71l110.15,14.22
		c0.36,0.06,0.7-0.17,0.79-0.53l37.06-140.25C224.29,64.78,224.26,64.57,224.14,64.4"/>
	<path fill="none" d="M224.14,64.4c-0.12-0.17-0.31-0.28-0.51-0.31l-53.05-6.85c-1.02-1.17-1.9-2.02-2.41-2.52
		c-0.74-0.64-2.02-1.81-3.59-2.92c-2.25-1.61-4.04-2.84-7.73-4.6c-0.93-0.43-5.03-2.3-8.8-3.16c-1.34-0.3-3.96-0.93-6.41-1.15
		c-1.11-0.09-3.29-0.16-5.9-0.05c-1.59,0.06-4.52,0.54-5.98,0.87c-1.01,0.23-2.36,0.51-4.06,0.97c-1.65,0.44-3.29,0.95-4.97,1.53
		c-0.55,0.19-2.92,1.17-3.44,1.38c-0.51,0.23-1.44,0.58-2.14,0.86c-1.07,0.42-2.61,0.83-3.88,1.14l-35.11-4.53
		c-0.21-0.02-0.41,0.04-0.57,0.19c-0.16,0.13-0.25,0.33-0.25,0.54l0.24,145.06c0.01,0.37,0.28,0.68,0.64,0.71l110.15,14.22
		c0.36,0.06,0.7-0.17,0.79-0.53l37.06-140.25C224.29,64.78,224.26,64.57,224.14,64.4"/>
	<path fill="none" d="M224.14,64.4c-0.12-0.17-0.31-0.28-0.51-0.31l-53.05-6.85c-1.02-1.17-1.9-2.02-2.41-2.52
		c-0.74-0.64-2.02-1.81-3.59-2.92c-2.25-1.61-4.04-2.84-7.73-4.6c-0.93-0.43-5.03-2.3-8.8-3.16c-1.34-0.3-3.96-0.93-6.41-1.15
		c-1.11-0.09-3.29-0.16-5.9-0.05c-1.59,0.06-4.52,0.54-5.98,0.87c-1.01,0.23-2.36,0.51-4.06,0.97c-1.65,0.44-3.29,0.95-4.97,1.53
		c-0.55,0.19-2.92,1.17-3.44,1.38c-0.51,0.23-1.44,0.58-2.14,0.86c-1.07,0.42-2.61,0.83-3.88,1.14l-35.11-4.53
		c-0.21-0.02-0.41,0.04-0.57,0.19c-0.16,0.13-0.25,0.33-0.25,0.54l0.24,145.06c0.01,0.37,0.28,0.68,0.64,0.71l110.15,14.22
		c0.36,0.06,0.7-0.17,0.79-0.53l37.06-140.25C224.29,64.78,224.26,64.57,224.14,64.4"/>
	<path fill="none" d="M224.14,64.4c-0.12-0.17-0.31-0.28-0.51-0.31l-53.05-6.85c-1.02-1.17-1.9-2.02-2.41-2.52
		c-0.74-0.64-2.02-1.81-3.59-2.92c-2.25-1.61-4.04-2.84-7.73-4.6c-0.93-0.43-5.03-2.3-8.8-3.16c-1.34-0.3-3.96-0.93-6.41-1.15
		c-1.11-0.09-3.29-0.16-5.9-0.05c-1.59,0.06-4.52,0.54-5.98,0.87c-1.01,0.23-2.36,0.51-4.06,0.97c-1.65,0.44-3.29,0.95-4.97,1.53
		c-0.55,0.19-2.92,1.17-3.44,1.38c-0.51,0.23-1.44,0.58-2.14,0.86c-1.07,0.42-2.61,0.83-3.88,1.14l-35.11-4.53
		c-0.21-0.02-0.41,0.04-0.57,0.19c-0.16,0.13-0.25,0.33-0.25,0.54l0.24,145.06c0.01,0.37,0.28,0.68,0.64,0.71l110.15,14.22
		c0.36,0.06,0.7-0.17,0.79-0.53l37.06-140.25C224.29,64.78,224.26,64.57,224.14,64.4"/>
	<path fill="none" d="M224.14,64.4c-0.12-0.17-0.31-0.28-0.51-0.31l-53.05-6.85c-1.02-1.17-1.9-2.02-2.41-2.52
		c-0.74-0.64-2.02-1.81-3.59-2.92c-2.25-1.61-4.04-2.84-7.73-4.6c-0.93-0.43-5.03-2.3-8.8-3.16c-1.34-0.3-3.96-0.93-6.41-1.15
		c-1.11-0.09-3.29-0.16-5.9-0.05c-1.59,0.06-4.52,0.54-5.98,0.87c-1.01,0.23-2.36,0.51-4.06,0.97c-1.65,0.44-3.29,0.95-4.97,1.53
		c-0.55,0.19-2.92,1.17-3.44,1.38c-0.51,0.23-1.44,0.58-2.14,0.86c-1.07,0.42-2.61,0.83-3.88,1.14l-35.11-4.53
		c-0.21-0.02-0.41,0.04-0.57,0.19c-0.16,0.13-0.25,0.33-0.25,0.54l0.24,145.06c0.01,0.37,0.28,0.68,0.64,0.71l110.15,14.22
		c0.36,0.06,0.7-0.17,0.79-0.53l37.06-140.25C224.29,64.78,224.26,64.57,224.14,64.4"/>
	<path fill="#FFFFFF" d="M124.58,48.79c3.06-1.16,8.49-2.1,11.03-2.31c3.31-0.28,3.71-0.27,5.87-0.1c2.01,0.14,3.59,0.5,4.34,0.63
		c6.35,1.09,13.42,4.19,18.61,8.71c4.89,4.71,11.8,12.39,11.15,28.99c-0.08,2-0.36,3.09-0.5,3.57c-0.14,0.48-0.81,1.31-1.17,0.22
		c-1.16-3.59-3.07-8.36-5.33-12.94c-0.36-0.76-0.89-0.54-0.82,0.2c0.03,0.31,0.34,4.87,0.29,5.5c-0.05,0.62-0.54,2.1,1.38,5.2
		c0.79,1.28,1.49,2.36,1.68,4.11c0.21,1.76,0.25,2.5,0.23,2.66c-0.01,0.19,0.12,0.71-0.7,0.61c-0.81-0.1-3.87-0.74-5.19-0.88
		c-1.34-0.15-10.59-0.48-14.09-0.22c-3.5,0.27-5.44,0.89-7.43,2.49c-0.48,0.37-1.13,0.71-1.26,0.74c-0.13,0.01-0.57-0.05-1.44-0.23
		c-0.85-0.18-2.38-0.15-3.21,0.09c-0.84,0.24-1.45,0.5-2.35-0.02c-1.29-0.73-3.29-3.56-9.38-4.07c-5.69-0.48-7.08-0.57-13.42-0.18
		c-0.58,0.03-0.93-0.28-0.96-0.87c-0.02-0.57-0.05-1.54,0.07-2.13c0.05-0.22,0.2-0.81,0.53-1.08c0.46-0.42,1.05-0.75,1.43-0.99
		c0.7-0.42,0.75-1.78,0.89-2.53c0.44-2.21,1.17-9.23,6.62-15.33c2.78-3.11,5.55-3.01,8.44-3.11c2.77-0.1,5.87,0.76,7.43,1.49
		c1.24,0.58,1.85,0.97,2.33,0.63c0.48-0.35,1.79-1.47,2.32-1.87c0.54-0.39,0.33-1-0.17-1.4c-0.48-0.38-5.25-4.97-12.35-6.1
		c-6.94-1.1-12.92,0.61-14.48,0.92c-0.31,0.06-0.48,0.1-0.65,0.08c-0.18-0.03-0.76-0.32-0.47-0.72c0.31-0.44,1.02-1.08,1.75-1.58
		c0.75-0.51,4.45-3.17,7.9-4.17c0.63-0.19,0.8-0.28,1.2-0.37c0.51-0.12,0.96-1.19-0.12-1.34c-1.12-0.16-1.58-0.09-2.19-0.08
		c-0.6,0.02-0.89-0.29-0.45-0.74C122.38,49.8,123.18,49.32,124.58,48.79"/>
	<g>
		<defs>
			<path id="SVGID_1_" d="M76.19,45.05c-0.21-0.02-0.41,0.04-0.57,0.19c-0.16,0.13-0.25,0.33-0.25,0.54l0.24,145.06
				c0.01,0.37,0.28,0.68,0.64,0.71l110.15,14.22c0.36,0.06,0.7-0.17,0.79-0.53l37.06-140.25c0.05-0.2,0.01-0.42-0.1-0.59
				c-0.12-0.17-0.31-0.28-0.51-0.31L76.19,45.05"/>
		</defs>
		<clipPath id="SVGID_2_">
			<use xlink:href="#SVGID_1_"  overflow="visible"/>
		</clipPath>
		<g clip-path="url(#SVGID_2_)">
			<path fill="#FFFFFF" d="M103.88,98.14c0.4-0.12,0.94-0.34,1.21-0.43c0.28-0.08,0.95-0.17,0.92,0.78c-0.04,0.96-0.1,2.07,0.6,5.01
				c0.12,0.53,0.15,0.69,0.18,0.89c0.06,0.59-0.67,0.88-1.02,0.55c-0.39-0.36-1.81-2.94-2.31-5.66
				C103.41,99,103.39,98.28,103.88,98.14"/>
			<g>
				<polyline fill="none" points="-40.66,-84.61 -40.66,3662.54 4808.6,3662.54 4808.6,-84.61 				"/>
			</g>
			<g>
				<polyline fill="none" points="-40.66,-84.61 -40.66,3662.54 4808.6,3662.54 4808.6,-84.61 				"/>
			</g>
			<g>
				<polyline fill="none" points="-40.66,-84.61 -40.66,3662.54 4808.6,3662.54 4808.6,-84.61 				"/>
			</g>
			<g>
				<polyline fill="none" points="-40.66,-84.61 -40.66,3662.54 4808.6,3662.54 4808.6,-84.61 				"/>
			</g>
			<g>
				<polyline fill="none" points="-40.66,-84.61 -40.66,3662.54 4808.6,3662.54 4808.6,-84.61 				"/>
			</g>
			<g>
				<polyline fill="none" points="-40.66,-84.61 -40.66,3662.54 4808.6,3662.54 4808.6,-84.61 				"/>
			</g>
			<polygon fill="#B12735" points="183.38,151.96 196.93,203.61 199.39,212.01 203.92,238.6 79.48,222.81 99.46,158.2 
				177.02,148.54 			"/>
			<path fill="#1F1C14" d="M240.82,193.54c-0.12-0.25-10.48-16.22-12.04-18.36c-2.61-3.45-3.32-5.18-6.77-8.97
				c-0.18-0.18-2.44-2.61-4.7-4.25c-2.26-1.61,1.3-1.97-0.86-2.77c-2.42-0.89-8.18-2.86-16.04-4.65c-7.87-1.79-14.3-3.29-15.18-3.51
				c-0.82-0.18-1-0.98-1.7-1.46c-2.53-1.7-7.45-3.66-10.49-5.2c-0.09-0.04-0.16-0.16-0.24-0.22c-20.92,0-41.85,0-62.77,0
				c-0.7,1.59-1.54,3.64-2.34,5.75c-0.28,0.75-0.68,1.72-1.7,2.07c-1.03,0.34-3.34,1.23-4.18,1.56c-0.85,0.33-1.26,0.51-2.32,1.52
				c-0.47,0.45-0.8,0.7-1.1,0.97c-0.17,0.16-0.25,0.26-1.07,0.57c-0.7,0.25-11.01,2.39-22.31,7.37c-1.42,0.64-2.41,0.9-4.12,1.53
				c-1.43,0.53-2.72,0.98-4.27,1.46c-2.42,0.64-8.86,2.78-10.91,3.5c-2.51,0.9-4.44,2.15-6.09,3.35c-0.89,0.78-1.29,0.85-3.38,3.58
				c-1.51,1.92-2.2,3.91-2.21,4.69c0.56,0.47,4.06-4.14,5.98-5.73c2.21-1.85,6.79-3.59,8.27-4.05c1.48-0.47,3.99-0.98,5.65-1.48
				c0,0,4.03-0.98,4.76-1.23l5.92-1.79c0,0,9.35-3.26,10.54-3.67c1.19-0.4,2.72-0.22,3.32,0.02c0.83,0.34,2.79,1.01,3.42,1.33
				c0.64,0.3,0.82,1.59,0.3,2.7c-0.51,1.08-6.97,16.08-8.68,21.18c-2.6,7.81-10.25,15.54-10.25,15.54s-3.31,13.68-4.08,17.21
				l9.39,1.18c0.61-4.32,11.66-28.17,11.66-28.17s1.99-7.61,3.05-11.42c1.06-3.81,6.09-17.81,7.41-20.97
				c0.95-2.3,1.43-3.34,2.31-3.6c0.28-0.08,0.58-0.22,0.76-0.26c0.17-0.05,0.54-0.09,0.35,0.52c-0.23,0.73-1.27,3.7-3.56,13.5
				c-1.58,6.79-2.41,12.89-2.67,16.59c-0.1,1.57-0.37,3.78,2.14,3.14c2.94-0.74,12.91-2.85,18.2-3.75
				c8.51-1.45,24.31-2.76,39.37-2.96c0,0-0.18,14.34-0.13,16.55l-0.13,6.82c0.01,2.54,0.2,5.18,0.22,7.58
				c0.01,2.54,0.02,3.31,0.05,5.91c-0.02,4.56-0.08,7.93,0.02,9.48l5.44,0.67c-0.07-2.72-0.18-10.25-0.46-18.08
				c-0.07-2.32-0.08-4.51-0.17-6.89c-0.07-1.11,0.13-1.25,0.09-2.32l-0.11-2.67c-0.08-2.54-0.6-17.06-0.6-17.06
				c0.6-0.01,1.18,0,1.77,0c1.34,0,2.61,0.01,3.8,0.03c0.24,2.98,0.46,7.89,1.02,14.89l0.19,5.92c0,0.42,0.04,3.97,0.04,5.5
				c0.01,1.31,0.13,4.44,0.13,5.66c-0.02,6.39-0.23,13.53-0.09,15.72l5.14,0.65c0.09-1.34,0.12-6.36-0.01-11.23
				c-0.02-0.85,0-1.95,0.04-2.99c-0.06-1.89-0.07-4.16-0.19-7.05l-0.34-8.68c-0.23-4.24-1.54-18.38-1.54-18.38
				c2.07,0.02,3.81,0.02,5.32,0.02c0,0,1.21,15.12,1.57,18.91l0.17,3.72c0.23,3.28,0.64,6.73,0.74,9.87
				c0.05,1.6,0.13,3.17,0.21,4.67c0.19,4.36,0.37,9.04,0.42,11.93l4.98,0.63c0.09-3.75-0.09-10.82-0.5-17.19
				c-0.13-2.03-0.24-3.55-0.4-5.63c-0.08-1.03-0.12-3.07-0.3-5.35l-0.25-2.15c-0.92-7-2.15-19.37-2.15-19.37
				c1.33,0,3.03,0.03,3.52,0.07c1.04,0.09,1.58-0.44,0.82-0.78c-0.55-0.25-1.85-0.56-2.53-0.67c-0.25-0.04-0.72-0.09-0.99-0.13
				c-1.02-0.15-1.29-0.39-1.3-1.94c-0.05-4.51-1.05-15.8-2.04-21.82c-0.97-5.8-1.18-7.48-1.43-8.76c-0.22-1.09,0.49-1.06,0.83-1
				c1.24,0.22,2.88,1.11,3.23,2.23c0.79,2.52,5.67,23.19,7.69,30.91c1.86,7.06,4.1,16.18,6.07,22.49l0.89,3.5
				c0.42,2.01,0.88,3.53,1.08,4.69c0.42,2.36,0.99,5.48,1.35,7.56c1.14,6.68,1.84,13.98,1.84,13.98s0,0.94,0.22,1.45l5.38,0.53
				c-0.02-1.26-0.51-8.21-1.61-14.38c-0.1-0.56-0.28-1.97-0.37-2.62c-0.3-1.67-0.57-2.73-0.97-4.8c-0.41-2.1-0.83-4.44-1.06-5.17
				c-1.18-3.96-1.98-7.1-2.94-9.88c-0.9-2.6-9.35-31.37-13.41-44.35c-0.12-0.38-0.27-0.98-0.34-1.33c-0.18-0.94,0.86-0.92,1.32-0.81
				c1.59,0.36,16.12,3.29,20.07,4.21c3.96,0.91,7.84,2.19,8.76,2.56c1.26,0.5-2.11,1.05-0.08,2.41
				c7.51,5.01,21.35,27.58,23.79,30.15C241.02,196.01,241.49,194.7,240.82,193.54z"/>
			<path fill="#FFFFFF" d="M127.95,182.94c-2.66,0.07-14,0.5-19.01,0.83c-3.07,0.2-2.58-1.27-2.97-4.09
				c-0.16-1.18,0.08-11.42,1.5-17.67c0.47-2.08,0.65-2.69,1.06-2.87c0.41-0.19,1.03-0.48,1.2-0.51c0.19-0.02,0.72-0.09,0.89,0.39
				c0.19,0.45,3.36,9.87,5.77,13.45c2.15,3.2,3.65,5.51,5.58,7.18c1.11,0.96,1.29-0.42,0.74-1.19c-0.4-0.57-2.07-2.82-4.16-6.82
				c-2.69-5.16-4-12.4-4.31-14.71c-0.31-2.31,0.05-6.54,0.77-7.95c0.7-1.4,1.11-1.18,1.5-0.63c0.39,0.57,4.01,4.84,10.4,8.79
				c1.35,0.84,2.17,1.26,2.33,1.49c0.18,0.24,0.42,0.71-0.21,0.78c-0.64,0.06-2.45-0.11-4.45,0.38c-2,0.49-1.73,1.22-1.77,2.37
				c-0.04,1.05,0.04,1.81-0.01,3.19c-0.06,1.41-0.31,2.64,0.29,3.31c0.6,0.68,1.48,1.13,3.98,0.99c2.38-0.15,3.18-0.24,3.45-0.22
				c0.27,0.03,0.94,0.02,0.44,0.72c-0.5,0.72-2.36,2.96-3.06,4.49c-0.7,1.5-0.86,1.93-0.93,2.19c-0.08,0.27,0.04,0.81,0.59,0.29
				c0.57-0.53,1.8-2.56,4.57-5.03c2.76-2.44,3.94-2.92,4.71-3.17c0.72-0.26,0.84,0.21,0.5,1.26c-0.26,0.78-1.26,3.36-4.39,8.54
				c-1.32,2.21-2.42,4.07-3.68,4.16C128.81,182.92,128.26,182.94,127.95,182.94"/>
			<path fill="#FFFFFF" d="M174.93,183.71c-0.24,0.01-0.61,0.02-0.86,0c-4.57-0.22-16.17-0.61-25.32-0.67
				c-0.16,0-0.31-0.01-0.48-0.01c-0.65,0.01-1-0.15-0.97-0.78c0.04-0.63-0.19-7.47-3.06-12.99c-0.27-0.51,0.28-0.81,0.71-0.59
				c1.25,0.66,4.63,2.79,9.29,7.15c1.19,1.12,1.49,1.46,1.75,1.75c0.27,0.3,1.08,0.49,0.92-0.24c-0.2-0.95-1.68-2.96-5.55-7.64
				c-0.55-0.66-0.53-0.91,0.13-0.88c0.66,0.02,2.42,0.33,3.37,0.42c0.94,0.1,3.06,0.3,3.01-2.49c-0.03-2.18,0.01-4.42,0.07-5.07
				c0.05-0.67,0.1-1.93-1.41-2.31c-1.52-0.37-4.13-0.35-6.54,0.13c-0.66,0.14-0.85-0.18-0.32-0.55c0.52-0.36,4.92-2.45,8.9-5.93
				c4.36-3.86,6.45-6.85,7.79-9.62c0.23-0.48,0.43-0.29,0.63-0.14c0.18,0.16,1.46,1.49,1.57,4.38c0.12,2.89,0.58,6.95-2.53,17.03
				c-1.7,5.53-3.3,8.7-3.68,9.47c-0.37,0.74,0.02,1.25,0.64,0.61c1.44-1.5,3.67-5.89,5.74-10.99c2.42-6.04,3.51-11.18,4-13.79
				c0.19-0.99,0.7-0.66,0.92-0.53c0.24,0.13,1.39,0.64,1.64,3.59c0.24,2.93,1.06,9.21,1.33,28.25
				C176.67,183.64,176.36,183.62,174.93,183.71"/>
			<path fill="#FFFFFF" d="M140.06,178.41c0.07,0.47,0.29,2.71,0.29,3.56c0,0.14,0.01,0.82-0.64,0.89c-0.4,0.04-2.08,0.06-2.33,0.04
				c-0.26-0.04-0.44-0.29-0.31-0.47c0.13-0.15,1.47-1.49,2.45-3.99C139.67,178.04,139.97,177.79,140.06,178.41"/>
			<path fill="#FFFFFF" d="M102.65,94.18c-0.49-1.4-0.68-3.83-0.68-5.38c0.01-1.56,0.32-6.16,0.75-8.64
				c0.43-2.48,0.13-3.93-0.59-5.24c-0.73-1.31-1.2-2.22-1.36-2.64c-0.21-0.54,0.02-0.86,0.6-1.16c0.28-0.15,0.79,0.02,1.21,0
				c0.82-0.06,3.61-0.67,5.81-1.96c2.19-1.29,5.76-3.89,8.05-4.76c2.3-0.88,3.31-1.27,5.86-1.24c0.45,0.01,1.09,0.34,0.26,0.81
				c-0.83,0.47-3.35,1-6.73,4.85c-2.08,2.37-2.55,3.83-3.25,4.92c-0.7,1.09-1.27,1.36-2.27,2.18c-0.48,0.39-1.47,1.22-1.96,2.54
				c-0.48,1.34-2.38,5.99-2.61,13.38c-0.04,0.86,0.16,2.04-0.69,2.35c-0.53,0.18-0.97,0.34-1.4,0.45
				C103.22,94.77,102.86,94.77,102.65,94.18"/>
			<path fill="#FFFFFF" d="M114.62,95.56c0.18-0.03,0.83-0.16,1.37-0.21c0.63-0.08,1.3-0.12,1.65-0.14c0.92-0.04,1.03,0.68,0.4,1.05
				c-0.41,0.25-1.06,0.56-1.65,0.91c-0.89,0.55-1.76,1.18-2.41,1.6c-0.81,0.5-1.94,0.02-1.61-1.07
				C112.54,97.16,113.32,95.8,114.62,95.56"/>
			<path fill="#FFFFFF" d="M120.19,97.52c1.13-0.73,3.34-1.69,4.25-1.67c0.65,0.01,1.81,0.28,2.41,0.94
				c0.64,0.68,0.82,1.49-0.02,1.35c-0.82-0.14-1.7-0.37-3.29,0c-1.78,0.4-2.98,1.06-3.83,1.44c-0.88,0.4-1.76,0.5-2.06,0.48
				c-0.29-0.01-1.32-0.29-0.49-0.95c0.23-0.18,0.7-0.27,1.45-0.67C119.16,98.14,119.56,97.92,120.19,97.52"/>
			<path fill="#FFFFFF" d="M118.33,104.12c0.57-0.62,2.19-2.97,5.55-2.55c1.38,0.17,2.67,0.46,3.13,0.5
				c0.47,0.03,2.12,0.1,3.17-0.43c1.04-0.52,1.37,0,0.74,0.64c-0.64,0.64-1.1,0.97-0.57,1.71c0.52,0.74,0.67,0.88,0.84,1.06
				c0.17,0.18,0.45,0.27,0.85,0c0.4-0.26,0.65-0.4,1.01-0.76c0.27-0.26,0.42,0.07,0.3,0.51c-0.1,0.33-0.24,2.64-3.09,5.11
				c-0.33,0.28-1.89,1.03-2.77,2.41c-0.89,1.38-0.86,1.87-1.01,2.41c-0.14,0.52-0.57,0.68-1.07,0.83c-0.5,0.16-2.33,0.95-3.81,2.15
				c-1.47,1.19-3.17,1.18-4.49-0.28c-1.32-1.47-2.98-3.64-3.55-6.07c-0.19-0.79,0.3-0.84,0.6-0.63c0.29,0.21,1.13,0.86,2.08,1.2
				c0.58,0.2,0.97-0.04,1.16-0.45c0.2-0.4,0.73-1.19-0.08-1.65c-0.8-0.45-3.11-1.54-4.48-5.15c-0.19-0.51,0.11-0.88,0.31-1.01
				c0.19-0.12,0.88-0.42,1.2-0.58c0.33-0.15,0.74-0.07,1.12,0.28c0.39,0.35,1.19,1.13,1.93,1.16
				C118.08,104.54,118.19,104.27,118.33,104.12"/>
			<path fill="#FFFFFF" d="M133.1,112.33c0.2-0.39-1.16-1.17-2.04-0.1c-0.57,0.67-1.01,2.38-0.07,3.77c0.95,1.4,2.09,0.97,2.14,0.65
				c0.07-0.25-0.01-0.89-0.21-1.26C132.72,115.01,132.42,113.71,133.1,112.33"/>
			<path fill="#FFFFFF" d="M146.14,156.13c-1.27,1.58-2.67,3.3-2.71,5.42c-0.04,0.18-0.05,0.32-0.22,0.36
				c-1.14,0.26-2.19-1.13-3.08-1.91c-1.99-1.79-3.83-3.52-5.21-5.76c-2.13-3.44-1.6-5.56-0.33-9.49c0.89-2.77,0.32-5.58,0.17-5.98
				c-0.15-0.4,0.12-0.77,0.69-0.4c0.56,0.37,1.02,1.32,1.53,2.16c0.52,0.83,0.73,0.31,0.84-0.19c0.3-1.22,0.12-2.26,0.05-2.81
				c-0.05-0.33-0.25-1.11-0.87-1.32c-0.83-0.29-1.67-0.48-2.08-0.88c-0.2-0.18-0.4-0.53-0.12-0.73c0.49-0.36,1.2-0.83,1.84-0.96
				c0.85-0.18,1.7-0.5,2.74-0.36c6.99,0.98,9.1-0.39,11.93-1.14c0.55-0.15,0.88-0.22,1.32-0.01c0.43,0.2,1.6,0.82,1.83,1.4
				c0.24,0.59-0.01,2.88,0.37,4.6c0.37,1.73,1.6,0.16,1.91-0.53c0.3-0.67,0.62-2.36,0.68-2.78c0.07-0.42,0.43-2.2,1.08-2.72
				c1.29-1.05,1.73-2.42,1.94-2.97c0.21-0.53,0.55-2.2,0.48-4.64c-0.06-2.41-0.51-2.68-1.09-3.2c-0.59-0.51-1.3-0.42-2.79-1.78
				c-1.34-1.2-2.44-3.15-3.41-4.38c-0.97-1.22-2.57-2.54-4.41-2.98c-1.83-0.44-0.97,1.36-0.86,1.83c0.07,0.33,0.24,1.33-0.36,1.81
				c-0.6,0.48-4.07,2.85-6.96,2.39c-4.62-0.74-6.25-4.06-6.48-5.29c-0.25-1.32,1.2-4.2,1.45-6.34c0.11-0.96,0.16-2.79,0.18-4.06
				c0.03-1.27,0.92-2.89,1.28-3.24c0.36-0.38,1.25-0.6,2.31-0.69c1.06-0.09,2.2,0.58,2.4,1.48c0.68,3.11,1.79,3.89,2.17,4.15
				c0.38,0.25,1.1-0.26,1.37-0.43c0.28-0.19,1-0.9,0.77-1.29c-0.33-0.59-0.53-0.94-0.61-1.29c-0.12-0.59,0.62-0.49,0.78-0.39
				c2.09,1.22,3.13,1.57,5.27,1.79c2.14,0.22,5.64-0.74,6.07-0.7c0.33,0.04,0.96,0.33,1.16,0.7c0.17,0.33,0.48,1.07,0.79,1.2
				c0.31,0.12,1.06,0.16,1.46,0.23c0.54,0.1,1.51,0.03,1.35,1.02c-0.42,2.65-2.74,4.02-2.94,4.15c-0.22,0.14-0.31,0.39-0.28,0.55
				c0.03,0.17,0.18,0.77,0.26,0.94c0.11,0.25,0.39,0.53,0.84,0.34c1.92-0.84,2.82-2,3.8-3.46c0.98-1.47,2.07-6.6,2.23-7.44
				c0.16-0.84,0.5-1.34,0.97-1.63c0.47-0.29,2.71-1.34,3.02-1.37c0.3-0.03,0.65-0.01,0.87,0.81c0.23,0.82,0.34,5.7,0.38,6.46
				c0.06,0.81,0.47,0.76,0.7,0.63c0.49-0.26,0.86-0.62,1.35-1.23c0.5-0.62,0.32-1.61-0.01-2.1c-0.33-0.5-0.86-1.27-0.51-1.93
				c0.82-1.5,2.06-1.24,2.4-1.15c0.33,0.1,1.52,0.86,1.29,4.32c-0.34,5.14-3.12,10.14-3.8,11.41c-1.49,2.83-2,4.81-2.29,5.76
				c-0.3,0.93-0.99,0.65-1.17,0.48c-0.16-0.17-0.28-0.94-0.38-1.08c-0.1-0.12-0.39-0.09-0.69,0.7c-0.3,0.79-1.08,1.84-1.52,2.4
				c-0.29,0.37-0.33,0.96-0.33,1.41c0,0.88,0.01,4.26-0.64,8.01c-1.15,6.68-3.96,10.61-5.92,12.59c-4.64,4.67-8.61,6.36-9.1,6.62
				c-0.62,0.32-1.56,0.13-1.87-0.02c-0.31-0.13-0.55-0.51-1.1-1.03c-0.55-0.51-0.74,0.26-0.76,0.47c-0.02,0.18,0.18,0.92,0.27,1.62
				C147.96,153.56,147.04,155.02,146.14,156.13"/>
			<path fill="#FFFFFF" d="M130.44,126.12c4.04-0.84,10.09-1.49,23.16-0.07c2.6,0.28,2.82-0.08,3.13-0.26
				c0.33-0.18,0.79-0.65,0.79-0.8c-0.01-0.15-0.22-0.74-0.68-0.83c-0.48-0.09-2.04-0.54-3.2-2.26c-1.15-1.72-1.74-2.94-3.09-4.01
				c-0.74-0.57-1.27-0.4-1.46-0.25c-0.19,0.16-2.03,1.63-3.32,1.96c-0.47,0.12-1.34,0.27-1.79,0.91c-0.43,0.64-1.19,1.73-2.82,1.73
				c-1.61-0.01-4.19-0.44-5.76-1.45c-1.3-0.85-3.26-0.47-3.64-0.23c-0.82,0.52-2.04,2.14-2.63,2.57c-0.59,0.44-1.7,1.07-2.52,1.33
				c-0.36,0.1-0.75,0.39-0.52,0.76C126.34,125.57,127.08,126.8,130.44,126.12"/>
			<path fill="#FFFFFF" d="M135.27,130.08c0.85,0.77,1.89,1.13,2.66,1.17c0.62,0.03,4.36-0.22,5.54-0.29
				c1.17-0.07,3.59-0.62,4.42-0.92c0.83-0.3,0.16-0.61-0.02-0.62c-0.18-0.02-0.56-0.05-1.36-0.12c-7.44-0.62-9.61,0.06-10.9,0.08
				C134.93,129.39,135.11,129.92,135.27,130.08"/>
			<path fill="#FFFFFF" d="M155.03,96.57c0.85,0.09,1.86,0.65,2.59,1.35c0.73,0.69,1.89,1.82,2.68,2.3
				c0.38,0.22,1.23,0.47,0.39,0.89c-0.35,0.18-1.38-0.16-1.75-0.37c-0.74-0.41-1.27-0.69-2.27-1.54c-0.66-0.55-1.88-0.94-3.01-0.75
				c-0.74,0.11-1.33,0.23-2.01,0.39c-0.67,0.16-0.72-0.43-0.52-0.66c0.2-0.23,1.36-1.27,2.76-1.59
				C154.17,96.52,154.74,96.54,155.03,96.57"/>
			<path fill="#FFFFFF" d="M158.32,96.02c0.51,0.28,1.32,0.95,1.78,1.38c0.45,0.42,1.7,1.32,2.1,1.38c0.39,0.05,0.7,0.28,1.04-0.51
				c0.3-0.68-0.04-1.54-0.65-2.04c-0.84-0.69-2.01-0.86-3.89-0.84C158.16,95.39,157.97,95.85,158.32,96.02"/>
			<path fill="#FFFFFF" d="M128.55,144.18c-2.63,0.07-9.25-2.86-12.25-14.48c-0.77-2.99,0.86-5.66,2.06-6.07
				c0.7-0.25,1.07-0.33,1.3-0.36c0.25-0.03,1.45-0.02,1.41,1.32c-0.05,1.08,0.86,10.1,3.24,13.35c0.59,0.82,1.14,0.85,1.41,0.13
				c0.25-0.66,0.66-1.52,0.8-1.84c0.1-0.23,0.86-0.89,1.13,0.1c0.54,2.13,1.18,4.88,1.69,6.02
				C129.85,143.44,129.54,144.15,128.55,144.18"/>
			<path fill="#FFFFFF" d="M107.87,94.77c0.5-0.04,2.37-0.12,2.54-0.1c0.18,0.03,0.34,0.12,0.37,0.49c0.02,0.37,0.06,0.78,0.06,0.93
				c-0.01,0.17,0,0.45-0.37,0.46c-0.12,0.01-1.33-0.02-1.99,0.02c-0.41,0.01-0.83,0.1-0.82-0.28c0.01-0.43-0.06-1.03-0.07-1.19
				C107.59,94.93,107.69,94.79,107.87,94.77"/>
			<path fill="#FFFFFF" d="M165.2,95.14c0.18,0,1.92,0.08,2.55,0.09c0.24,0.01,0.36,0.23,0.34,0.44c-0.03,0.22-0.1,0.71-0.12,0.91
				c-0.01,0.19-0.28,0.36-0.53,0.37c-0.24,0-1.89-0.07-2.16-0.08c-0.25-0.03-0.48-0.2-0.48-0.44c0.01-0.24,0.04-0.81,0.04-0.95
				C164.84,95.34,164.86,95.13,165.2,95.14"/>
			<path fill="#FEF1DF" d="M168.18,75.09c-0.25-0.09-0.45,0.16-0.41,0.65c0.03,0.31,0.34,4.87,0.29,5.5
				c-0.05,0.62-0.54,2.1,1.38,5.2c0.79,1.28,1.49,2.36,1.68,4.11c0.21,1.76,0.25,2.5,0.23,2.66c-0.01,0.19,0.12,0.71-0.7,0.61
				c-0.81-0.1-3.87-0.74-5.19-0.88c-1.34-0.15-10.59-0.48-14.09-0.22c-3.5,0.27-5.44,0.89-7.43,2.49c-0.48,0.37-1.13,0.71-1.26,0.74
				c-0.13,0.01-0.57-0.05-1.44-0.23c-0.85-0.18-2.38-0.15-3.21,0.09c-0.84,0.24-1.45,0.5-2.35-0.02c-1.29-0.73-3.29-3.56-9.38-4.07
				c-5.69-0.48-7.08-0.57-13.42-0.18c-0.58,0.03-0.93-0.28-0.96-0.87c-0.02-0.57-0.05-1.54,0.07-2.13c0.05-0.22,0.2-0.81,0.53-1.08
				c0.46-0.42,1.05-0.75,1.43-0.99c0.7-0.42,0.75-1.78,0.89-2.53c0.44-2.21,1.17-9.23,6.62-15.33c2.78-3.11,5.55-3.01,8.44-3.11
				c2.77-0.1,5.87,0.76,7.43,1.49c1.24,0.58,1.85,0.97,2.33,0.63c0.48-0.35,1.79-1.47,2.32-1.87c0.35-0.25,0.39-0.59,0.24-0.91
				v-0.01c1.4-0.92,4.69-3.41,7.29-2.97c2.58,0.45,9.89,2.38,13.7,5.85C167.01,71.21,167.92,74.23,168.18,75.09L168.18,75.09"/>
			<path fill="#FEF1DF" d="M129.15,110.65c-0.06,0.02-0.46,0.26-0.62,0.35c-0.16,0.1-1.09,0.36-1.78,0.49
				c-0.69,0.11-1.35,0.23-2.37,0.33c-0.77,0.07-1.17-0.43-1.24-0.59c-0.01-0.04-0.17-0.32-0.18-0.5c-0.01-0.1,0.02-0.24,0.15-0.32
				c0.08-0.26,0.15-0.39,0.21-0.41c0.28-0.09,0.55-0.13,1.02-0.33c0.48-0.21,1.34-0.74,1.96-1.55c0.61-0.81,0.92-1.55,0.92-2
				c0-0.42-0.12-0.64-0.16-1.2c-0.03-0.57,0.43-0.83,0.71-0.94c0.28-0.09,0.72-0.12,1.34-0.37c0.61-0.25,1.01-0.55,1.21-0.7
				c0.14-0.19,0.36-0.39,0.6-0.62c0.64-0.64,0.3-1.16-0.74-0.64c-1.05,0.53-2.71,0.46-3.17,0.43c-0.46-0.04-1.75-0.33-3.13-0.5
				c-3.36-0.41-4.98,1.93-5.55,2.55c-0.14,0.15-0.25,0.42-0.92,0.4c-0.74-0.03-1.54-0.81-1.93-1.16c-0.39-0.36-0.79-0.43-1.12-0.28
				c-0.32,0.15-1.01,0.46-1.2,0.58c-0.2,0.13-0.5,0.5-0.31,1.01c1.37,3.61,3.68,4.7,4.48,5.15c0.81,0.46,0.28,1.26,0.08,1.65
				c-0.19,0.42-0.58,0.65-1.16,0.45c-0.95-0.34-1.79-0.99-2.08-1.2c-0.3-0.21-0.79-0.16-0.6,0.63c0.57,2.44,2.23,4.6,3.55,6.07
				c1.32,1.46,3.02,1.47,4.49,0.28c1.48-1.2,3.31-1.99,3.81-2.15c0.5-0.15,0.93-0.3,1.07-0.83c0.15-0.54,0.12-1.03,1.01-2.41
				C127.95,111.59,128.59,111.05,129.15,110.65"/>
			<path fill="#FEF1DF" d="M177.13,102.92c0.23-3.47-0.96-4.22-1.29-4.32c-0.34-0.09-1.58-0.35-2.4,1.15
				c-0.35,0.66,0.18,1.44,0.51,1.93c0.33,0.48,0.51,1.47,0.01,2.1c-0.48,0.62-0.86,0.97-1.35,1.23c-0.23,0.13-0.64,0.18-0.7-0.63
				c-0.04-0.76-0.15-5.64-0.38-6.46c-0.22-0.82-0.57-0.83-0.87-0.81c-0.31,0.03-2.55,1.08-3.02,1.37c-0.47,0.29-0.81,0.79-0.97,1.63
				c-0.16,0.85-1.25,5.98-2.23,7.44c-0.98,1.46-1.87,2.62-3.8,3.46c-0.04,0.02-0.1,0.03-0.14,0.05c-0.92,0.29-2.1,0.53-2.45,0.25
				c-0.45-0.37-0.97-0.88-0.8-1.16l0,0c-0.04-0.1-0.04-0.2-0.01-0.28c0.13-0.42,0.75-0.93,0.88-1.06c0.23-0.21,0.59-0.74,0.92-1.27
				c0.29-0.47,0.36-1.16,0.4-1.37c0.09-0.48-0.17-1.09-0.39-1.42c-0.21-0.33-0.14-0.61-0.01-0.76c0.13-0.13,0.32-0.18,0.42-0.2
				c0.12-0.03,0.46-0.02,0.46-0.02h0.02c-0.31-0.15-0.61-0.87-0.77-1.2c-0.2-0.37-0.84-0.66-1.16-0.7c-0.42-0.04-3.93,0.92-6.07,0.7
				c-2.14-0.22-3.18-0.57-5.27-1.79c-0.16-0.1-0.9-0.19-0.78,0.39c0.08,0.35,0.28,0.71,0.61,1.29c0.23,0.39-0.48,1.11-0.77,1.29
				c-0.28,0.17-0.99,0.68-1.37,0.43c-0.38-0.26-1.49-1.04-2.17-4.15c-0.2-0.9-1.33-1.58-2.4-1.48c-1.06,0.09-1.95,0.32-2.31,0.69
				c-0.36,0.36-1.25,1.97-1.28,3.24c-0.02,1.27-0.07,3.1-0.18,4.06c-0.25,2.14-1.7,5.02-1.45,6.34c0.23,1.23,1.87,4.55,6.48,5.29
				c2.89,0.45,6.36-1.91,6.96-2.39c0.6-0.48,0.43-1.48,0.36-1.81c-0.1-0.47-0.96-2.27,0.86-1.83c1.84,0.44,3.44,1.76,4.41,2.98
				c0.96,1.23,2.07,3.18,3.41,4.38c1.49,1.35,2.2,1.26,2.79,1.78c0.59,0.53,1.03,0.79,1.09,3.2c0.07,2.44-0.28,4.11-0.48,4.64
				c-0.21,0.54-0.66,1.92-1.94,2.97c-0.64,0.53-1,2.3-1.08,2.72c-0.06,0.42-0.38,2.11-0.68,2.78c-0.31,0.69-1.54,2.25-1.91,0.53
				c-0.37-1.72-0.13-4.02-0.37-4.6c-0.23-0.58-1.4-1.2-1.83-1.4c-0.43-0.2-0.77-0.14-1.32,0.01c-2.83,0.75-4.94,2.12-11.93,1.14
				c-1.05-0.15-1.89,0.18-2.74,0.36c-0.64,0.13-1.34,0.6-1.84,0.96c-0.28,0.2-0.07,0.55,0.12,0.73c0.42,0.39,1.25,0.59,2.08,0.88
				c0.62,0.21,0.82,0.99,0.87,1.32c0,0.04,0,0.07,0.01,0.09c0,0,0.71,0.02,0.9,0.04c0.19,0.03,1.47,0.12,2.3,0.04
				c0.83-0.09,0.94-0.19,1.05-0.19c0.12,0.03,0.45,0.15,0.59,0.36c0.13,0.2,0.24,0.49,0.18,1.26c-0.05,0.77,0.23,1.1,0.59,1.18
				c0.36,0.08,0.54-0.03,0.87-0.43c0.31-0.39,0.48-0.8,0.6-1.38c0.05-0.18,0.01-0.34,0.03-0.43c0.03-0.08,0.06-0.18,0.65-0.63
				c0.28-0.23,0.51-0.14,0.59-0.11c0.08,0.03,0.09,0.15,0.08,0.23c-0.03,0.05-0.13,0.39-0.15,0.5c-0.02,0.11-0.32,1.33-0.29,3.21
				c0.02,0.97,0.15,1.52,0.16,1.61c0.01,0.1,0.47,0.99,0.61,1.38c0.13,0.4,0.95,2.19,1.24,3.83c0.3,1.64,0.25,1.97,0.25,1.97
				c0.05,0.04,0.09,0.07,0.15,0.12c0.55,0.51,0.79,0.89,1.1,1.03c0.31,0.15,1.26,0.34,1.87,0.02c0.49-0.26,4.46-1.95,9.1-6.62
				c1.97-1.98,4.77-5.91,5.92-12.59c0.64-3.75,0.64-7.13,0.64-8.01c0-0.45,0.04-1.03,0.33-1.41c0.45-0.57,1.23-1.61,1.52-2.4
				c0.29-0.79,0.59-0.82,0.69-0.7c0.1,0.14,0.22,0.91,0.38,1.08c0.17,0.18,0.86,0.45,1.17-0.48c0.29-0.96,0.8-2.94,2.29-5.76
				C174.01,113.06,176.79,108.06,177.13,102.92"/>
			<path fill="#ECCDA0" d="M114.62,95.56c0.18-0.03,0.83-0.16,1.37-0.21c0.63-0.08,1.3-0.12,1.65-0.14c0.92-0.04,1.03,0.68,0.4,1.05
				c-0.41,0.25-1.06,0.56-1.65,0.91c-0.89,0.55-1.76,1.18-2.41,1.6c-0.81,0.5-1.94,0.02-1.61-1.07
				C112.54,97.16,113.32,95.8,114.62,95.56"/>
			<path fill="#ECCDA0" d="M120.19,97.52c1.13-0.73,3.34-1.69,4.25-1.67c0.65,0.01,1.81,0.28,2.41,0.94
				c0.64,0.68,0.82,1.49-0.02,1.35c-0.82-0.14-1.7-0.37-3.29,0c-1.78,0.4-2.98,1.06-3.83,1.44c-0.88,0.4-1.76,0.5-2.06,0.48
				c-0.29-0.01-1.32-0.29-0.49-0.95c0.23-0.18,0.7-0.27,1.45-0.67C119.16,98.14,119.56,97.92,120.19,97.52"/>
			<path fill="#ECCDA0" d="M133.1,112.33c0.2-0.39-1.16-1.17-2.04-0.1c-0.57,0.67-1.01,2.38-0.07,3.77c0.95,1.4,2.09,0.97,2.14,0.65
				c0.07-0.25-0.01-0.89-0.21-1.26C132.72,115.01,132.42,113.71,133.1,112.33"/>
			<path fill="#ECCDA0" d="M155.03,96.57c0.85,0.09,1.86,0.65,2.59,1.35c0.73,0.69,1.89,1.82,2.68,2.3
				c0.38,0.22,1.23,0.47,0.39,0.89c-0.35,0.18-1.38-0.16-1.75-0.37c-0.74-0.41-1.27-0.69-2.27-1.54c-0.66-0.55-1.88-0.94-3.01-0.75
				c-0.74,0.11-1.33,0.23-2.01,0.39c-0.67,0.16-0.72-0.43-0.52-0.66c0.2-0.23,1.36-1.27,2.76-1.59
				C154.17,96.52,154.74,96.54,155.03,96.57"/>
			<path fill="#ECCDA0" d="M158.32,96.02c0.51,0.28,1.32,0.95,1.78,1.38c0.45,0.42,1.7,1.32,2.1,1.38c0.39,0.05,0.7,0.28,1.04-0.51
				c0.3-0.68-0.04-1.54-0.65-2.04c-0.84-0.69-2.01-0.86-3.89-0.84C158.16,95.39,157.97,95.85,158.32,96.02"/>
			<path fill="#ECCDA0" d="M128.55,144.18c-2.63,0.07-9.25-2.86-12.25-14.48c-0.77-2.99,0.86-5.66,2.06-6.07
				c0.7-0.25,1.07-0.33,1.3-0.36c0.25-0.03,1.45-0.02,1.41,1.32c-0.05,1.08,0.86,10.1,3.24,13.35c0.59,0.82,1.14,0.85,1.41,0.13
				c0.25-0.66,0.66-1.52,0.8-1.84c0.1-0.23,0.86-0.89,1.13,0.1c0.54,2.13,1.18,4.88,1.69,6.02
				C129.85,143.44,129.54,144.15,128.55,144.18"/>
			<path fill="#ECCDA0" d="M176.32,168.36c-0.36-9.28-0.85-13.2-1.02-15.33c-0.25-2.95-1.4-3.45-1.64-3.59
				c-0.07-0.05-0.17-0.11-0.28-0.15c-0.1-0.02-0.3-0.08-0.48,0.19c-0.07,0.11-0.13,0.26-0.16,0.48c-0.08,0.43-0.18,0.92-0.29,1.49
				c0.39,3.13,0.66,6.23,0.8,9.03c-0.03,0.28-0.04,0.51-0.03,0.7c0.07,1.23,0.02,5.14-0.24,13.94c-0.18,2.91-0.39,5.96-0.61,8.52
				c0.64,0.02,1.21,0.05,1.7,0.07c0.25,0.02,0.62,0.01,0.86,0c0.99-0.07,1.44-0.07,1.62-0.84c0.08-0.36,0.1-0.85,0.08-1.59
				C176.56,176.09,176.45,171.85,176.32,168.36"/>
			<path fill="#ECCDA0" d="M118.93,85.36c1.27-5.32,2.94-11.47,5.41-15.38c1.9-3.01,1.57-1.97,2.5-3.39
				c0.05-0.08,0.12-0.16,0.14-0.28C127,66.23,127,65.8,127,65.66c-1.86,0.23-3.69,0.88-5.54,2.94c-5.44,6.1-6.18,13.12-6.62,15.33
				c-0.14,0.75-0.19,2.11-0.89,2.53c-0.39,0.24-0.97,0.58-1.43,0.99c-0.33,0.28-0.47,0.86-0.53,1.08c-0.12,0.59-0.09,1.56-0.07,2.13
				c0.03,0.59,0.38,0.9,0.96,0.87c2.25-0.14,3.86-0.23,5.28-0.25C118.57,89.56,118.79,87.18,118.93,85.36"/>
			<path fill="#ECCDA0" d="M162.43,123.45c0.41-1.29,0.23-1.98-0.1-2.8c-0.33-0.83-1.06-1.67-2.02-2.51
				c-0.94-0.82-2.99-3.19-3.18-3.4c-0.19-0.22-1.14-1.39-1.37-1.63c-0.23-0.24-0.69-0.73-1.72-1.44c-2.51-1.72-4.82-1-4.91-0.96
				c-0.09,0.04-0.53,0.31-0.96,0.62c-0.43,0.31-0.23,1.04-0.13,1.3l0.03,0.04c0.03-0.42,0.28-0.72,1.16-0.51
				c1.84,0.44,3.44,1.76,4.41,2.98c0.96,1.23,2.07,3.18,3.41,4.38c1.49,1.35,2.2,1.26,2.79,1.78c0.59,0.53,1.03,0.79,1.09,3.2
				c0.01,0.28,0.01,0.54,0.01,0.79l0.01,0.01C160.94,125.3,162.07,124.5,162.43,123.45"/>
			<path fill="#ECCDA0" d="M133.35,104.8c0.12-0.45-0.03-0.77-0.3-0.51c-0.36,0.36-0.61,0.5-1.01,0.76
				c-0.23,0.15-0.42,0.19-0.57,0.16h-0.01c0,0-0.02,0.15-0.06,0.4c-0.23,1.17-1.04,2.29-1.67,2.88c-0.86,0.79-2.24,1.24-3.03,1.49
				c-0.8,0.24-2.02,0.33-2.09,0.33c-0.07,0.01-0.47,0.01-0.54,0.01c-0.06,0-0.19,0.02-0.37,0.03c-0.18,0.02-0.37-0.01-0.48,0.02
				c-0.23,0.06-0.28,0.24-0.26,0.37c0.01,0.19,0.17,0.47,0.18,0.5c0.06,0.17,0.47,0.66,1.24,0.59c1.02-0.1,1.68-0.22,2.37-0.33
				c0.69-0.13,1.62-0.4,1.78-0.49c0.16-0.09,0.56-0.33,0.62-0.35c0.51-0.36,0.96-0.61,1.11-0.75
				C133.11,107.44,133.25,105.13,133.35,104.8"/>
			<path fill="#ECCDA0" d="M122.15,116.28c0,0-0.39-0.61-0.86-1.39c-0.28-0.47-0.59-1.01-0.86-1.53c-0.2-0.37-0.33-0.65-0.43-0.89
				c-0.19-0.45-0.25-0.74-0.27-0.91c-0.01-0.01-0.01-0.02-0.01-0.04c-0.07-0.29-0.09-0.74-0.09-0.74c-0.69-0.19-1.41-0.45-2.06-0.78
				c0.42,0.45,0,1.11-0.18,1.46c-0.19,0.42-0.58,0.65-1.16,0.45c-0.95-0.34-1.79-0.99-2.08-1.2c-0.3-0.21-0.79-0.16-0.6,0.63
				c0.22,0.88,0.55,1.72,0.97,2.51c0.4,0.74,0.85,1.43,1.33,2.05c0.42,0.56,0.85,1.08,1.25,1.52c0.15,0.16,0.29,0.3,0.46,0.43
				c0.66,0.57,1.4,0.78,2.15,0.71c0.64-0.07,1.29-0.36,1.88-0.85c0.58-0.48,1.21-0.88,1.8-1.21
				C123.06,116.59,122.57,116.71,122.15,116.28"/>
			<path fill="#ECCDA0" d="M159.8,110.67c-0.08-0.17-0.23-0.77-0.26-0.94c-0.03-0.15,0.04-0.34,0.19-0.48
				c-0.39,0.21-0.86,0.39-1.5,0.5c-0.48,0.08-0.78,0.2-0.93,0.32c-0.31,0.28,0.25,0.85,0.74,1.24c0.36,0.29,1.54,0.05,2.47-0.25
				C160.13,111.15,159.91,110.89,159.8,110.67"/>
			<path fill="#ECCDA0" d="M137.36,115.53c-0.06-0.21-0.36-0.97-0.45-1.44c-0.09-0.48-0.12-0.77-0.09-1.24
				c-0.07-0.37-0.07-1.06,0.07-1.69c0.12-0.55,0.31-1.16,0.91-2.91c0.39-1.15,0.21-2.54,0.36-3.8c0.12-0.96,0.34-3.36,0.69-5.76
				c-0.64,0.12-1.15,0.3-1.4,0.57c-0.36,0.36-1.25,1.97-1.28,3.24c-0.02,1.27-0.07,3.1-0.18,4.06c-0.25,2.14-1.7,5.02-1.45,6.34
				c0.16,0.9,1.06,2.86,3.27,4.16c-0.18-0.25-0.19-0.3-0.22-0.6C137.56,116.15,137.42,115.76,137.36,115.53"/>
			<path fill="#FFFFFF" d="M131.66,180.87c-0.12,0.17-0.23,0.32-0.33,0.47C131.44,181.19,131.55,181.04,131.66,180.87"/>
			<path fill="#FFFFFF" d="M130.66,182.15c-0.04,0.04-0.1,0.08-0.13,0.12C130.56,182.23,130.62,182.19,130.66,182.15"/>
			<path fill="#FFFFFF" d="M131.16,181.58c-0.05,0.05-0.09,0.12-0.15,0.18C131.06,181.69,131.11,181.62,131.16,181.58"/>
			<path fill="#FFFFFF" d="M130.83,181.96c-0.05,0.06-0.11,0.12-0.15,0.16C130.72,182.08,130.78,182.02,130.83,181.96"/>
			<path fill="#FFFFFF" d="M130.99,181.78c-0.05,0.06-0.09,0.12-0.14,0.17C130.9,181.89,130.94,181.84,130.99,181.78"/>
			<path fill="#FFFFFF" d="M131.32,181.34c-0.04,0.07-0.1,0.13-0.15,0.2C131.22,181.48,131.28,181.42,131.32,181.34"/>
			<path fill="#FFFFFF" d="M136.89,168.92c-0.1,0.02-0.21,0.06-0.33,0.11c0.02-0.01,0.04-0.02,0.06-0.03
				C136.72,168.97,136.8,168.95,136.89,168.92"/>
			<path fill="#FFFFFF" d="M130.49,182.3c-0.05,0.04-0.1,0.09-0.15,0.13C130.4,182.39,130.44,182.35,130.49,182.3"/>
			<path fill="#FFFFFF" d="M129.47,182.87c-0.05,0-0.1,0.01-0.15,0.01C129.37,182.89,129.42,182.87,129.47,182.87"/>
			<path fill="#FFFFFF" d="M127.63,182.95c-0.03,0-0.05,0.01-0.08,0.01C127.59,182.96,127.6,182.95,127.63,182.95"/>
			<path fill="#FFFFFF" d="M131.67,180.86c0.42-0.62,0.86-1.35,1.33-2.14c-0.33,0.59-0.67,1.14-1,1.64
				C131.88,180.54,131.78,180.71,131.67,180.86"/>
			<path fill="#FFFFFF" d="M127.82,182.94c-0.04,0-0.08,0.01-0.1,0.01C127.74,182.95,127.78,182.95,127.82,182.94"/>
			<path fill="#FFFFFF" d="M130.16,182.57c-0.05,0.04-0.1,0.07-0.15,0.08C130.06,182.63,130.11,182.6,130.16,182.57"/>
			<path fill="#FFFFFF" d="M129.65,182.82c-0.05,0.02-0.09,0.03-0.15,0.03C129.56,182.85,129.61,182.84,129.65,182.82"/>
			<path fill="#FFFFFF" d="M130.32,182.44c-0.04,0.04-0.08,0.06-0.13,0.1C130.24,182.5,130.28,182.48,130.32,182.44"/>
			<path fill="#FFFFFF" d="M130,182.67c-0.06,0.03-0.1,0.06-0.14,0.07C129.9,182.73,129.94,182.7,130,182.67"/>
			<path fill="#FFFFFF" d="M129.82,182.75c-0.05,0.03-0.1,0.04-0.15,0.07C129.72,182.79,129.76,182.78,129.82,182.75"/>
			<path fill="#ECCDA0" d="M136.89,168.92c-0.09,0.02-0.17,0.05-0.27,0.08c-0.02,0.01-0.04,0.02-0.06,0.03
				c-0.67,0.25-1.62,0.74-3.35,2.18c-0.05,0.02-0.09,0.05-0.13,0.11c0.51-0.09,1.2-0.24,1.4-0.18c0.11,0.04-0.51,0.55-0.92,1.11
				c-0.41,0.57-3.2,6.2-5.49,9.12c-0.79,1.21-0.44,0.71-0.93,1.6c0.15-0.01,0.3-0.02,0.42-0.02c0.03,0,0.36-0.02,0.4-0.02
				c0.31-0.01,0.86-0.02,1.37-0.06c0.05,0,0.1-0.01,0.15-0.01c0.02-0.01,0.03-0.01,0.04-0.02c0.05,0,0.1-0.01,0.15-0.03h0.01
				c0.05-0.03,0.1-0.04,0.15-0.07c0.01,0,0.03-0.01,0.04-0.01c0.04-0.01,0.08-0.04,0.14-0.07c0.01-0.02,0.01-0.02,0.01-0.02
				c0.05-0.02,0.1-0.05,0.15-0.08c0.01,0,0.02-0.02,0.03-0.03c0.05-0.04,0.09-0.06,0.13-0.1c0.01-0.01,0.01-0.01,0.02-0.01
				c0.05-0.04,0.1-0.08,0.15-0.13c0.01,0,0.02-0.02,0.03-0.04c0.04-0.04,0.09-0.08,0.13-0.12c0.01-0.01,0.01-0.02,0.02-0.03
				c0.04-0.04,0.1-0.1,0.15-0.16c0-0.02,0.01-0.02,0.01-0.02c0.06-0.05,0.1-0.11,0.15-0.17c0.01-0.01,0.12-0.15,0.16-0.2
				c0.01-0.01,0.17-0.24,0.18-0.24c0.1-0.15,0.22-0.29,0.33-0.47c0.01,0,0.01,0,0.01-0.01c0.11-0.15,0.22-0.32,0.33-0.5
				c0.32-0.5,0.66-1.05,1-1.64c3.12-5.18,4.12-7.76,4.39-8.54C137.73,169.13,137.61,168.66,136.89,168.92"/>
			<path fill="#ECCDA0" d="M153.61,178.51c0.6,0.38,2.34,0.27,3.21-0.73c-0.01,0-0.02,0.02-0.03,0.02
				c-0.23,0.11-0.62-0.04-0.79-0.22c-0.26-0.3-0.56-0.63-1.75-1.75c-4.66-4.36-8.05-6.49-9.29-7.15c-0.43-0.22-0.98,0.07-0.71,0.59
				c0.28,0.53,0.51,1.06,0.74,1.59c1.56,1.59,3.52,3.7,4.43,4.68C151.1,177.01,151.7,177.38,153.61,178.51"/>
			<path fill="#ECCDA0" d="M120.18,166.68c0.23,1.68,0.42,4.54,2.47,5.08c1.58,0.42,5.34-0.11,7.32-0.24
				c0.45-0.61,0.84-1.11,1.03-1.37c0.5-0.7-0.17-0.68-0.44-0.72c-0.28-0.02-1.07,0.07-3.45,0.22c-2.5,0.14-3.38-0.31-3.98-0.99
				c-0.59-0.67-0.34-1.9-0.29-3.31c0.05-1.38-0.03-2.14,0.01-3.19c0.02-0.65-0.06-1.18,0.25-1.59c-0.48-0.04-0.85,0.13-1.4,0.23
				C119.18,161.81,120.2,164.74,120.18,166.68"/>
			<path fill="#ECCDA0" d="M118.48,155.26c0.18,0.24,2.04,1.99,2.19,2.11c0.13,0.12,2.2,1.66,3.46,2.56c0.15-0.06,0.3-0.1,0.49-0.15
				c1.99-0.49,3.81-0.32,4.45-0.38c0.63-0.06,0.39-0.54,0.21-0.78c-0.16-0.23-0.99-0.65-2.33-1.49c-6.39-3.94-10.01-8.22-10.4-8.79
				c-0.39-0.56-0.8-0.77-1.5,0.63c-0.25,0.48-0.45,1.32-0.61,2.27c1.08,1.27,2.82,2.83,3.09,3.08
				C117.64,154.43,118.33,155.05,118.48,155.26"/>
			<path fill="#FFFFFF" d="M117.55,154.35c0.03,0.03,0.02,0.01-0.03-0.02C117.51,154.32,117.51,154.32,117.55,154.35"/>
			<path fill="#ECCDA0" d="M111.55,171.92c0.07,0.16,0.42,0.64,0.82,1.26c0.4,0.58,0.75,1.11,0.85,1.24
				c0.09,0.16,0.86,1.2,1.07,1.45c0.19,0.23,0.41,0.7,0.59,0.91c0.58,0.68,2.73,3.12,2.93,3.32c0.22,0.22,1.27,1.16,1.48,1.2
				c2.05,0.56,3.23-0.47,3.49-0.76c0.26-0.32,0.32-0.45,0.26-0.96c-0.08,0.4-0.4,0.6-1.03,0.06c-1.93-1.67-3.44-3.98-5.58-7.18
				c-2.41-3.58-5.59-13-5.77-13.45c-0.18-0.48-0.71-0.4-0.89-0.39c-0.17,0.03-0.8,0.32-1.2,0.51c-0.41,0.18-0.59,0.79-1.06,2.87
				l-0.01,0.02c0.39,1.16,1.55,4.56,1.97,5.66C109.94,169,111.48,171.79,111.55,171.92"/>
			<path fill="#FFFFFF" d="M69.17,222.04c0.77-3.53,4.06-17.14,4.06-17.14s7.66-7.73,10.25-15.54c1.7-5.1,8.17-20.11,8.68-21.18
				c0.51-1.1,0.33-2.4-0.3-2.7c-0.64-0.32-2.6-0.99-3.42-1.33c-0.59-0.23-2.13-0.42-3.32-0.02c-1.2,0.41-10.54,3.67-10.54,3.67
				l-5.92,1.79c-0.74,0.25-4.76,1.23-4.76,1.23c-1.66,0.51-4.17,1.02-5.65,1.48c-1.48,0.46-6.06,2.2-8.27,4.05
				c-1.92,1.59-5.42,6.2-5.98,5.73L33.69,217.3L69.17,222.04"/>
			<path fill="#B12735" d="M163.36,233.83c-0.13-2.19,0.07-9.39,0.09-15.76c0-1.24-0.12-4.36-0.12-5.68c0-1.52,5.26-5.26,5.26-5.68
				l-0.19-5.92c-0.56-7-0.78-11.91-1.02-14.89c-1.19-0.02-2.46-0.03-3.8-0.03c-0.58,0-1.16-0.01-1.76,0c0,0,0.52,14.53,0.6,17.06
				l0.11,2.67c0.04,1.07-5.47,1.4-5.39,2.5c0.08,2.4,0.09,4.58,0.17,6.9c0.28,7.82,0.39,15.37,0.45,18.09L163.36,233.83"/>
			<path fill="#B12735" d="M174.9,235.27c-0.06-2.9-0.22-7.63-0.42-11.99c-0.07-1.49-0.16-3.06-0.2-4.68
				c-0.11-3.14-0.51-6.58-0.74-9.86l5.13-3.9c-0.36-3.78-1.57-18.91-1.57-18.91c-1.51,0-3.26,0-5.32-0.02c0,0,1.31,14.14,1.54,18.38
				l-4.97,8.86c0.13,2.89,0.13,5.16,0.19,7.07c-0.03,1.03-0.06,2.13-0.02,2.97c0.12,4.87,0.09,9.89,0.01,11.22L174.9,235.27"/>
			<path fill="#FFFFFF" d="M206.21,238.25c-0.02-1.26-0.5-8.21-1.6-14.38c-0.1-0.56-0.28-1.97-0.37-2.62
				c-0.3-1.67-0.58-2.74-0.97-4.8c-0.41-2.1-0.83-4.44-1.06-5.17c-1.18-3.96-1.98-7.1-2.94-9.88c-0.9-2.6-9.35-31.37-13.41-44.35
				c-0.12-0.38-0.26-0.98-0.33-1.33c-0.18-0.94,0.86-0.92,1.32-0.81c1.59,0.36,16.12,3.29,20.07,4.21c3.96,0.91,7.84,2.19,8.76,2.56
				c1.26,0.5-1.69,0.95,0.19,2.5c10.89,9.01,39.16,51.21,39.16,51.21l-7.12,29.33L206.21,238.25"/>
			<path fill="#FFFFFF" d="M117.55,154.35c0.03,0.03,0.02,0.01-0.03-0.02C117.51,154.32,117.51,154.32,117.55,154.35"/>
			<path fill="#ECCDA0" d="M73.23,204.89c0,0,7.66-7.73,10.25-15.54c1.7-5.1,8.17-20.11,8.68-21.18c0.51-1.1,0.33-2.4-0.3-2.7
				c-0.45-0.21-1.54-0.62-2.44-0.95c-1.7,2.06-4.2,9.55-5.44,13.04c-2.06,4.29-18.9,36.95-19.18,43.14l-0.29,1.23l5.4,0.39
				c0.01-0.02,0.01-0.09,0.02-0.13l-0.78-0.09C69.92,218.58,73.23,204.89,73.23,204.89"/>
			<path fill="#FFFFFF" d="M161.81,185.86c0,0,0.53,14.53,0.61,17.06l0.11,2.67c0.06,1.51-0.19,0.77-0.09,2.32
				c0.09,2.39,0.09,4.57,0.17,6.89c0.28,7.82,0.39,15.36,0.46,18.08l-5.44-0.67c-0.1-1.54-0.04-4.92-0.02-9.48
				c-0.04-2.6-0.04-3.38-0.06-5.91c-0.02-2.41-0.21-5.04-0.22-7.58l0.13-6.82c-0.04-2.21,0.13-16.55,0.13-16.55L161.81,185.86"/>
			<path fill="#FFFFFF" d="M171.77,185.9c0,0,1.31,14.14,1.54,18.38l0.34,8.68c0.12,2.9,0.13,5.16,0.19,7.05
				c-0.04,1.04-0.06,2.14-0.04,2.99c0.12,4.87,0.09,9.89,0.01,11.23l-5.14-0.65c-0.14-2.19,0.07-9.33,0.09-15.72
				c0.01-1.22-0.12-4.35-0.13-5.66c0-1.52-0.04-5.08-0.04-5.5l-0.19-5.92c-0.56-7-0.78-11.91-1.02-14.89L171.77,185.9"/>
			<path fill="#FFFFFF" d="M181.6,185.95c0,0,1.23,12.37,2.15,19.37l0.25,2.15c0.19,2.28,0.23,4.32,0.3,5.35
				c0.16,2.1,0.27,3.6,0.4,5.62c0.41,6.39,0.58,13.45,0.5,17.2l-4.98-0.63c-0.05-2.89-0.22-7.57-0.42-11.93
				c-0.07-1.5-0.16-3.07-0.21-4.67c-0.1-3.15-0.51-6.59-0.72-9.87l-0.18-3.72c-0.37-3.78-1.59-18.91-1.59-18.91L181.6,185.95"/>
			<path fill="#1F1C14" d="M153.34,170.37v-0.31h1.55v0.31h-0.6v1.51h-0.37v-1.51H153.34z M155.71,170.06l0.46,1.31l0.47-1.31h0.51
				v1.82h-0.33v-1.46l-0.49,1.46h-0.29l-0.51-1.46v1.46h-0.34v-1.82H155.71z"/>
			<path fill="#FFFFFF" d="M170.07,227.51c2.34-0.01,5.26-0.65,7.58-1.42l-1.38,5.94c-2.9,0.57-6.16,1.07-9.98,1.08
				c-11.95,0.06-17.09-6.08-17.12-12.45c-0.02-8.54,9.15-17.04,23.92-16.84c3.13,0.05,6.12,0.62,8.12,1.26l-1.95,7h-0.99
				c-1.22-1.6-3.07-2.8-6.74-2.8c-7.47,0-12.11,4.1-12.09,9.56C159.45,223.77,163.7,227.54,170.07,227.51"/>
			<path fill="#FFFFFF" d="M126.89,204.09l-0.46,1.86c0,0,2.83,0.3,1.96,3.12l-6.44,23.41l12.88,0.02l0.48-2.01
				c0,0-2.4-0.57-1.78-2.8c0.05-0.19,1.88-6.94,1.88-6.94l5.91-0.02c2.93,0.02,3.9,1.54,3.9,1.54l1.72-6.95H137l1.47-5.46l8.64-0.01
				c1.58,0,2.71,1.06,2.71,1.84h0.97l1.9-7.61H126.89"/>
			<path fill="#FFFFFF" d="M117.13,228.3c-0.77-0.81-7.4-11.14-7.4-11.14l12.12-9.7c2.04-1.7,3.49-1.51,3.49-1.51l0.48-1.87
				l-15.07,0.01l-0.47,1.86c1.03,0.06,2.46,0.97,1.29,2.06c-0.15,0.13-12.11,9.27-12.11,9.27l2.58-9.33c0.53-1.81,2.46-2,2.46-2
				l0.47-1.86l-14.38,0.01l-0.47,1.86c0.69,0.17,2.65,0.55,1.97,3.13c-4.81,17.35-4.25,15.63-4.57,16.58c-1.32,5-3.44,4.75-4.2,4.81
				l-0.5,2.02h15.04l0.51-2.03c0,0-2.39-0.48-1.93-2.21c0.45-1.7,2.34-8.54,2.34-8.54c2.6,4.2,3.21,4.71,6.36,9.02
				c3.14,4.33,6.5,3.77,15.39,3.77l0.5-2.01C119.14,230.5,117.89,229.11,117.13,228.3"/>
			<polyline fill="none" points="-40.66,-84.61 -40.66,3662.54 4808.6,3662.54 4808.6,-84.61 			"/>
		</g>
	</g>
	<g>
		<path fill="#FFFFFF" d="M170.1,232c3.67-0.02,7.5-1.16,8.97-1.66c-1.55,0.51-3.25,0.16-4.45-0.93c-1.21-1.1-1.73-2.76-1.36-4.35
			l-1.38,5.94c0.4-1.73,1.78-3.06,3.52-3.4c-2.49,0.5-5.51,0.99-9.13,1c-4.8,0.03-8.47-1.09-10.62-3.21c-1.64-1.61-1.99-3.49-2-4.77
			c-0.01-2.37,1.14-4.81,3.23-6.88c3.59-3.55,9.48-5.54,16.13-5.44c2.75,0.04,5.32,0.57,6.81,1.04c-2.3-0.73-3.6-3.16-2.95-5.48
			l-1.96,7c0.55-1.94,2.31-3.28,4.33-3.28h-0.99c1.4,0,2.72,0.65,3.57,1.76c-2.34-3.07-5.71-4.57-10.31-4.57
			c-5.2,0-9.73,1.67-12.75,4.7c-2.48,2.48-3.84,5.82-3.83,9.37c0.01,3.35,1.33,6.5,3.71,8.87C161.45,230.5,165.52,232.03,170.1,232
			 M163.92,218.81c0-1.17,0.4-2.18,1.2-2.99c1.33-1.32,3.59-2.06,6.39-2.06c2.38,0,2.87,0.65,3.17,1.03
			c0.85,1.12,2.17,1.76,3.58,1.76h0.99c2.02,0,3.78-1.34,4.33-3.28l1.95-7c0.65-2.33-0.65-4.75-2.95-5.49
			c-2.77-0.89-6.22-1.43-9.44-1.47c-9.19-0.13-17.21,2.73-22.58,8.04c-3.82,3.78-5.91,8.5-5.89,13.3c0.01,4.22,1.67,8.17,4.65,11.12
			c2.7,2.68,7.84,5.86,16.98,5.81c4.39-0.01,8.09-0.63,10.82-1.16c1.73-0.35,3.11-1.67,3.51-3.4l1.38-5.94
			c0.37-1.58-0.15-3.24-1.35-4.34c-1.2-1.09-2.91-1.45-4.45-0.94c-2.15,0.72-4.57,1.19-6.18,1.2c-2.16,0.01-3.97-0.59-5.07-1.68
			C164.28,220.64,163.92,219.8,163.92,218.81"/>
		<path fill="#FFFFFF" d="M122.53,203l-0.46,1.85c-0.33,1.26-0.07,2.6,0.67,3.67c0.75,1.06,1.91,1.76,3.2,1.9
			c-0.57-0.06-1.05-0.38-1.44-0.96c-0.48-0.71-0.48-1.46-0.4-1.71c-0.04,0.13-6.48,23.54-6.48,23.54c-0.37,1.35-0.1,2.8,0.75,3.91
			c0.84,1.12,2.17,1.77,3.57,1.77l12.88,0.02c2.08,0.01,3.89-1.42,4.38-3.44l0.48-2.01c0.28-1.16,0.08-2.38-0.54-3.4
			c-0.62-1.02-1.62-1.75-2.79-2.02c0.2,0.04,0.74,0.17,1.19,0.94c0.41,0.7,0.42,1.43,0.3,1.84c0.02-0.08,1.9-6.98,1.9-6.98
			c-0.53,1.95-2.3,3.31-4.32,3.31l5.9-0.01c0.46,0,0.67,0.09,0.67,0.09c-0.03-0.02-0.25-0.13-0.58-0.64
			c0.96,1.53,2.74,2.32,4.52,2.02c1.78-0.29,3.2-1.61,3.63-3.35l1.72-6.95c0.33-1.35,0.02-2.76-0.83-3.85
			c-0.85-1.1-2.16-1.73-3.54-1.73H137c1.4,0,2.72,0.65,3.57,1.76c0.85,1.11,1.13,2.55,0.77,3.9l1.47-5.45
			c-0.53,1.96-2.3,3.32-4.33,3.32l8.64-0.01c-0.85,0-1.79-1.13-1.79-2.65c0,2.48,2.02,4.49,4.49,4.49h0.97c2.06,0,3.86-1.4,4.36-3.4
			l1.91-7.6c0.33-1.34,0.03-2.77-0.82-3.86c-0.85-1.1-2.16-1.73-3.55-1.73h-25.81C124.83,199.6,123.03,201,122.53,203 M148.34,203
			l-1.9,7.6c0.5-2,2.3-3.4,4.36-3.4h-0.97c2.48,0,4.49,2.01,4.49,4.49c0-3.44-3.3-6.34-7.2-6.34c-0.01,0-8.65,0.01-8.65,0.01
			c-2.03,0.01-3.81,1.37-4.34,3.32l-1.47,5.46c-0.36,1.35-0.08,2.79,0.77,3.9c0.85,1.11,2.17,1.76,3.57,1.76h9.94
			c-1.38,0-2.68-0.63-3.53-1.72c-0.86-1.09-1.16-2.51-0.83-3.85l-1.71,6.95c0.43-1.75,1.86-3.07,3.64-3.36
			c1.77-0.29,3.55,0.51,4.52,2.03c-1.1-1.74-3.7-3.6-7.67-3.63c-0.04,0-5.95,0.02-5.95,0.02c-2.02,0.01-3.79,1.36-4.32,3.31
			l-1.9,7.01c-0.48,1.7-0.26,3.52,0.62,5.05c1.38,2.34,3.77,3.07,4.46,3.24c-1.16-0.28-2.16-1.01-2.79-2.02
			c-0.62-1.02-0.81-2.24-0.54-3.4l-0.48,2.01c0.49-2.03,2.3-3.44,4.38-3.44l-12.88-0.02c1.4,0,2.72,0.66,3.57,1.77
			c0.85,1.11,1.13,2.57,0.76,3.91l6.44-23.41c0.61-2,0.37-4.09-0.72-5.76c-1.3-1.97-3.48-2.85-5.09-3.02
			c1.3,0.13,2.46,0.83,3.21,1.89c0.74,1.07,0.98,2.4,0.67,3.66l0.47-1.85c-0.5,2-2.3,3.4-4.36,3.4h25.81
			c-1.38,0-2.69-0.63-3.55-1.73C148.3,205.77,148,204.34,148.34,203"/>
		<path fill="#FFFFFF" d="M120.4,225.22c0.08,0.09,0.06,0.05,0.14,0.15c-0.62-0.79-4.06-6.03-7.02-10.64
			c1.24,1.93,0.82,4.49-0.97,5.93l12.12-9.7c0.58-0.48,0.87-0.56,0.87-0.56c-0.01,0-0.25,0.06-0.77-0.01
			c2.25,0.29,4.37-1.14,4.94-3.35l0.47-1.87c0.34-1.35,0.04-2.78-0.81-3.87c-0.85-1.1-2.16-1.74-3.55-1.73l-15.07,0.01
			c-2.06,0-3.85,1.4-4.35,3.4l-0.47,1.85c-0.32,1.3-0.05,2.68,0.74,3.76c0.79,1.08,2.03,1.75,3.36,1.82
			c-1.19-0.07-1.97-1.11-2.29-1.99c-0.53-1.48-0.01-3,0.78-3.73c-0.27,0.2-7.22,5.52-11.78,9c1.54-1.17,3.65-1.23,5.25-0.15
			c1.61,1.08,2.33,3.06,1.82,4.92l2.57-9.33c-0.07,0.25-0.39,1.16-1.4,1.27c1.88-0.19,3.44-1.54,3.89-3.38l0.47-1.86
			c0.33-1.35,0.04-2.77-0.82-3.86c-0.85-1.09-2.16-1.73-3.54-1.73l-14.38,0.01c-2.06,0-3.86,1.4-4.36,3.41l-0.47,1.85
			c-0.29,1.16-0.11,2.39,0.5,3.41c0.62,1.02,1.62,1.76,2.77,2.04c0.15,0.04,0.22,0.05,0.25,0.06c-0.95-0.29-1.69-1.68-1.53-2.46
			c0.01-0.02-4.15,15.14-4.15,15.14c-0.25,0.91-0.25,0.91-0.3,1.09c-0.5,1.84-0.86,2.28-0.86,2.28c0.16-0.18,0.61-0.42,0.97-0.44
			c-1.94,0.15-3.97,1.54-4.43,3.42l-0.5,2.01c-0.34,1.34-0.03,2.76,0.82,3.85c0.85,1.09,2.16,1.72,3.54,1.72h15.04
			c2.06,0,3.86-1.4,4.36-3.39l0.51-2.02c0.3-1.2,0.1-2.47-0.56-3.5c-0.66-1.04-1.72-1.77-2.93-2c0.59,0.12,1.06,0.82,1.15,0.96
			c0.44,0.71,0.59,1.61,0.39,2.39c-0.01,0.01,2.33-8.49,2.33-8.49c-0.47,1.73-1.92,3-3.69,3.26c-1.76,0.26-3.52-0.57-4.46-2.09
			c1.95,3.15,2.86,4.36,4.36,6.37l2.19,2.94c4.14,5.71,8.98,5.68,16.3,5.61l2.72-0.01c2.06-0.01,3.87-1.42,4.36-3.42l0.49-2.01
			c0.33-1.35,0.02-2.76-0.83-3.85c-0.86-1.08-2.17-1.72-3.55-1.71c0.13,0,0.23,0.04,0.26,0.05
			C121.09,225.95,120.69,225.52,120.4,225.22 M116.67,229.42l-0.49,2.01c0.49-2,2.3-3.41,4.36-3.42l-2.79,0.01
			c-7.12,0.05-7.7-0.16-8.97-1.92c-0.01-0.01-2.26-3.06-2.26-3.06c-1.4-1.87-2.17-2.9-3.92-5.71c-0.94-1.52-2.69-2.34-4.46-2.08
			c-1.77,0.26-3.21,1.53-3.69,3.25l-2.35,8.58c-0.44,1.63-0.19,3.29,0.68,4.68c1.43,2.29,3.98,2.94,4.72,3.1
			c-1.2-0.24-2.26-0.96-2.92-2c-0.66-1.05-0.86-2.31-0.56-3.5l-0.51,2.03c0.5-1.99,2.3-3.4,4.35-3.4H82.83
			c1.38,0,2.68,0.63,3.54,1.72c0.85,1.09,1.16,2.51,0.82,3.85l0.5-2.01c-0.46,1.88-2.09,3.26-4.02,3.4c4.08-0.17,6.83-2.92,8.2-8.15
			c0.09-0.22,0.12-0.32,0.41-1.42l4.15-15.1c0.69-2.62,0.05-4.46-0.59-5.55c-1.41-2.36-3.78-2.94-4.57-3.13
			c1.17,0.28,2.14,1.01,2.75,2.03c0.62,1.03,0.77,2.25,0.48,3.41l0.47-1.85c-0.5,2-2.3,3.4-4.35,3.4l14.38-0.01
			c-1.38,0-2.69-0.64-3.55-1.73c-0.86-1.1-1.16-2.52-0.82-3.86l-0.47,1.86c0.46-1.83,2.02-3.18,3.9-3.37
			c-2.46,0.25-5.37,1.95-6.32,5.21c-0.02,0.07-2.6,9.4-2.6,9.4c-0.51,1.86,0.21,3.84,1.82,4.92c1.6,1.08,3.71,1.02,5.24-0.15
			c12.13-9.27,12.22-9.36,12.43-9.55c1.71-1.58,2.31-3.84,1.58-5.89c-0.92-2.56-3.49-3.83-5.64-3.96c1.34,0.07,2.57,0.74,3.36,1.82
			c0.79,1.09,1.06,2.46,0.73,3.75l0.47-1.85c-0.51,2-2.3,3.39-4.35,3.39l15.06-0.02c-1.38,0.01-2.69-0.64-3.55-1.73
			c-0.86-1.1-1.16-2.53-0.81-3.87l-0.48,1.87c0.57-2.2,2.68-3.64,4.94-3.35c-0.8-0.1-3.65-0.23-6.94,2.52
			c0.06-0.06-12.05,9.65-12.05,9.65c-1.79,1.44-2.22,4-0.97,5.93c6.85,10.68,7.61,11.49,7.9,11.79c1.06,1.13,3.39,3.62,7.2,3.6
			c-1.38,0.01-2.69-0.63-3.55-1.72C116.65,232.18,116.34,230.76,116.67,229.42"/>
		<path fill="#1F1C14" d="M170.07,227.51c2.34-0.01,5.26-0.65,7.58-1.42l-1.38,5.94c-2.9,0.57-6.16,1.07-9.98,1.08
			c-11.95,0.06-17.09-6.08-17.12-12.45c-0.02-8.54,9.15-17.04,23.92-16.84c3.13,0.05,6.12,0.62,8.12,1.26l-1.95,7h-0.99
			c-1.22-1.6-3.07-2.8-6.74-2.8c-7.47,0-12.11,4.1-12.09,9.56C159.45,223.77,163.7,227.54,170.07,227.51"/>
		<path fill="#1F1C14" d="M126.89,204.09l-0.46,1.86c0,0,2.83,0.3,1.96,3.12l-6.44,23.41l12.88,0.02l0.48-2.01
			c0,0-2.4-0.57-1.78-2.8c0.05-0.19,1.88-6.94,1.88-6.94l5.91-0.02c2.93,0.02,3.9,1.54,3.9,1.54l1.72-6.95H137l1.47-5.46l8.64-0.01
			c1.58,0,2.71,1.06,2.71,1.84h0.97l1.9-7.61H126.89"/>
		<path fill="#1F1C14" d="M117.13,228.3c-0.77-0.81-7.4-11.14-7.4-11.14l12.12-9.7c2.04-1.7,3.49-1.51,3.49-1.51l0.48-1.87
			l-15.07,0.01l-0.47,1.86c1.03,0.06,2.46,0.97,1.29,2.06c-0.15,0.13-12.11,9.27-12.11,9.27l2.58-9.33c0.53-1.81,2.46-2,2.46-2
			l0.47-1.86l-14.38,0.01l-0.47,1.86c0.69,0.17,2.65,0.55,1.97,3.13c-4.81,17.35-4.25,15.63-4.57,16.58c-1.32,5-3.44,4.75-4.2,4.81
			l-0.5,2.02h15.04l0.51-2.03c0,0-2.39-0.48-1.93-2.21c0.45-1.7,2.34-8.54,2.34-8.54c2.6,4.2,3.21,4.71,6.36,9.02
			c3.14,4.33,6.5,3.77,15.39,3.77l0.5-2.01C119.14,230.5,117.89,229.11,117.13,228.3"/>
		<path fill-rule="evenodd" clip-rule="evenodd" fill="#1F1C14" d="M182.42,204.35c-0.23,0.21-0.33,0.49-0.33,0.82
			c0,0.32,0.1,0.59,0.33,0.81c0.23,0.24,0.5,0.36,0.82,0.36c0.32,0,0.59-0.12,0.83-0.36c0.22-0.22,0.33-0.49,0.33-0.81
			c0-0.33-0.11-0.61-0.33-0.82c-0.23-0.23-0.51-0.36-0.83-0.36C182.92,203.99,182.65,204.12,182.42,204.35 M184.19,206.11
			c-0.26,0.27-0.59,0.4-0.96,0.4c-0.37,0-0.69-0.13-0.95-0.4c-0.26-0.26-0.39-0.58-0.39-0.94c0-0.37,0.13-0.69,0.39-0.95
			c0.26-0.26,0.58-0.39,0.95-0.39c0.37,0,0.69,0.13,0.96,0.39c0.26,0.26,0.39,0.58,0.39,0.95
			C184.59,205.53,184.46,205.85,184.19,206.11 M183.49,204.65c-0.06-0.04-0.16-0.05-0.31-0.05h-0.22v0.53h0.23
			c0.11,0,0.19-0.01,0.25-0.04c0.1-0.04,0.15-0.11,0.15-0.22C183.59,204.75,183.56,204.7,183.49,204.65 M183.21,204.42
			c0.19,0,0.32,0.02,0.4,0.06c0.16,0.06,0.23,0.18,0.23,0.36c0,0.14-0.05,0.23-0.15,0.29c-0.05,0.04-0.12,0.07-0.22,0.08
			c0.12,0.02,0.2,0.06,0.25,0.14c0.06,0.09,0.09,0.15,0.09,0.22v0.12c0,0.04,0,0.07,0.01,0.1c0,0.05,0.01,0.07,0.01,0.09l0.01,0.01
			h-0.24l-0.01-0.01v-0.02l-0.01-0.06v-0.11c0-0.17-0.04-0.28-0.14-0.35c-0.05-0.03-0.15-0.04-0.29-0.04h-0.2v0.59h-0.26v-1.48
			H183.21z"/>
	</g>
</g>
</svg>
