<?xml version="1.0" encoding="utf-8"?>
<!-- Generator: Adobe Illustrator 24.0.2, SVG Export Plug-In . SVG Version: 6.00 Build 0)  -->
<svg version="1.1" id="Layer_1" xmlns="http://www.w3.org/2000/svg" xmlns:xlink="http://www.w3.org/1999/xlink" x="0px" y="0px"
	 viewBox="0 0 216 144" style="enable-background:new 0 0 216 144;" xml:space="preserve">
<style type="text/css">
	.st0{fill-rule:evenodd;clip-rule:evenodd;fill:#C40452;}
	.st1{fill-rule:evenodd;clip-rule:evenodd;fill:#808285;}
</style>
<g>
	<path class="st0" d="M60.44,27.22c-24.73,0-44.78,20.05-44.78,44.79c0,24.73,20.05,44.78,44.78,44.78s44.79-20.05,44.79-44.78
		C105.23,47.27,85.17,27.22,60.44,27.22z M71.35,87.77v3.43h-9.28v0.03h-3.44V52.72h3.44v35.05H71.35z M60.44,109.49
		c-20.7,0-37.49-16.79-37.49-37.49c0-20.71,16.79-37.49,37.49-37.49c0.55,0,1.09,0.01,1.63,0.03v3.42
		c-0.54-0.03-1.08-0.04-1.63-0.04c-18.82,0-34.08,15.26-34.08,34.08s15.26,34.08,34.08,34.08c18.31,0,33.24-14.44,34.05-32.55v-0.1
		H71.4v-3.44h26.48c0.03,0.67,0.05,1.33,0.05,2.01C97.93,92.71,81.15,109.49,60.44,109.49z M51.72,57.83c0,2.9-2.35,5.26-5.26,5.26
		c-2.91,0-5.27-2.36-5.27-5.26c0-2.91,2.36-5.27,5.27-5.27C49.37,52.55,51.72,54.91,51.72,57.83z"/>
	<polygon class="st1" points="124.08,94.14 156.08,94.14 156.08,84.47 136.77,84.47 135.84,84.47 135.84,83.54 135.84,49.86 
		124.08,49.86 124.08,94.14 	"/>
	<path class="st1" d="M194.75,52.98c-3.67-2.84-8.39-4.28-14.03-4.28c-6.69,0-12.29,2.06-16.17,5.94
		c-4.06,4.06-6.21,10.04-6.21,17.3c0,7.75,2.27,14.29,6.4,18.42c3.24,3.24,7.55,4.95,12.49,4.95c10.84,0,13.33-6.5,13.33-6.5v2.99
		v2.35h9.79v-25h-19.48v7.82h7.84h1.13c0,0,0.09,9.85-9.17,9.85c-2.35,0-4.45-0.85-6.06-2.46c-2.51-2.51-3.84-6.73-3.84-12.22
		c0-9.08,3.61-14.5,9.65-14.5c3.77,0,6.61,2.32,7.34,5.83h12.46C199.57,58.35,198.17,55.69,194.75,52.98L194.75,52.98z"/>
</g>
</svg>
