<?xml version="1.0" encoding="utf-8"?>
<!-- Generator: Adobe Illustrator 24.2.0, SVG Export Plug-In . SVG Version: 6.00 Build 0)  -->
<svg version="1.1" id="Layer_1" xmlns="http://www.w3.org/2000/svg" xmlns:xlink="http://www.w3.org/1999/xlink" x="0px" y="0px"
	 viewBox="0 0 1000 1000" style="enable-background:new 0 0 1000 1000;" xml:space="preserve">
<style type="text/css">
	.st0{fill:#076AAA;}
	.st1{fill-rule:evenodd;clip-rule:evenodd;fill:#FFFFFF;}
</style>
<g>
	<rect x="94.2" y="334.2" class="st0" width="811.6" height="331.7"/>
	<path class="st1" d="M173.6,586.5h60.5v-85.9c0-16.5,5.2-28.4,20.5-28.4c18.3,0,19.8,13.4,19.8,28.4v85.9h60.5v-85.9
		c0-16.5,5.2-28.4,20.5-28.4c18.3,0,19.9,13.4,19.9,28.4v85.9h60.5V477.6c0-25.7-13.8-53.8-54.4-53.8c-39.4,0-51.6,22.9-54.1,24.8
		c-7.3-15.9-25.7-24.8-42.8-24.8c-22,0-39.7,6.7-51.9,25.1h-0.6v-21.1h-58.4V586.5z"/>
	<path class="st1" d="M544.7,529.9c-0.9,16.5-11.6,24.8-25.4,24.8c-11,0-18.9-7.3-18.9-14.7c0-10.7,7-14.1,20.5-17.1
		c8.3-1.8,16.5-4,23.8-7.6V529.9z M602.8,485.9c0-30.6,0.6-62.1-75.2-62.1c-37.6,0-79.8,7.3-81.6,52h56.2
		c0.3-6.7,3.9-16.2,22.6-16.2c9.8,0,19.8,4,19.8,14.7c0,10.1-8.2,12.5-16.5,14.1c-30.9,5.8-89.5,4-89.5,54.1c0,33.3,25.4,48,55.9,48
		c19.5,0,38.2-4.3,51-19h0.6c-0.3,4.3,0.6,10.7,2.1,15h61.7c-6.7-10.1-7.3-23.5-7.3-35.5V485.9z"/>
	<polygon class="st1" points="771.3,427.8 709.6,427.8 684.5,524.4 683.9,524.4 659.1,427.8 595.3,427.8 647.2,586.5 718.7,586.5 	
		"/>
	<path class="st1" d="M765.9,586.5h60.5V427.8h-60.5V586.5z M826.4,368.1h-60.5v42.5h60.5V368.1z"/>
</g>
</svg>
