<?xml version="1.0" encoding="utf-8"?>
<!-- Generator: Adobe Illustrator 24.2.0, SVG Export Plug-In . SVG Version: 6.00 Build 0)  -->
<svg version="1.1" id="Layer_1" xmlns="http://www.w3.org/2000/svg" xmlns:xlink="http://www.w3.org/1999/xlink" x="0px" y="0px"
	 viewBox="0 0 1000 1000" style="enable-background:new 0 0 1000 1000;" xml:space="preserve">
<style type="text/css">
	.st0{fill-rule:evenodd;clip-rule:evenodd;fill:#ED1C24;stroke:#ED1C24;stroke-width:0.216;stroke-miterlimit:22.9256;}
	.st1{fill:#FFFFFF;}
</style>
<g>
	<polygon class="st0" points="94.2,388.5 905.8,388.5 905.8,611.5 94.2,611.5 94.2,388.5 	"/>
	<path class="st1" d="M742.3,498.8c-2.5,8.1-10,15.8-17.5,17.6c-5.7,0.9-9.9,0.2-12.9-1.7c-3.1-2.1-5-5.7-5.8-9.1
		c-0.2-1.2-0.3-2.4-0.3-3.6c0-7.4,4-14.5,11.2-19.9c4.2-2.9,9.9-4,14.8-2.9c2.8,0.6,6.7,2.3,9.1,6.7c1.3,2.4,2,5.3,2,8.3
		C742.9,495.8,742.7,497.4,742.3,498.8L742.3,498.8z M452.4,498.8c-2.3,8.1-9.4,15.6-16.9,17.4c-5.6,1.1-10.6,0.4-13.5-1.5
		c-3.1-2.1-4.8-5.6-5.8-9.1c-0.4-1.6-0.4-2.4-0.4-3.6c0-7.4,4-14.5,11.2-19.9c4.2-2.9,9.9-4,14.8-2.9c2.8,0.6,6.7,2.3,9.1,6.7
		c1.3,2.4,2.1,5.3,2.1,8.3C453,495.8,452.8,497.4,452.4,498.8L452.4,498.8z M761.2,466.2c0-0.5-0.1-0.9-0.5-1.3
		c-0.4-0.5-0.9-0.7-1.5-0.7h-10.3c-0.9,0-1.8,0.6-2,1.5l-0.8,3.9c-2.3-2.1-4.6-3.4-7.9-4.7l-1-0.5c-0.1,0-0.2-0.1-0.4-0.1
		c-11.2-2.5-22.5,0.9-31.7,9.5c-4.6,4.2-8.1,9.1-10.4,14.5l10.3-55.1c0.1-0.4,0-1-0.3-1.3c-0.3-0.4-0.7-0.6-1.2-0.6l-13.8,0
		c-0.4,0-0.8,0.2-1.1,0.6c0,0-41.4,54.4-48,61.8c2.4-9.1,11-60.4,11-60.4c0-0.1,0-0.2,0-0.3c0-0.3-0.1-0.8-0.3-1.1
		c-0.3-0.3-0.7-0.6-1.2-0.6l-14.5,0c-0.4,0-0.8,0.2-1.1,0.6l-69.4,80.1c-1.2-11.7-6.7-24.4-6.7-24.4c-9.1-18.7-29.1-25-41-15
		c-0.7,0.2-1.3,0.5-1.9,0.9c9-12.4,29.7-11.4,43.3,4.1c0,0,6.2,7.4,10.6,18.5c1.2-3.9,1.9-7.9,2.1-12.1
		c-7.2-9.8-15.4-15.5-15.4-15.5c-17-11.4-37.1-7.2-42.7,6.9c-0.6,0.7-1.1,1.5-1.4,2.4c1.6-15.2,20.1-24.7,39.5-18
		c0,0,9.4,3.5,19,11.1c-0.1-0.6-0.3-1.2-0.4-1.8c-1-4-2.5-7.9-4.5-11.5c-11.1-4.8-21-5.7-21-5.7c-21-1.5-36.6,13.1-33.3,28.6
		c0,0.3,0,0.6,0,0.9c0,0.5,0,0.9,0.1,1.4c-7-14.1,4.3-32.2,24.9-36.2c0,0,9.6-1.7,21.5,0.1c-3-3.2-6.4-6-10.3-8.3
		c-11.9,1.4-20.8,5.5-20.8,5.5c-18.9,9.2-25.1,29.7-14.5,41.5c0.3,0.7,0.8,1.4,1.3,2c-13.3-8.7-12.5-30,3.3-43.8
		c0,0,7.5-6.2,18.6-10.6c-4.6-1.4-9.3-2.1-14.1-2.1c-9.3,7.1-14.7,14.8-14.7,14.8c-11.8,17.6-6.8,38.6,8.5,43.3l0.1,0.1l0.2,0.1
		c0.5,0.3,0.9,0.6,1.4,0.8c-15.8-0.9-25.8-19.7-19-39.6c0,0,3.2-8.6,10.2-17.7c-4,1-7.8,2.6-11.4,4.5c-4.5,10.8-5.4,20.2-5.4,20.2
		c-1.5,20.8,12.9,36.3,28.3,33.4c0.3,0,0.6,0,0.9,0c0.5,0,1.1,0,1.6-0.1c-14.1,6.9-32.1-4.4-36.1-24.9c0,0-1.6-9.3,0-20.9
		c-3.4,3.2-6.3,6.9-8.8,11c1.5,11.4,5.4,19.8,5.4,19.8c9.3,19,30,25.2,41.7,14.3l0.1,0l0.2-0.2c0.5-0.3,1-0.6,1.5-1
		c-8.6,13.4-30.1,12.7-43.9-3.2c0,0-6.8-9-10.5-19.3c-0.1-0.4-0.4-1-0.7-1.3c-0.4-0.4-1-0.6-1.6-0.6h-10.3c-0.9,0-1.7,0.5-2.2,1.5
		c0,0-0.6,1.2-0.9,3.6c-2.3-2.1-4.9-3.2-7.4-4.3c0,0-1.3-0.5-1.5-0.5c-11.2-2.7-22.5,0.8-31.7,9.4c-5.5,5-9.3,11-11.5,17.4
		c0,0-0.1,0.2-0.2,0.4l4.7-25.3c0.1-0.6-0.1-1.2-0.4-1.6c-0.4-0.4-0.9-0.7-1.5-0.7l-11.5,0c-1,0-1.8,0.7-2,1.6l-11.4,62.1
		c-0.1,0.6,0.1,1.2,0.4,1.6c0.4,0.5,0.9,0.4,1.5,0.4l11.4,0c1,0,1.8-0.4,2-1.3l4.6-25.3c0,0.2,0.3,5.3,0.7,7.9
		c1.7,9.5,10.1,18.3,19.2,20.1c7.9,1.4,16.4-0.6,24.7-5.7c-0.2,0.9-0.4,2.3-0.4,2.3c0,0.1,0,0.2,0,0.4c0,0.5,0.1,0.7,0.4,1.1
		c0.4,0.5,1,0.6,1.6,0.6l10.2,0c1,0,1.8-0.4,2-1.3l9-48.8c6.8,8,15.6,14.9,15.6,14.9c17,11.5,37.3,7.1,42.8-7.1
		c0.5-0.6,1-1.3,1.3-2.1c-1.6,15.2-20.1,24.7-39.5,18c0,0-8.6-3.2-17.7-10.2c0.1,0.3,0.1,0.7,0.2,1c1.1,4.2,2.6,8.2,4.7,11.9
		c10.6,4.4,19.7,5.2,19.7,5.2c20.8,1.5,36.4-12.9,33.4-28.3c0.1-0.5,0.1-1,0.1-1.5c0-0.2,0-0.4,0-0.6c6.5,14-4.7,31.7-25.1,35.7
		c0,0-9.1,1.6-20.5,0.1c2.7,2.9,5.8,5.4,9.2,7.6c11.8-1.4,20.6-5.5,20.6-5.5c18.5-9,24.9-28.9,15.2-40.7c-0.3-0.9-0.8-1.6-1.4-2.3
		c12.7,8.9,11.8,29.8-3.9,43.5c0,0-7.6,6.3-18.9,10.8c4.4,1.5,9,2.4,13.7,2.6c9.8-7.2,15.5-15.4,15.5-15.4
		c11.8-17.5,6.9-38.5-8.4-43.3c-0.6-0.4-1.2-0.7-1.9-1c15.8,0.8,25.9,19.7,19.1,39.6c0,0-3.4,9.4-11.1,18.9c0.6-0.1,1.2-0.3,1.8-0.4
		c3.9-1,7.5-2.4,10.9-4.2c4.7-11,5.6-20.8,5.6-20.8c1.4-20.5-12.5-35.9-27.6-33.5c-0.6-0.1-1.2-0.2-1.9-0.2c-0.1,0-0.3,0-0.4,0
		c14-6.1,31.3,5.2,35.2,25.3c0,0,2.3,9.6,0.6,20.9c-0.3,1.6-1,4-2.3,6.5c-0.4,0.7-0.9,1.5-1.5,2.5c0,0,0,0,0,0c0,0,0,0.1-0.1,0.1
		c0,0,0,0,0,0c-0.2,0.4-0.3,1-0.1,1.5c0.2,0.5,0.8,0.9,1.4,0.9l16.3,0c0.5,0,0.9-0.2,1.2-0.5c0,0,53.7-57.7,59.9-65.1
		c-2.4,12.2-7.1,41.7-11.5,63.8c0,0.1,0,0.2,0,0.3c0,0.3,0.1,0.7,0.3,0.9c0.3,0.4,0.7,0.6,1.2,0.6l12.8,0c0.4,0,0.8-0.2,1.1-0.5
		c0,0,43.2-57.6,49.7-65.1c-2.7,12.3-7.2,42-11.6,63.7c0,0.1,0,0.2,0,0.4c0,0.3,0.1,0.7,0.3,0.9c0.3,0.4,0.7,0.6,1.2,0.6h12.6
		c0.7,0,1.3-0.5,1.4-1.2l4.6-26.9c0,0.9,0,1.7,0,1.7c0,2.5-0.9,5.1-0.4,7.6c1.7,9.5,10.1,18.3,19.2,20.1c7.9,1.4,16.4-0.6,24.7-5.7
		c-0.2,0.9-0.4,2.3-0.4,2.3c0,0.1,0,0.2,0,0.4c0,0.5,0.2,0.9,0.5,1.3c0.4,0.5,0.9,0.4,1.5,0.4l10.3,0c1,0,1.8-0.4,2-1.3l9.3-49.2
		L761.2,466.2L761.2,466.2z"/>
	<path class="st1" d="M371.1,494.4c-0.1,2-0.2,3-0.6,4.4c-2.1,8.2-9.7,15.7-17.2,17.6c-5.8,1.1-10.3,0.4-13.2-1.5
		c-3.1-2.1-5.1-5.6-5.8-9.2c-0.3-1.4-0.3-2.4-0.3-3.6c0-7.4,4.2-14.5,11.4-20c4.2-2.9,9.9-4,14.8-2.9c2.8,0.6,6.3,2.5,8.9,6.7
		C370.4,488.3,371.1,491.3,371.1,494.4L371.1,494.4z M275.3,489.4c3.1-5.9,9.7-9.5,15.3-10.3c6.1-0.4,8.9,1,11.6,3.4
		c2.4,2.4,3.6,4.7,3.8,6.9C302.8,489.4,280.1,489.4,275.3,489.4L275.3,489.4z M392.7,445.5c-0.4-0.5-0.9-0.7-1.5-0.7h-10.3
		c-0.9,0-1.8,0.7-2,1.6c0,0-3.6,17.2-4.8,22.9c-2.3-2.1-5-3.3-7.5-4.3l-1-0.5c-0.1,0-0.2-0.1-0.4-0.1c-11.2-2.5-22.5,0.9-31.7,9.5
		c-5.5,5-9.4,11-11.6,17.4c-0.3-5.4-1.7-10.6-3.6-14.5c0,0-0.1-0.1-0.1-0.1c-5.4-8.9-14.4-13.4-26.1-12.8c-0.1,0-0.1,0-0.1,0
		c-12.9,1.6-25.9,10.2-32.2,22.4c-0.1,0.2-0.2,0.4-0.3,0.6l9.8-53.6c0.1-0.4,0-1-0.3-1.3c-0.3-0.4-0.7-0.6-1.2-0.6h-13.4
		c-0.4,0-0.8,0.2-1.1,0.5c0,0-41.7,54.3-48.3,61.7c1.9-9.3,10.8-60.4,10.8-60.4c0-0.1,0-0.2,0-0.3c0-0.3-0.1-0.7-0.3-1
		c-0.3-0.4-0.7-0.6-1.2-0.6l-13,0c-0.4,0-0.8,0.2-1.1,0.6l-82.8,95.4c-0.2,0.3-0.4,0.6-0.4,1c0,0.2,0,0.4,0.1,0.6
		c0.2,0.5,0.8,1,1.4,1c0,0,12.8,0,16.6,0c0.5,0,0.9-0.2,1.2-0.6c0,0,52.5-59.5,58.7-66.9c-2.4,12.2-7.3,43.6-12.1,65.6
		c0,0.1,0,0.2,0,0.3c0,0.3,0.1,0.7,0.3,0.9c0.3,0.4,0.7,0.6,1.2,0.6l12.8,0c0.4,0,0.8-0.2,1.1-0.6c0,0,43.7-59.5,50.1-67
		c-2.7,12.3-6.8,43.9-12,65.7c0,0.1,0,0.2,0,0.4c0,0.3,0.1,0.7,0.3,0.9c0.3,0.4,0.7,0.6,1.2,0.6h12.4c0.7,0,1.3-0.5,1.5-1.2
		l4.7-25.3c-0.1,5.4,1,10.7,3.3,15c4.6,8,12.9,12.8,22.7,13.2c14.2,0,27.7-8.5,33.7-21.2c0.3-0.6,0.3-1.3-0.1-1.9
		c-0.4-0.6-1-0.9-1.7-0.9h-10.6c-0.6,0-1.1,0.2-1.5,0.7c-5,5.6-10.7,8.5-16.8,8.7c-6.1,0.2-11.6-3.3-13.8-8.9
		c-0.1-0.2-0.2-0.7-0.2-0.7c-0.3-1.1-0.6-2-0.6-2.7c0-0.2,0-0.4,0.1-0.6c2.2,0,47.5,0,47.5,0c0.5,0,1-0.2,1.3-0.5
		c0,2.5,0.2,5.1,0.6,7.6c1.7,9.5,10.1,18.3,19.2,20.1c7.9,1.4,16.4-0.6,24.7-5.7c-0.2,0.9-0.4,2.3-0.4,2.3c0,0.1,0,0.2,0,0.4
		c0,0.5,0.2,0.9,0.5,1.3c0.4,0.5,0.9,0.4,1.5,0.4l10.2,0c1,0,1.8-0.4,2-1.3l15.1-81.5C393.2,446.6,393,446,392.7,445.5L392.7,445.5z
		"/>
	<path class="st1" d="M395.9,462.4l11.4,0c1,0,1.8-1,2-1.9l2.5-13.3c0.1-0.6-0.1-1.2-0.4-1.6c-0.4-0.5-0.9-0.7-1.5-0.7l-11.5,0
		c-1,0-1.8,0.8-2,1.7l-2.4,13.2c-0.1,0.6,0,1.5,0.4,1.9C394.8,462.1,395.3,462.4,395.9,462.4L395.9,462.4z"/>
</g>
</svg>
