<?xml version="1.0" encoding="utf-8"?>
<!-- Generator: Adobe Illustrator 23.0.3, SVG Export Plug-In . SVG Version: 6.00 Build 0)  -->
<svg version="1.1"
	 id="logosvg.com" inkscape:version="1.0.1 (3bc2e813f5, 2020-09-07)" sodipodi:docname="Peugeot_2021.svg" xmlns:cc="http://creativecommons.org/ns#" xmlns:dc="http://purl.org/dc/elements/1.1/" xmlns:inkscape="http://www.inkscape.org/namespaces/inkscape" xmlns:rdf="http://www.w3.org/1999/02/22-rdf-syntax-ns#" xmlns:sodipodi="http://sodipodi.sourceforge.net/DTD/sodipodi-0.dtd" xmlns:svg="http://www.w3.org/2000/svg"
	 xmlns="http://www.w3.org/2000/svg" xmlns:xlink="http://www.w3.org/1999/xlink" x="0px" y="0px" viewBox="0 0 400 300"
	 style="enable-background:new 0 0 400 300;" xml:space="preserve">
<path id="black" d="M138.7,75.8c-3.8,0.4-7.6,0.8-11.4,1.3v-4.7c3.8-0.5,7.6-0.9,11.4-1.3c0.6-0.1,1.2,0.4,1.2,1v2.6
	C139.8,75.2,139.3,75.8,138.7,75.8z M239.5,77.9c3.6,0.2,7.3,0.5,10.9,0.8c0.6,0,1.2-0.5,1.2-1.1v-6.3c0-0.7-0.6-1.2-1.2-1.3
	c-3.6-0.3-7.3-0.6-10.9-0.8c-0.7,0-1.2,0.4-1.2,1.1v6.3C238.3,77.3,238.8,77.9,239.5,77.9z M287.9,59.8c0.6,18.4,0.6,33.1,0,44.8
	c-1.9,35.7-9.8,63.4-24.7,87.1c-14.9,23.7-37.3,43.3-63.2,55.3c-25.8-12-48.2-31.6-63.2-55.3c-14.9-23.7-22.8-51.4-24.7-87.1
	c-0.6-11.7-0.6-26.3,0-44.8c29.2-4.9,58.8-7.3,87.9-7.3C229.1,52.4,258.7,54.9,287.9,59.8z M236.1,76.2c0,3,1.6,3.6,4.6,3.8
	c2.8,0.2,5.6,0.4,8.4,0.6c3,0.2,4.6-0.3,4.6-3.1v-5.7c0-2.9-1.8-3.7-4.6-3.9c-2.8-0.2-5.6-0.4-8.4-0.6c-3.2-0.2-4.6,0.4-4.6,3.2
	V76.2z M214.4,78.8c5.4,0.1,10.8,0.3,16.3,0.6v-2.1c-4.7-0.2-9.4-0.4-14.1-0.6v-3.4c4.2,0.1,8.3,0.3,12.5,0.5v-2.1
	c-4.2-0.2-8.3-0.4-12.5-0.5v-3.1c4.7,0.1,9.4,0.3,14.1,0.6v-2.1c-5.4-0.3-10.8-0.5-16.3-0.6V78.8z M191.6,75.2c0,3,1.6,3.5,4.6,3.5
	c4.2,0,8.4,0,12.6,0.1v-7.5c-3,0-6-0.1-8.9-0.1v2.1c2.2,0,4.5,0,6.7,0v3.4c-3.9,0-7.8,0-11.6,0c-0.6,0-1.2-0.6-1.2-1.2v-6.4
	c0-0.6,0.6-1.1,1.2-1.1c4.3,0,8.6,0,13,0V66c-4-0.1-8.1-0.1-12.1,0c-2.8,0-4.2,0.9-4.2,3.7V75.2z M168.8,76c0,2.9,1.8,3.4,4.6,3.3
	c2.7-0.1,5.4-0.2,8.1-0.3c3.1-0.1,4.6-0.7,4.6-3.7v-9.2c-0.8,0-1.5,0-2.3,0.1v9.6c0,0.6-0.4,1.1-1.1,1.1c-3.5,0.1-7.1,0.2-10.6,0.4
	c-0.7,0-1.2-0.4-1.2-1v-9.6l-2.2,0.1V76z M165.1,108.4c1.6-0.9,3.3-1.9,5-2.8l1.5-0.8c6.7-3.7,13.3-7.3,16-8.5
	c0.5-0.2,1.1-0.4,1.7-0.4c6.7-0.5,14.1-0.6,19.7-0.7l1.3,0c3.8,0,6.6,0.1,7.9,0.1c0.5,0,1,0.1,1.5,0.3l2.4,0.8
	c-6,0.3-20.5,1.6-26.3,2.6l2.1,0.3c0.1,0,0.3,0,0.4,0c4.3-0.3,12.8-0.5,16.5-0.6c0.9,0,1.4,0.1,2.3,0.4c2.2,0.8,6.5,2.8,8.3,3.7
	c0.9,0.5,1.6,0.6,2.6,0.7c1.9,0.1,4.9,0.3,7.1,0.5c0.6,0.1,1.2,0.2,1.7,0.5c4.5,2.3,9.9,5.5,13.6,8c0.2,0.1,0.5,0.2,0.7,0.3l1.8,0.4
	c0,0-5.9-6-8.2-8c-0.3-0.3-0.7-0.6-1.1-0.8c-8.7-5-16.6-9-21-10.9c-0.7-0.3-1.5-0.5-2.2-0.5c-13.5-1-27.7-0.8-38.1,0.1
	c-0.7,0.1-1.3,0.4-1.7,0.9c-0.4,0.6-1.1,1.7-1.7,2.6c-0.3,0.5-0.7,0.9-1.1,1.3c-1.9,1.6-5.1,4.3-7.1,5.8c-0.2,0.1-0.3,0.2-0.4,0.3
	c-0.3,0.2-0.8,0.5-1.3,0.9l-0.7,0.5c-0.9,0.6-1.8,1.2-2.1,1.4c-0.2,0.1-0.2,0.2-0.4,0.3C166,107.4,165.1,108.4,165.1,108.4z
	 M210.3,122c1-1.5,2.9-4.3,3.8-5.8c0.3-0.5,0.4-1.1,0.3-1.7c-0.2-1.4-0.6-3-0.9-4.3c-0.1-0.2-0.2-0.4-0.4-0.5l-2.2-1
	c-0.3-0.1-0.6-0.2-0.9-0.1l0,0c-5.2,0.9-10.7,2-14.9,2.9c-0.3,0.1-0.6,0.3-0.8,0.6l-1.3,2.2c-0.1,0.2,0,0.4,0.2,0.4
	c1.1,0.2,3.3,0.6,4.1,0.7c0.5,0.1,0.6,0.1,1-0.1c2.6-1.1,6.9-2.8,10.1-3.9c0.3-0.1,0.5-0.1,0.8,0l1.5,0.5c0.2,0.1,0.4,0.2,0.5,0.4
	c0.4,0.7,0.8,1.5,1.1,2c0.2,0.4,0.1,0.8-0.2,1.3c-1.1,1.6-2.9,4-4.2,5.6c-0.3,0.3-0.4,0.8-0.3,1.2c0.7,2.6,2.4,7.9,3.2,10.4
	c0.1,0.3,0.3,0.5,0.5,0.8l1.2,1.1c0,0-1.9-9-2.4-11.6C210.1,122.7,210.1,122.3,210.3,122z M168.9,116.9c1.1-0.1,2.1-0.3,3.2-0.6
	l9.5-3c0.6-0.2,1-0.5,1.3-1.1l5.1-8.7c0.1-0.2,0-0.5-0.3-0.5l-4.3,0.1c-0.4,0-0.8,0.1-1.2,0.2c-3.8,1.3-9.1,3.6-12.1,5.2
	c-0.3,0.2-0.7,0.5-0.9,0.8l-4.6,5.6c-0.1,0.2-0.3,0.3-0.6,0.4l-3,1.3c-0.1,0.1-0.3,0.2-0.3,0.3l-0.1,0.3
	C160.5,117.3,166.8,117.1,168.9,116.9z M164.5,119.1c-0.1-0.2-0.3-0.3-0.5-0.3l-2,0.2c-0.2,0-0.3,0.1-0.3,0.3l-0.2,2.4
	c0,0.1,0.1,0.2,0.2,0.2l2.1-0.5c0.2-0.1,0.5-0.3,0.6-0.5C164.7,120.3,164.7,119.7,164.5,119.1z M147,81c5.4-0.5,10.8-0.9,16.2-1.2
	v-2.1c-4.7,0.3-9.4,0.6-14,1v-3.4c4.2-0.4,8.3-0.7,12.5-0.9v-2.1c-4.2,0.3-8.3,0.6-12.5,0.9v-3.1c4.7-0.4,9.4-0.7,14-1V67
	c-5.4,0.3-10.8,0.7-16.2,1.2V81z M127.3,79.1c3.6-0.4,7.1-0.8,10.7-1.2c2.6-0.3,4-1.3,4-4v-1.4c0-2.6-1.4-3.6-4-3.3
	c-4.3,0.5-8.6,0.9-13,1.5v12.7c0.7-0.1,1.5-0.2,2.2-0.3V79.1z M143.7,142.2c0.1-0.5,0.4-0.9,1-1c4.9-1.2,15.3-2.9,15.3-2.9
	c-1.1-1.3-4.8-5.1-5.9-6.1c-0.3-0.3-0.6-0.4-1.1-0.5c-1.4-0.2-5.8-0.5-5.8-0.5s0.4-0.4,0.7-0.7c0.3-0.3,0.4-0.4,0.8-0.5
	c5.4-1.9,12.7-4.6,17-6.4c0.9-0.4,1.4-0.7,2.1-1.4c0.3-0.3,1-1.1,1.3-1.5c0.1-0.1,0.1-0.2,0.1-0.3c0-0.1,0.1-0.4,0.1-0.4
	s-1.8,1.4-2.5,1.9c-0.7,0.5-1.1,0.7-1.9,0.9c-1.5,0.4-4.3,1.1-6,1.4c-0.5,0.1-0.7,0.1-1.1,0c-0.3-0.1-0.8-0.3-1.1-0.4
	c-0.3-0.2-0.5-0.2-0.8-0.1c-1.5,0.3-5.5,1.3-5.5,1.3s1.9-1.7,2-1.8c0.2-0.1,0.3-0.2,0.6-0.3c1.4-0.6,3.1-1.2,4.6-1.8
	c0.3-0.1,0.5-0.3,0.5-0.6c0.1-1.1,0.4-3.1,0.6-4.2c0.1-0.3,0.2-0.5,0.4-0.7c0.9-0.7,4-3.1,4.7-3.6c0,0,0.1-0.1,0.1-0.1l0.8-1h0
	c-2.2,1.3-6.2,3.7-8.3,5c-0.9,0.6-1.3,0.9-2.2,1.5c-0.1,0.1-0.2,0.2-0.3,0.3c-0.5,0.7-2.8,3.5-3.5,4.6c-0.1,0.1-0.2,0.3-0.4,0.4
	c-7.4,5.3-11.6,8.6-13.2,10c-0.7,0.7-1.3,1.3-1.9,1.9c-0.5,0.5-0.6,0.7-0.7,1.2c0,0.4-0.1,0.8-0.1,1.1c0,0.2,0,0.3,0.1,0.4
	c0.1,0.2,0.7,0.8,0.8,1c0.1,0.1,0.2,0.1,0.2,0c1.1-0.8,2.6-1.9,4-3c0.1-0.1,0.3-0.3,0.4-0.4c0.2-0.4,0.5-1,0.7-1.4
	c0.1-0.2,0.2-0.3,0.5-0.5c0.2-0.1,0.6-0.4,0.9-0.6l0.2-0.1c0,0,0,0,0,0l0,0l-0.1,0.2c-0.2,0.7-0.7,2.5-1,3.2
	c-0.2,0.3-0.3,0.5-0.4,0.6c-1.1,1.1-3.1,3.3-4.1,4.6c-0.3,0.4-0.2,0.9,0,1.3c0.9,1.3,2.8,3.7,3.9,4.9c0.4,0.4,0.5,0.5,0.8,0.7
	c0.5,0.3,0.8,0.4,0.8,0.4S143.3,143.6,143.7,142.2z M157.1,159.3c1.9-0.6,4.4-1.4,6-2c0.3-0.1,0.5-0.3,0.7-0.5
	c1.4-1.7,3.3-4.4,4.8-6.9L157.1,159.3z M148.1,146.5c-1.8,0.3-3.5,1.4-4,2.7l3.1,3.6L148.1,146.5z M161.3,172.5
	c0.7-0.7,1.9-1.8,1.9-1.8s-4.1,1-5.7,1.3c-0.6,0.1-0.9-0.2-1-0.6c-0.2-1.1-0.8-4.7-1-5.8c-0.1-0.6,0.1-0.9,0.6-1.1
	c2.6-0.8,7-2.3,10.6-3.6c0.9-0.3,1.2-0.7,1.7-1.5c0.8-1.2,2.1-3.6,3.5-6l0.7-1.3c1-1.8,1.9-3.5,2.6-4.8c0.2-0.5,0.2-1,0-1.5
	l-0.8-1.3c-0.3-0.4-0.9-0.9-1.4-1c-3.6-0.9-8.4-2.1-10.6-2.6c-0.5-0.1-1-0.1-1.5,0.1l-0.4,0.1c3.5,1.2,6.4,2.2,10.1,3.6
	c0.3,0.1,0.7,0.5,0.8,0.8l0.3,1.1c0.1,0.5,0.1,0.9-0.1,1.4c-1.6,3.1-4.3,7.2-6.5,9.8c-0.3,0.4-0.8,0.7-1.2,0.9
	c-2.1,0.8-6,2.1-7.6,2.5c-0.3,0.1-0.5,0-0.8-0.1c-1.2-0.9-3.7-3.2-3.7-3.2s-0.2,2.6-0.2,3.7c0,0.1,0,0.3,0.1,0.4
	c0.4,1,1.2,2.9,1.5,3.9c0.1,0.3,0.1,0.5,0.2,0.7c0.4,1.7,1.6,6.6,1.6,6.6c0.2,0.8,0.6,1,1.3,0.9c0.9-0.2,3.6-1,4.7-1.3
	C161,172.7,161.1,172.6,161.3,172.5z M195.1,223.9l-0.7-1.3c-0.1-0.1-0.1-0.2-0.2-0.2c0,0-2-1.3-2.7-1.7c-0.6-0.4-0.9-0.6-1.2-0.9
	c-4.2-3.8-19.2-22.1-23.6-30.1c-0.8-1.3-1-2-0.9-3.3c0.1-1.5,0.4-4.5,0.7-6.2c0.2-1.1,0.4-1.8,1.4-2.6c2.5-2.3,6.6-6.4,8.8-8.6
	c0.9-0.9,1.4-1.6,1.9-2.5c1-1.9,3.1-6.3,5.1-10.8l0.7-1.6c1.7-3.7,3.2-7.4,4.1-9.6c0.4-0.9,0.4-1.2,0.2-2.2c-0.1-1-0.5-2.6-1-4.3
	l-0.2-0.9c-0.7-2.5-1.4-4.8-1.4-4.8l-0.2,2.4c0,0.2,0,0.3,0,0.5c0.2,1,0.9,5.2,0.8,7.3c0,0.7,0,1-0.4,1.8
	c-1.7,3.4-6.4,10.1-11.5,16.8l-1.2,1.5c-3.3,4.4-6.8,8.6-9.6,11.8c-0.8,1-1.1,1.6-1.3,2.7c-0.4,1.8-0.8,5.9-1.1,9.2
	c-0.1,1.8,0,2.4,1.1,4.2c4.5,7.4,19.7,25.2,24.7,29.4c0.3,0.3,0.7,0.5,1.1,0.7c0.9,0.5,2.6,1.4,4.1,2.1l0.9,0.5
	c0.4,0.2,0.7,0.4,1,0.5l0.3,0.2C195.1,223.8,195.1,223.9,195.1,223.9z M203.1,225.4l-0.4-3c0-0.3-0.1-0.5-0.2-0.8
	c-1-2.3-6.4-15-7.9-19.8c-0.5-1.7-0.6-2.2-0.4-4.1c0.3-3.4,0.9-7.4,1.6-11.4l0.3-1.5c1.7-9.5,3.8-18.8,4.3-20.6
	c0.1-0.5,0.1-0.7,0-1.3c-0.2-1-0.7-4.4-0.7-4.4c0,0,0,0,0,0h0v0c-1.9,4.5-8.9,23-11.4,33.9c-0.5,2.1-0.4,2.6,0,3.7
	C192.1,205.7,201.4,222.8,203.1,225.4z M246,149.9c-0.1-0.5-0.2-0.9-0.5-1.4c-1.3-2.2-7.6-10.8-15.5-19c-0.3-0.3-0.6-0.5-1-0.7
	l-1.3-0.6c0,0,2.3,10,3.3,15.5c0.1,0.7,0.5,1.3,1,1.8c3.5,3.5,5.9,6.2,7.8,9.1c0.8,1.2,1.3,2.7,1.4,4.2c0.5,8,0.3,18.9-0.6,25
	c-0.2,1.2-0.5,1.7-1.3,2.3c-3.1,2.5-7,5.8-11,9.2l-1.8,1.6c-5.1,4.4-10.1,8.8-12.9,11.7c-0.6,0.6-0.8,0.8-1.1,1.3
	c-0.7,1.1-1.5,2.7-1.5,2.7s-1.3-3.9-1.6-6.1c-0.1-1-0.1-1.3,0-2.3c0.7-4.6,3.9-15.2,4.4-16.8c0-0.1,0.1-0.3,0.1-0.4l0-1
	c-1.2,2.4-7.2,15.9-8.4,20.6c-0.3,1-0.2,1.4,0,2.1c0.8,2.2,3,7.8,4.1,10c0,0,0.1-0.2,0.2-0.5l0.2-0.4c0.8-1.5,2.4-4.4,3.4-6.1
	c0.4-0.7,0.9-1.2,1.4-1.8c2.2-2.1,7.5-6.5,13-11.1l1.4-1.2c4.6-3.8,9.2-7.5,12.3-9.8c1-0.7,1.3-1.2,1.5-2.2
	C246.2,174.6,247.4,161.9,246,149.9z M260.7,123.5c-0.1-0.7-0.4-1-0.9-1.4c-5.8-4.3-16.4-10.5-22.6-13.1c-0.8-0.3-1.7-0.4-2.5-0.1
	l0,0c-3,1.1-7.8,3.1-12.7,5.4l0.1,0c0.2,0,0.9,0.1,1.5,0.1l0.6,0.1c0.4,0,0.7,0.1,1,0.1c0.5,0.1,0.7,0,1.3-0.1
	c1.5-0.4,4.2-1.1,6.3-1.6c1-0.2,2.1,0,3,0.6c2.9,2.2,7.6,5.9,10.6,8.4c0.5,0.4,1.1,0.8,1.7,1c4.6,1.8,6.6,2.7,7.6,3.3
	c0.7,0.4,1.2,1,1.4,1.8c1.2,4.6,2,11.6,2.4,16.6c0.1,0.9,0,1.9-0.4,2.8c-1.3,3.6-4.5,9.7-6.3,12.5c-0.2,0.3-0.3,0.5-0.6,0.7
	c-0.6,0.5-1.8,1.4-2.6,2.1c-0.2,0.1-0.3,0.3-0.3,0.5c0,1.8-0.3,5.1-0.4,5.7l0,0.1c4.4-5.5,8.6-12.6,12.3-20.1c0.3-0.6,0.4-1,0.5-1.6
	C262.6,139.4,262.1,129.8,260.7,123.5z M275,70.6c-5.7-0.7-11.4-1.4-17.1-1.9v2.1c2.5,0.2,5,0.5,7.4,0.8v10.7
	c0.8,0.1,1.5,0.2,2.2,0.3V71.8c2.5,0.3,4.9,0.6,7.4,0.9V70.6z M297.2,105.3c-2,37.2-10.3,66.2-26,91.2
	c-15.8,25.1-39.5,45.9-66.8,58.6l-4.4,2l-4.4-2c-27.3-12.7-51-33.5-66.8-58.6c-15.7-25-24-54-26-91.2c-0.6-11.9-0.6-26.7,0-45.3
	l0.3-8.5l8.4-1.4c29.4-4.9,59.2-7.4,88.5-7.4c29.3,0,59.1,2.5,88.5,7.4l8.4,1.4l0.3,8.5C297.8,78.7,297.8,93.5,297.2,105.3z
	 M291.3,56.8c-31.1-5.4-61.8-7.9-91.3-7.9c-29.5,0-60.2,2.5-91.3,7.9c-0.5,12.4-1,31.6-0.1,47.9c2,36.3,10,64.6,25.3,88.8
	c15.2,24.2,38.8,44.9,66.1,57.3c27.4-12.3,50.9-33.1,66.1-57.3c15.3-24.2,23.3-52.4,25.3-88.8C292.3,88.4,291.8,69.2,291.3,56.8z"/>
</svg>
