<?xml version="1.0" encoding="utf-8"?>
<!-- Generator: Adobe Illustrator 24.2.0, SVG Export Plug-In . SVG Version: 6.00 Build 0)  -->
<svg version="1.0" id="Layer_1" xmlns="http://www.w3.org/2000/svg" xmlns:xlink="http://www.w3.org/1999/xlink" x="0px" y="0px"
	 viewBox="0 0 300 280" enable-background="new 0 0 300 280" xml:space="preserve">
<g>
	<path d="M78.66,124.11l0.11-1.25h3.99v11.63h-3.95c-1.74-6.3-9.46-8.53-17.7-8.53c-6.2,0-10.37,1.85-10.37,4.54
		c0,2.39,3.18,3.48,8.25,4.24l10.21,1.57c10.83,1.68,16.11,3.79,16.22,10.61c0.1,6.4-7.67,10.9-19.02,10.9
		c-5.21,0-11.1-0.76-16.32-3.03c0,0-3.03-1.37-3.18,2.03H42.6v-13.18h3.86c1.68,6.8,9.81,9.63,19.11,9.63
		c6.8,0,10.43-1.57,10.43-4.42c0-2.64-2.72-4.16-8.62-5.08l-8.07-0.72c-11.37-1.78-17.73-4.14-17.58-10.65
		c0.14-6.35,7.87-10.55,19.07-10.55c5.17,0,11.03,0.86,15.49,2.89C78.91,125.94,78.66,124.11,78.66,124.11z"/>
	<path d="M103.44,139.98c0-9.03,5.54-14.06,14.51-14.06c8.97,0,14.44,5.03,14.44,14.06c0,9.03-5.48,14.11-14.44,14.11
		C108.98,154.1,103.44,149.02,103.44,139.98z M92.64,139.98c0,10.83,10.05,18.16,25.31,18.16c15.26,0,25.24-7.33,25.24-18.16
		c0-10.83-9.98-18.11-25.24-18.11C102.69,121.88,92.64,129.15,92.64,139.98z"/>
	<path d="M187.96,156.34l-25.99-22.74v15.94c0,2.75,0.55,3.05,4.52,3.05h2.41l-0.15,3.61l-20.38,0.14v-3.75h2.56
		c3.97,0,4.52-0.29,4.52-3.05v-19.41c0-2.75-0.55-3.05-4.52-3.05h-2.29v-3.75h16.42l23.81,20.89v-14.26c0-2.75-0.55-3.05-4.52-3.05
		h-2.3v-3.75l19.16,0.16v3.75h-2.19c-3.97,0-3.97,0.3-3.97,3.05v26.2H187.96z"/>
	<path d="M242.64,152.59h0.86v3.75h-22.75v-3.75h1.91c4.4,0,5.01-0.29,5.01-3.05v-6.34l-12.6-12.72c-2.35-2.26-4.25-3.39-7.37-3.39
		h-1.58v-3.75h22.9v3.75h-0.59c-2.2,0-3.34,0.3-3.34,1.03c0,0.44,0.38,0.98,1.06,1.62l8.59,9.03l9.12-9.32
		c0.61-0.54,0.99-0.98,0.99-1.47c0-0.59-0.99-0.88-2.73-0.88h-3.05v-3.75h19.2v3.75h-1.75c-2.89,0-4.18,0.59-5.92,2.16l-13.05,13.95
		v6.34C237.55,152.3,238.24,152.59,242.64,152.59z"/>
</g>
</svg>
