<?xml version="1.0" encoding="utf-8"?>
<!-- Generator: Adobe Illustrator 24.2.0, SVG Export Plug-In . SVG Version: 6.00 Build 0)  -->
<svg version="1.1" id="Layer_1" xmlns="http://www.w3.org/2000/svg" xmlns:xlink="http://www.w3.org/1999/xlink" x="0px" y="0px"
	 viewBox="0 0 1000 1000" style="enable-background:new 0 0 1000 1000;" xml:space="preserve">
<style type="text/css">
	.st0{fill-rule:evenodd;clip-rule:evenodd;fill:#ED1C24;}
	.st1{fill-rule:evenodd;clip-rule:evenodd;fill:#005B94;}
	.st2{fill-rule:evenodd;clip-rule:evenodd;fill:#FFFFFF;}
</style>
<g>
	<path class="st0" d="M98.8,575.3v50.2h809.3v-50.2H98.8z"/>
	<path class="st1" d="M229,566.6L301,375.9h-72.6l-25,83.3c0,0-5,19.9-6.5,32c0,0-4.2-25-6.2-31.4l-24.4-83.9H91.8l72.9,190.7H229z
		 M359.4,472.9c9,0,16.3,5.3,16.3,20.8c0,15.4-8.1,21.3-16.8,21.3c-8.7,0-16.8-7.6-16.8-21C342,480.5,349,472.9,359.4,472.9z
		 M437.9,421.6v145h-60.3v-22.7c0,0-13.2,27.8-43.7,27.8c-30.6,0-54.4-30.6-54.4-75.4c0-44.9,20.5-79.1,54.1-79.1
		c28.6,0,41.8,24.1,41.8,24.1v-19.6H437.9z M539.1,566.6v-91.7h19.1v-53.3h-19.1v-47.1h-65.1v47.1h-18.8v53.3h19.1v91.7H539.1z
		 M651.3,472.9c9,0,16.3,5.3,16.3,20.8c0,15.4-8.1,21.3-16.8,21.3c-8.7,0-16.8-7.6-16.8-21C633.9,480.5,640.9,472.9,651.3,472.9z
		 M729.8,421.6v145h-60.3v-22.7c0,0-13.2,27.8-43.7,27.8c-30.6,0-54.4-30.6-54.4-75.4c0-44.9,20.5-79.1,54.1-79.1
		c28.6,0,41.8,24.1,41.8,24.1v-19.6H729.8z M908.2,566.6V466.5c0-28.3-17.7-49.4-46-49.4c-28.3,0-38.4,18.5-44,25.8v-21.3h-64.2v145
		h66.5V494c0-16.3,5.9-19.4,11.5-19.4c5.6,0,10.1,1.1,10.1,17.9v74H908.2z"/>
	<path class="st2" d="M302.9,595.6c-2.4-1-7-2.4-14.4-2.6c-9.3,0.2-14.3,2.4-15.7,3.2c-2.1,1.3-3.3,3-3.3,4.9c0,2.1,1.3,3.9,3.5,5.4
		c2.1,0.9,7.8,3.2,15.5,3.4c7-0.2,12.3-2,14.9-3.1c2.5-1.5,4-3.5,4-5.7C307.4,598.9,305.7,597,302.9,595.6z M288.5,617.1
		c-1.3,0-2.7,0-4.2,0c-17.4,0-34.4-5.7-34.4-15.8c0-10.2,18.9-15.3,33.5-15.3c1.8,0,3.5,0,5,0.1c1.5-0.1,3.2-0.1,5-0.1
		c14.5,0,33.3,5.1,33.3,15.3c0,10.2-16.8,15.8-34.1,15.8C291.1,617.1,289.8,617.1,288.5,617.1z M846.1,592.7v7.7h8.8
		c4,0,7.3-1.4,7.3-3.7c0-2.3-3.5-4-7.1-4H846.1z M827.5,586.7v29.5h18.6v-11.8l16.5,11.8h21.7l-19.4-12.2c0,0,16.4-0.6,16.4-8
		c0-8.5-15.1-9.4-17.5-9.4H827.5z M747,586.7v29.5h44.3v-6.9h-25.2v-4.6h23.3v-6.5h-23.3V593h25.1v-6.3H747z M662.2,586.7v6.9h16.4
		v22.6H698v-22.4h15.8v-7.2H662.2z M565.8,586.7v17.7c0,7.1,6.7,10.9,19.4,12.2c0,0,6.5,0.4,11.6,0.4c4.1,0,7.6,0.1,12.9-0.6
		c5.8-0.7,19.8-1.7,19.8-12.7v-17H610v15.1c0,3.9,0.9,8.2-12.8,8.2c-11.4,0-11.9-4.7-11.9-7.9v-15.4H565.8z M497.4,592.8v7.1h9.5
		c3.8,0,6.9-1,6.9-3.5c0-2.5-4-3.4-6.8-3.4C504.2,592.9,497.4,592.8,497.4,592.8z M478.8,586.7v29.5h18.7v-9.8h16
		c8.5,0,19.4-2.8,19.4-9.9c0-7.1-13.3-9.9-19.4-9.9H478.8z M357.7,616.3H376l5.7-19.1l13,19.1h13.2l13.2-19.2l5.5,19.2h18.4
		l-11.2-29.5h-19.4l-12,17.2c0,0-1,1-1,1.7c0,0-0.6-1.1-1.1-1.8l-11.9-17.1h-19.5L357.7,616.3z M218.3,596.6v-8.5
		c0,0-6.8-2.1-21.4-2.1c-14.6,0-33.5,5.1-33.5,15.3c0,10.2,17,15.8,34.4,15.8c17.4,0,20.6-2.1,20.6-2.1v-8.8c0,0-7.1,3.8-17.4,3.8
		c-10.3,0-18.1-3.7-18.1-8.8c0-5.1,8.2-8.2,18-8.2C213.1,593.1,218.3,596.6,218.3,596.6z"/>
</g>
</svg>
